<svg width="450" height="600"
     xmlns="http://www.w3.org/2000/svg" version="1.1">
<style>path {fill-opacity:1; stroke:none;}</style>
<path d="M 125,356L 127,355L 127,354L 126.6357,352.834L 126.1045,350.5L 125.9688,348.166L 126,347L 126,344L 125,344L 124,346L 124,356Z" style="fill:rgb(32,31,32);"/>
<path d="M 163,324L 163,316L 162,315L 161,314L 158.9922,312.8594L 156.9951,311.6367L 156,311L 154.7207,310.9297L 153.4727,310.7813L 151.085,310.2695L 148.9287,309.2695L 146.9414,307.7813L 145,306L 144,306L 143.1016,306.6563L 141.1133,307.7949L 138.7129,308.5488L 136,309L 134.8438,309.8125L 132.3438,311.3125L 131,312L 130,315L 129.5078,316.4453L 128.5273,319.1992L 127.5352,321.6758L 126.5156,323.9219L 126,325L 125.7656,326.2656L 125.2656,328.7656L 125,330L 125,338L 125.5313,340.4688L 126,343L 127,343L 129.6875,342.0977L 132.7266,341.4531L 136.2227,341.1309L 139.918,341.0234L 143.5,341.0049L 147.0781,341.0352L 148.9082,341.1157L 152.4121,341.439L 153.9082,341.8091L 156.5313,342.8057L 158.457,344.2705L 159.8574,346.062L 161,348L 162,348L 162,345L 162,343.5L 162.002,340.0039L 162.0215,336.043L 162.1094,332.2188L 162.3438,328.6875L 162.7539,325.5078ZM 145.125,313.5L 144.25,314Z" style="fill:rgb(32,31,32);"/>
<path d="M 151,344L 149,344L 149,346L 151,347L 152,347L 152,345Z" style="fill:rgb(32,31,32);"/>
<path d="M 190.8753,287.6663L 189,286L 188,285.334L 186,284L 184,282.7332L 183.002,282.0299L 182.02,281.2714L 180.1563,279.6436L 179.4473,278.685L 178.9927,277.6762L 178.8912,276.1869L 179.4565,273.9249L 181.0616,272.576L 182,272L 182.8125,270.8125L 183.8125,270.0625L 184.9688,269.5391L 187.5313,268.7422L 190.4688,268.2344L 192,268L 192.8184,266.7422L 193.8184,265.9922L 196.4092,265.1211L 200,265L 205,265L 208,264L 211,263L 211,259L 208.1641,258.4072L 205.5552,257.6667L 204.4246,257.1686L 202.3354,256.0129L 200.5405,254.5168L 199.7369,253.5827L 198.1978,251.5544L 196.8239,249.2919L 196.2503,248.1134L 195.2251,245.7223L 194.8289,244.4818L 194.1631,241.9458L 193.8022,239.3096L 193.8418,236.5938L 194.291,233.8164L 195,231L 195.666,228.332L 196,227L 196,225L 194.9961,224.7813L 192.9961,224.2813L 192,224L 188.8594,223.3555L 186.1914,222.3564L 184,221L 167,221L 166.0176,223.4883L 164.5527,225.1934L 162.5303,225.7598L 160.2012,225.375L 159,225L 158,225L 157,226L 156,228L 155.5,229.2656L 154.5,231.7656L 154,233L 153.334,235.668L 153,237L 152.6709,238.6006L 152.0088,241.7021L 151.3379,244.6016L 151,246L 150.6777,249.3555L 150.248,252.4961L 150,254L 150,272L 150.668,272.999L 152,275L 153.5703,277.1758L 154.9043,279.5078L 156,282L 158,284L 160,286L 161,287L 163,288L 165.46,288.8496L 167.7173,289.916L 169.645,291.3281L 171.2588,293.0645L 172,294L 173,294.5703L 175,295.752L 177,297L 179.668,297.666L 181,298L 182,298L 184.6973,296.6973L 186.0986,296.0986L 187.5264,295.5479L 190.3955,294.5439L 193.2349,293.7173L 196,293L 196,292L 195,291L 192.5551,289.0391L 191.2973,288.0096ZM 179.375,284L 178,284ZM 190.75,256.25L 189.125,256.625ZM 158.375,272.875L 158,275L 159,275L 159,274ZM 178.375,290.875L 178,292.5Z" style="fill:rgb(32,31,32);"/>
<path d="M 221,306L 221,303L 218.332,302.334L 217,302L 215.3809,301.9463L 213.7773,301.8613L 210.6533,301.6133L 207.7949,301.1782L 205.3564,300.4702L 203.374,299.3696L 201.7461,297.8525L 201,297L 199,296L 197,295L 193,295L 191.6367,295.248L 188.8594,295.6777L 186,296L 186,297L 186,298L 186,300L 189,301L 190.3887,301.376L 193.1816,302.1611L 196,303L 198.668,303.666L 200,304L 202.668,304.666L 204,305L 208,305L 210.4063,304.7637L 212.7373,304.9131L 214.9365,305.5615L 216,306Z" style="fill:rgb(32,31,32);"/>
<path d="M 203,295L 202,294.4297L 200,293.248L 198,292L 197,292L 196,294L 196,295L 197,296L 199,297L 200,297L 203,296Z" style="fill:rgb(32,31,32);"/>
<path d="M 211,298L 210,297.334L 208,296L 202,296L 202,297L 203,299L 204,300L 206,302L 209,302L 209.998,301.332L 212,300L 212,299Z" style="fill:rgb(32,31,32);"/>
<path d="M 215,256L 213,257L 211,258L 211,264L 212,264L 213.5078,263.7539L 216.6875,263.3438L 220.2148,263.1074L 224,263L 224,262L 222.6563,261.416L 220.2256,260.0459L 218.377,258.2129L 217,256Z" style="fill:rgb(32,31,32);"/>
<path d="M 238.3125,254.4053L 237.5313,253.4873L 236.0576,251.4653L 234.7695,249.0894L 234.2324,247.7632L 233.2915,245.019L 232.647,242.1199L 232.3486,239.1414L 232.3804,237.6702L 232.605,234.7977L 233.1196,232.085L 233.8794,229.5576L 234.8623,227.2148L 236,225L 236,223L 234.666,222.334L 232,221L 224,221L 223.2261,221.9121L 221.6187,223.6582L 219.8926,225.2461L 219,226L 219,227L 220,230L 220.7715,232.4492L 221.0679,233.8174L 221.2876,235.2705L 221.5583,238.2935L 221.5179,239.8606L 221.391,241.3987L 221.1849,242.8895L 220.6286,245.755L 219.8044,248.3694L 218.7368,250.7352L 217.4438,252.9155L 216,255L 216,256L 216,258L 216,260L 218,261L 219.9609,261.0391L 223.7813,261.2188L 227.3125,261.6875L 230.4922,262.5078L 232,263L 237,263L 239,261.666L 240,261L 240,259L 240,257L 240,256Z" style="fill:rgb(32,31,32);"/>
<path d="M 238,302L 235,302L 233.4961,302.248L 230.3555,302.6777L 227,303L 227,304L 228,306L 243,306L 243,305L 241.7266,304.2773L 239.2266,302.7773Z" style="fill:rgb(32,31,32);"/>
<path d="M 250,263L 248,261L 243,261L 243,264L 250,264Z" style="fill:rgb(32,31,32);"/>
<path d="M 275.6254,278.4407L 274.6675,280.52L 273,282L 272,284L 271,286L 271,287L 272,288L 274,289L 275,289L 276.0239,288.4102L 274.7831,288.5895L 272.5895,288.4264L 270.7515,287.4314L 269,286L 267,286L 266,286.624L 264,287.8389L 262,289L 262,291L 261.8726,292.3579L 261.4434,293.4678L 260.3584,294.4136L 258.9033,294.509L 256.7241,293.8022L 256,293L 255,293L 253,294L 251,295L 249,296L 248,297L 247.0234,299.3359L 245,301L 243.668,303.001L 243,304L 243,305L 247,305L 248.5547,304.7744L 251.6953,304.3877L 254.9297,304.1455L 258.2891,304.0322L 260,304L 262.4141,302.5391L 263.5957,301.8926L 265.9512,300.7402L 268.3838,299.8916L 271.0654,299.3467L 274,299L 274.6799,297.9995L 275.3805,297.0093L 276.8425,295.0747L 278.4751,293.3032L 280.3989,291.8523L 282.7448,290.8408L 285.5189,290.2266L 287,290L 288,289.2344L 290,287.7344L 291,287L 292,286L 293,285L 294,284L 295,283L 296,282L 297,281L 298.4629,278.8057L 300.1152,276.8799L 301,276L 301.1279,274.5059L 301.7549,271.916L 303,270L 304,267L 304,255L 303.7539,253.5547L 303.3418,250.6055L 303.0879,247.5508L 303,246L 302.7344,244.7656L 302.2344,242.2656L 302,241L 301.666,239.668L 301,237L 300,234L 298.9609,231.9102L 297.9219,229.5703L 297,227L 296,226L 295,225L 293.0215,224.2676L 291.3457,222.9365L 290,221L 280,221L 278.0039,220.999L 274.0469,220.9844L 270.2617,220.8955L 266.9063,220.5938L 264.1953,219.9434L 262,219L 260,219L 259.8457,221.9805L 259.5146,224.6348L 259,227L 259,230L 259.2656,231.2344L 259.7656,233.7344L 260,235L 260.3477,236.1055L 260.8613,238.3496L 260.8926,240.6309L 260.6357,241.7588L 259.8955,244.1494L 259.3403,245.4673L 258.126,248.1045L 256.7686,250.6201L 255.3765,252.894L 254,255L 253,258L 253,259L 254.334,261L 255,262L 257.0728,263.4197L 258.4932,265.645L 259,267L 263,267L 264.0176,266.9623L 265.463,267.2553L 267.6466,268.2999L 269,270L 271.3965,271.1504L 273.3836,272.555L 274.1384,273.5137L 275.1934,276.0303ZM 296.625,267.75L 297,270L 298,270ZM 262.125,256.2813L 261,256.25ZM 284.5938,276.2617L 285.5,277ZM 292.8144,274.7757L 291.8162,274.5513Z" style="fill:rgb(32,31,32);"/>
<path d="M 254,256L 253,256L 251.667,256.668L 249,258L 248,260L 248,263L 250,265L 254,265L 256,263L 256,262L 255.5703,260.8594L 254.752,258.4961Z" style="fill:rgb(32,31,32);"/>
<path d="M 328.666,332.668L 328,330L 326.4131,327.9868L 325.0708,325.884L 324.1948,323.6531L 323.8901,321.3367L 324,319L 324,318L 323,316L 322,314L 321,312L 320,311L 318,310L 316,309L 314.666,308.668L 312,308L 310,308L 307.4219,307.9438L 305.0898,307.4126L 304,307L 303,307L 301,308.5098L 299,309.9551L 298,310.6416L 296,311.998L 294,313.334L 293,314L 292,315L 291,318L 291,342L 292,342L 295,342L 296,342L 297.5078,341.7539L 300.6875,341.3438L 304.2188,341.1094L 308.043,341.0215L 312.0039,341.002L 316,341L 328,341L 329,338L 329,334Z" style="fill:rgb(32,31,32);"/>
<path d="M 295,342L 294,341L 293,341L 293,347L 294,350L 295,350Z" style="fill:rgb(32,31,32);"/>
<path d="M 305,305L 304,306L 304,308L 305,308L 308,307L 309,306L 309,305L 308,304L 307,304Z" style="fill:rgb(32,31,32);"/>
<path d="M 306,345L 305,345L 304,348L 304,350L 305,350L 306,349Z" style="fill:rgb(32,31,32);"/>
<path d="M 328,330L 328,328L 327.5,326.7461L 326.5,324.1582L 325.5,321.4121L 325,320L 324,319L 322,319L 322,320L 322,321L 322,323L 322.4297,324.1406L 323.248,326.5039L 324,329L 325,329.332L 327,330Z" style="fill:rgb(32,31,32);"/>
<path d="M 125,346L 125,335L 124,335L 124,346Z" style="fill:rgb(43,43,43);"/>
<path d="M 134,308L 133,308L 132,310L 132,312L 133,315L 134,317L 135,317L 135.4688,314.4688L 136,312L 136,311L 134.666,309Z" style="fill:rgb(43,43,43);"/>
<path d="M 137,301L 135.8594,303.0078L 134.6367,305.0049L 134,306L 134,310L 136,310L 137.3633,309.752L 138.7432,309.5635L 141.4873,309.3984L 144.0605,309.8369L 146.2236,311.1025L 148,313L 150,313L 152.4688,312.4844L 155,312L 155,310L 153,308.7334L 151,307.3301L 149,305.7334L 147,304L 145,302.5156L 143,301L 141,301L 139,301Z" style="fill:rgb(43,43,43);"/>
<path d="M 142,296L 141,296L 140,297L 139,298L 139,304L 140,304L 140.666,303L 142,301Z" style="fill:rgb(43,43,43);"/>
<path d="M 148,315L 148,313L 144,313L 143,314L 143,315Z" style="fill:rgb(43,43,43);"/>
<path d="M 167.7344,221.5313L 167.2344,218.5313L 167,217L 165,217L 163.7344,218.8711L 162.207,220.5469L 160.2656,221.9023L 158,223L 158,225L 159,227L 168,227L 168,223Z" style="fill:rgb(43,43,43);"/>
<path d="M 163,215L 162,215L 161,218L 161,222L 162,223L 163,223L 164,221L 165,219L 165,218L 163.666,216Z" style="fill:rgb(43,43,43);"/>
<path d="M 258,227L 260,227L 261.3867,224.9824L 263.1914,223.252L 265.6289,222.0449L 268.6836,221.3887L 272.2148,221.1113L 276.043,221.0215L 280.0039,221.002L 284,221L 290,221L 291,220L 292,219L 292,217L 290.4688,214.5156L 289,212L 287.3223,210L 285.752,208L 285,207L 284,206L 283,205L 282,204L 281.2344,203.2656L 279.7344,201.7656L 279,201L 278,200L 277,199L 276,198L 275,197L 273.9961,196.2656L 271.9961,194.7656L 271,194L 268.999,192.668L 268,192L 265.4844,190.5156L 263,189L 261,188L 259,187L 257.5879,186.5L 254.8418,185.5L 252.2539,184.5L 251,184L 249.7344,183.5L 247.2344,182.5L 246,182L 243.332,181.334L 242,181L 240.4688,180.7656L 237.4688,180.2656L 236,180L 222,180L 220.5547,180.2461L 217.6055,180.6582L 214.5508,180.9121L 213,181L 211.7656,181.2656L 209.2656,181.7656L 208,182L 205,183L 202,184L 199,185L 197.8594,185.4297L 195.4961,186.248L 193,187L 191,188L 188.5156,189.5313L 186,191L 185.001,191.668L 183,193L 182,193.7656L 180,195.2656L 179,196L 178,197L 177,198L 176,199L 175,200L 174,201L 173,202L 172,203L 171,204L 170,205L 169,206L 168,207L 167,208L 165.5156,210L 164,212L 163,214L 163,217L 164,218L 165.5313,219.4375L 167,221L 168.6211,221.0029L 172.0781,221.0352L 175.7383,221.1963L 179.0938,221.6797L 181.8047,222.6465L 184,224L 187.3555,224.6445L 190.4961,225.5039L 192,226L 195,226L 197,225L 197.9514,224.084L 198.9208,223.2119L 200.9109,221.5762L 201.9628,220.8921L 204.1206,219.7236L 205.2409,219.3767L 207.4891,218.9709L 209.7031,219.1333L 211.7773,219.8066L 213.6235,220.8896L 214.4321,221.575L 215.2762,222.3525L 216.1682,223.2088L 218.0301,225.0325L 219,226L 221,226L 223.1758,224.2402L 225.5117,222.8398L 228.0391,222.0703L 229.3555,222.002L 230.6045,222.0117L 232.9443,222.1904L 235.0176,222.6797L 236,223L 237,223L 238,222.2739L 240.0098,220.8813L 242.0703,219.6489L 243.1533,219.187L 245.3682,218.55L 246.5,218.5646L 247.6196,218.7567L 249.8193,219.4546L 251.9189,220.6885L 253.8782,222.2822L 255.655,224.093L 257.2461,226.019Z" style="fill:rgb(43,43,43);"/>
<path d="M 196,267L 195,265L 191,265L 191,266L 192,269L 193,269L 196,268Z" style="fill:rgb(43,43,43);"/>
<path d="M 236,218L 234,218L 233,219L 233,223L 236,223Z" style="fill:rgb(43,43,43);"/>
<path d="M 260,289L 259,289L 257,290L 256,292L 256,294L 257,295L 259,296L 261,296L 263,295L 264,294L 264,292L 263,291L 262,290Z" style="fill:rgb(43,43,43);"/>
<path d="M 294,220L 293,218L 292,218L 291,219L 290,220L 290,225L 291,228L 293,228L 293.998,227.332L 296,226L 296,224L 295.332,222.667Z" style="fill:rgb(43,43,43);"/>
<path d="M 299,230L 298,229L 296,229L 294,230L 294,232L 296,233L 297,233L 299,232Z" style="fill:rgb(43,43,43);"/>
<path d="M 319,307L 318,305L 316.666,303L 316,302L 314,301.0313L 312,300L 311,300L 310,301L 309,302L 308,303L 307.2637,304.0391L 305.7031,306.0625L 304,308L 304,309L 304.334,310L 305,312L 307,312L 307.9763,311.4626L 309.9895,310.6125L 312.1448,310.2561L 314.438,310.3599L 316.8064,310.7537L 318,311L 320,311L 320,310Z" style="fill:rgb(43,43,43);"/>
<path d="M 151.094,394.0042L 151.9342,393.088L 153.5811,391.3877L 155.2668,389.9204L 157.092,388.6514L 159.019,387.5327L 160,387L 161,386L 161,383L 160.1611,382L 158.5439,380L 157.0557,378L 155.6729,376L 154.332,374.002L 153,372L 152.2744,371L 151.5811,370L 150.2668,368L 149.6796,367L 148.5574,365L 147.5129,363L 146.5017,361L 146,360L 145,360L 143.7744,362.3438L 142.3975,364.4307L 140.8281,366.1924L 140,367L 139.4189,367.8867L 138.1521,369.5796L 137.3965,370.3149L 136.5788,370.9581L 135.5861,371.4946L 133.4051,372.2425L 132.2846,372.2212L 131.2541,371.9838L 129.3759,371.1286L 127.8618,369.6206L 126.7453,367.6704L 126.1167,365.4683L 125.969,363.1631L 126,362L 126,359L 125.5898,357.582L 124.8613,354.7461L 124.3438,351.8906L 124,349L 123.6143,346.2637L 123.4648,343.4824L 123.6797,340.6641L 124.2383,337.834L 125,335L 125.2344,333.7344L 125.4844,332.4844L 126.0142,330.0044L 126.6455,327.5811L 127.4932,325.2666L 128.6377,323.0889L 130,321L 130.2744,319.5532L 130.8896,316.6958L 131.6675,313.9634L 132.6479,311.4438L 133.8501,309.1563L 135.2544,307.0332L 136,306L 136.7344,304.7344L 138.2344,302.2344L 139,301L 139.666,299.666L 141,297L 141.2539,295.4453L 141.8418,292.3945L 142.5879,289.4492L 143,288L 143.3364,286.6611L 143.6824,285.3198L 144.4148,282.6519L 145.301,280.0884L 146.5063,277.8018L 148.106,275.876L 149,275L 149.002,273.0039L 149.0117,271.0234L 149.0664,267.1289L 149.2383,263.4375L 149.6143,260.0488L 150.2266,256.9453L 151,254L 151.1631,252.3223L 151.5654,249.0918L 152.1631,246.1465L 152.9971,243.4863L 154,241L 154.1719,239.3438L 154.6025,236.2051L 154.9141,234.8281L 155.2747,233.5142L 156.0828,230.9595L 157.0464,228.5176L 158.1445,226.1982L 159.3633,224.04L 160,223L 160.3818,221.9893L 160.7964,220.9546L 161.7075,218.8247L 162.7969,216.5854L 164.0679,214.312L 164.7783,213.2117L 165.5121,212.1387L 166.2655,211.0883L 167.0395,210.0548L 167.8368,209.0334L 168.6601,208.02L 169.5104,207.0118L 170.3871,206.0069L 172.1896,204.003L 174.0784,202.0216L 176.0266,200.1094L 177.0169,199.2266L 179.0316,197.5381L 181.1727,195.9648L 183.5118,194.458L 186,193L 186.999,192.332L 189,191L 190.0352,190.292L 192.1797,188.9771L 194.5078,187.8936L 197,187L 199.5488,186L 200.8877,185.5L 203.6265,184.5117L 206.4097,183.5898L 209.1118,182.8242L 211.7153,182.2461L 214.4453,181.7539L 217.3945,181.3418L 220.4492,181.0879L 222,181L 225.0547,180.5703L 228.2344,180.3359L 231.4434,180.4092L 234.5137,180.7646L 236,181L 237.5273,181.2363L 240.4785,181.7607L 243.1953,182.4023L 244.4346,182.7827L 246.8721,183.5991L 249.3008,184.5176L 251.7656,185.5L 253,186L 255.7332,187.0117L 258.3267,188.0654L 260.7109,189.2266L 262.9077,190.5488L 265,192L 267.0176,193.3438L 269.0479,194.7461L 271.0313,196.2344L 272,197L 274.3118,198.5808L 276.3928,200.2634L 278.1763,202.0698L 279,203L 280,204L 281.7734,205.5811L 283.3867,207.2666L 284.7734,209.0889L 286,211L 287.5313,212.9688L 289,215L 289.8281,216.0352L 291.3975,218.1797L 292.7744,220.5078L 294,223L 294.668,224.333L 295.9258,226.8564L 296.4785,228.0063L 297.5371,230.332L 298.5195,232.8047L 299.4297,235.4727L 299.8398,236.8516L 300.6045,239.5742L 301.2451,242.1934L 301.7656,244.7344L 302.2461,247.4453L 302.6582,250.3945L 302.9121,253.4492L 303,255L 303.2266,256.4688L 303.5469,259.4688L 303.5469,262.5313L 303.2266,265.5313L 303,267L 303,272L 303.9912,272.6357L 305.8115,274.1201L 307.2666,276.0967L 308.3711,278.542L 309.2432,281.2383L 310,284L 310.4102,285.4531L 311.1367,288.4219L 311.6348,291.5352L 311.8906,294.7578L 312,298L 312.667,299L 314.001,301.0039L 315.3271,303.0391L 316.6172,305.1797L 317.8389,307.5078L 319,310L 320,312L 321,314.0039L 321.5,315.0215L 322.5,317.1113L 323.5,319.3652L 324.5,321.8633L 325.5,324.5898L 326.4121,327.1758L 327.1582,329.6836L 327.7461,332.5078L 328,334L 328.2461,335.4453L 328.6582,338.3945L 328.9121,341.4492L 329,343L 329.9004,345.627L 330.5254,348.5273L 330.7598,351.6338L 330.6328,354.6914L 330.2441,357.5889L 330,359L 329.5928,361.7734L 328.9902,364.3867L 328.5454,365.5801L 327.5601,367.8633L 326.9836,368.895L 326.3458,369.8464L 325.6301,370.6894L 324.038,372.1013L 322.1606,372.869L 320.1216,372.8643L 318.0867,372.1104L 316.1906,370.7576L 314.5089,368.9903L 313,367L 312.2344,366.2656L 310.7344,364.7656L 310,364L 309,363L 308,362L 306,362L 305.4824,363L 304.4102,365L 303.2461,367L 302,369L 301.4521,370.2461L 300.2373,372.6582L 299.5112,373.7852L 298.7634,374.8706L 297.2339,376.978L 295.6187,379L 293.8926,381L 293,382L 293,383L 293,384L 293,386L 294,387L 295,387.5176L 297,388.5898L 298,389.1719L 300,390.3838L 302,391.6729L 304,393L 305.9102,394.156L 307.5684,395.6855L 308.1714,396.7393L 308.6343,397.9153L 309.2773,400.4259L 309.3647,403.082L 308.9387,405.6021L 308.0933,407.8818L 307,410L 306.5398,410.9893L 305.52,412.9336L 304.2466,414.7617L 302.6521,416.3848L 300.7214,417.7617L 298.4695,418.9346L 296,420L 294.6797,420.5791L 292.0254,421.6553L 289.3223,422.542L 286.5068,423.2285L 283.5303,423.7627L 282,424L 278.9063,424.4492L 275.5898,424.752L 272.0879,424.8252L 268.6641,424.6445L 265.5059,424.2451L 264,424L 260.6445,423.6777L 257.5039,423.248L 256,423L 254.3906,422.8281L 252.856,422.6123L 249.959,422.0796L 247.4058,421.3481L 245.1362,420.4609L 243.0288,419.4941L 242,419L 239.5371,417.8105L 237.1992,416.4609L 236.1182,415.6514L 234.0186,413.9102L 232,412L 230,411L 228,411L 225,412L 223,413.334L 222,414L 220.9648,414.8281L 218.8203,416.3975L 216.4922,417.7744L 215.2461,418.3872L 212.9648,419.4824L 210.8203,420.4102L 209.6563,420.8281L 207.2324,421.6162L 204.6543,422.3271L 203.3271,422.6636L 201.9956,422.9978L 199.3027,423.6514L 196.5,424.25L 193.5293,424.7646L 192,425L 189.0859,425.4297L 186.1289,425.6641L 183.1973,425.5908L 180.377,425.2354L 179,425L 176.1406,424.6777L 173.3633,424.248L 172,424L 170.4902,423.7549L 169.0117,423.4932L 166.1221,422.9272L 163.3691,422.25L 160.7627,421.3921L 158.3184,420.292L 156.0869,419.0435L 154.1074,417.7744L 153.2256,417.0859L 151.5469,415.5908L 150.7891,414.7148L 149.3789,412.8264L 148.2476,410.6902L 147.4834,408.3828L 147.2417,407.1914L 147.0173,406L 146.8485,404.8154L 146.77,403.6455L 146.8077,402.4965L 147.1456,400.2467L 148.0234,398.095L 149.3945,396.0261ZM 0,0L 0,600L 450,600L 450,0Z" style="fill:rgb(254,254,254);"/>
<path d="M 166,355L 167.958,354.2598L 169,354L 169.4902,351.4688L 170.0449,348.918L 170.6719,346.3164L 171,345L 171.0215,341.043L 171.1094,337.2188L 171.3438,333.6875L 171.7539,330.5078L 172,329L 172.2344,327.4688L 172.7344,324.4688L 173,323L 173,322L 172,321L 171,320L 169.8906,319.4219L 167.6055,318.1758L 165.2148,316.7539L 164,316L 163,316L 163,324L 163.0469,326.4844L 163.0234,327.7422L 162.9941,329.1797L 162.8926,332.2383L 162.6563,335.4375L 162.2461,338.5078L 162,340L 162,342L 162.2656,343.2344L 162.7656,345.7344L 163,347L 163.2656,348.2344L 163.7656,350.7344L 164,352L 165,355Z" style="fill:rgb(254,254,254);"/>
<path d="M 202,359L 201.3418,360.0195L 199.7539,361.8135L 197.5205,363.0166L 194.665,363.5645L 191.542,363.5762L 188.4854,363.2344L 187,363L 185.4688,362.7656L 182.4688,362.2656L 181,362L 175,362L 175,364L 176.2969,365.9106L 177.2964,367.9114L 178,370L 178.7676,370.7432L 180.2617,372.3125L 181.666,374.0752L 183,376L 185.4521,376.7627L 187.7852,377.7627L 190,379L 192.2515,380.2563L 194.5215,381.6582L 196.7788,383.2603L 199,385L 201,386L 204,387L 206.8594,387.3223L 209.6367,387.752L 212.2656,388.2344L 214.7656,388.7344L 216,389L 240,389L 241.2344,388.7344L 243.7344,388.2344L 245,388L 247.8281,387.1895L 250.6211,386.5391L 251.9824,386.3486L 254.5928,386.0898L 257,386L 257.9731,385.0273L 259.9028,383.168L 261.8862,381.5039L 263.9565,380.0293L 266,378.666L 267,378L 268,377L 269.6162,375.4092L 271.4153,374.0298L 273.4905,372.9951L 275.8003,372.2866L 277,372L 277.8477,369.291L 278.9365,366.9863L 280.3555,365.2754L 282,364L 283,363L 283.3262,361.582L 284.126,358.8643L 285.2939,356.5107L 286.9111,354.7236L 288.917,353.4951L 290,353L 290.0161,351.7451L 290.1016,349.1094L 290.3369,346.2871L 290.7515,343.4229L 291,342L 291,340L 290.7764,338.6504L 290.4092,335.8926L 290.2554,333.0342L 290.3823,330.1611L 290.7598,327.3691L 291,326L 291,323L 290.666,321.668L 290,319L 286,319L 283,320L 281.7085,320.6455L 279.2502,321.8643L 277.0417,322.9141L 275,323.7734L 274,324.1123L 271.918,324.7461L 269.5859,325.3545L 267,326L 265.7656,326.5098L 263.2539,327.4648L 261.9551,327.874L 259.3574,328.626L 256.7949,329.25L 254.1816,329.7793L 251.3047,330.2617L 248.1816,330.6777L 245,331L 243.4922,331.2461L 240.3164,331.6582L 236.8242,331.9121L 235,332L 233.6406,332.2266L 230.8906,332.5469L 228.1094,332.5469L 225.3594,332.2266L 224,332L 222,332L 219.5703,332.1406L 218.376,332.1138L 215.8682,331.9731L 213.1406,331.6777L 210.3633,331.248L 209,331L 208,331L 206,331L 205,331L 205,332.5L 204.998,335.9961L 204.9785,339.957L 204.8906,343.7813L 204.6563,347.3125L 204.2461,350.4922L 204,352L 203.8735,354.1304L 203.4351,356.1978L 202.5508,358.0996Z" style="fill:rgb(254,254,254);"/>
<path d="M 222,246L 222,232L 221,229.5313L 220,227L 219,225L 218.2344,224L 216.7344,222L 216,221L 215,220L 213,219L 211,218L 204,218L 202.667,218.668L 200,220L 199,221L 198,222L 197.334,223L 196,225L 195,227L 194.334,229.668L 194,231L 194,246L 195,248.4688L 196,251L 197,253L 199,255L 200,256L 201,257L 203,258L 205,259L 211,259L 213,258L 215,257L 216,256L 217,255L 218,254L 219,253L 220,251L 221,249ZM 214.9894,244.2995L 213.4235,246.1095L 211.5455,247.2012L 210.5248,247.3176L 208.5282,247.1351L 206.7189,246.1942L 205.2521,244.6535L 204.7489,243.6706L 204.0245,241.5762L 203.8724,239.2948L 204.0676,238.1357L 204.3831,237.0144L 204.8176,235.9565L 205.3696,234.9874L 206.035,234.1335L 207.5724,232.7098L 208.5121,232.3296L 211.4522,232.1912L 213.3068,233.0139L 214.829,234.5517L 215.3619,235.6316L 216.1384,238.0097L 216.346,240.6911L 215.6497,243.1869Z" style="fill:rgb(254,254,254);"/>
<path d="M 214,242L 215,241L 215,237L 213,237L 212,238L 211,239L 211,242Z" style="fill:rgb(254,254,254);"/>
<path d="M 260,247L 260,230L 259,227L 258,225L 257.2344,224L 255.7344,222L 255,221L 254,220.334L 252,219L 250,218L 243,218L 241,219L 239,220L 238,221L 237,222L 236,223L 235.334,224L 234,226L 233,228L 232.334,230.668L 232,232L 232,245L 233,248L 234,251L 235.334,253L 236,254L 237,255L 238,256L 239,256.5703L 241,257.752L 243,259L 249,259L 252,258L 253,257L 254,256L 255,255L 256,254L 257.4844,252L 259,250ZM 249.1363,236.9466L 248,235L 247,234L 243,234L 242,235L 240.9187,236.9746L 239.937,237.4753L 239.6859,236.4138L 239.8455,235.3925L 240.2822,234.4694L 240.9141,233.6737L 241.6882,233.027L 242.5669,232.5481L 245.5101,232.0514L 247.5511,232.6399L 249.3934,233.9834L 250.7399,235.9144L 250.6425,237.3504L 249.8406,237.8665Z" style="fill:rgb(254,254,254);"/>
<path d="M 179,379L 177.666,377L 177,376L 176.2266,374.96L 174.7266,372.8066L 174.0264,371.6426L 172.6582,369.2222L 171.3271,366.6499L 170.6636,365.325L 169.5,363L 169,362L 168.1982,361.0383L 166.8994,358.9446L 166.2012,356.4063L 166,355L 165,352L 163.1484,349.8516L 162.3965,348.6035L 161.0723,346.0684L 160,343.5313L 159,341L 142,341L 138.0234,340.9805L 134.2188,340.8203L 130.9531,340.2266L 128.5938,338.9141L 127,337L 126,337L 125,338L 125,344L 125,347L 125,353L 125,355L 125,359L 126,362L 127,365L 128,368L 129,369L 132,369L 134,368L 135,367.2344L 137,365.7344L 138,365L 139.4844,363L 141,361L 142.2893,359.0752L 143.0636,358.3052L 144.8256,357.3433L 146.845,357.7239L 148.639,359.3169L 149.9445,361.5339L 151,364L 153.5957,365.0713L 155.7427,366.4368L 157.1211,368.1631L 157.3069,369.371L 157.2463,371.7894L 157,373L 157,374L 159,376L 160,377L 161,378L 162.0254,378.4976L 164.041,379.6343L 166,381L 169.2383,381.2148L 172.4375,381.6875L 175.5078,382.5078L 177,383L 180,383L 180,382L 179.666,381ZM 150,345.5L 149,346Z" style="fill:rgb(23,24,22);"/>
<path d="M 154,274L 153,274L 152,275L 152,277L 153,278L 154,279L 155,280L 156,280L 156,278L 155.332,276.667Z" style="fill:rgb(23,24,22);"/>
<path d="M 158,368L 158,365L 157,364L 152,364L 152,365L 153,368L 154,369L 155,369Z" style="fill:rgb(23,24,22);"/>
<path d="M 159,368L 155,368L 155,370L 156,372L 157,373L 159,373Z" style="fill:rgb(23,24,22);"/>
<path d="M 157,271L 157,274L 158,276L 160,276L 161,274L 161,272L 160,271Z" style="fill:rgb(23,24,22);"/>
<path d="M 164,352L 164,347L 163.7344,345.7656L 163.2344,343.2656L 163,342L 161,342L 161,345L 161,348L 161,352Z" style="fill:rgb(23,24,22);"/>
<path d="M 168,287L 166,287L 165,288L 165,289L 166,290L 167,291L 168,291.666L 170,293L 172,293L 173,292L 173,291L 171.9976,290.2637L 169.9961,288.7031Z" style="fill:rgb(23,24,22);"/>
<path d="M 183,287L 184,286L 184,285L 183,284L 181,283L 178,282L 175,282L 175,284L 176,286L 178,286.1543L 180,286.4854L 182,287Z" style="fill:rgb(23,24,22);"/>
<path d="M 183,269L 181,268L 178,267L 176,267L 176,268L 177,269L 179,271L 182,271L 183,270Z" style="fill:rgb(23,24,22);"/>
<path d="M 176,290L 176,292L 177,293L 179,293L 181,292L 181,290Z" style="fill:rgb(23,24,22);"/>
<path d="M 177,383L 177,385L 181,385L 181,384L 180,383Z" style="fill:rgb(23,24,22);"/>
<path d="M 185,388L 184,387L 180,387L 180,388L 183,389L 185,389Z" style="fill:rgb(23,24,22);"/>
<path d="M 182,298L 183,299L 185,300L 186,300L 186.999,299.332L 189,298L 189,297L 186,296L 182,296Z" style="fill:rgb(23,24,22);"/>
<path d="M 188.625,266.0469L 191.5625,266.2539L 193.9375,266.707L 195,267L 196,267L 198,266L 198,265L 196,264L 193.332,262.668L 192,262L 187,262L 185,263L 185,265L 187,266Z" style="fill:rgb(23,24,22);"/>
<path d="M 186,256L 186,257L 189,258L 192,258L 193,257L 193,256Z" style="fill:rgb(23,24,22);"/>
<path d="M 197,293L 192,293L 190.5313,293.2656L 187.5313,293.7656L 186,294L 186,296L 193,296L 196,295L 197,294Z" style="fill:rgb(23,24,22);"/>
<path d="M 203,297L 202,296L 200,296L 200,297L 200,299L 200,300L 202.001,301.332L 203,302L 205,302L 206,301L 206,300L 205.2344,299.2656L 203.7344,297.7656Z" style="fill:rgb(23,24,22);"/>
<path d="M 208,300L 208,301L 208,302L 208,303L 210,303L 211.4688,302.7344L 214.4688,302.2344L 216,302L 216,301L 213.332,300.334L 212,300Z" style="fill:rgb(23,24,22);"/>
<path d="M 216,304L 215,303L 213,303L 211.7656,303.2656L 209.2656,303.7656L 208,304L 208,305L 216,305Z" style="fill:rgb(23,24,22);"/>
<path d="M 232,263L 232,261L 218,261L 218,262L 219.8242,262.0879L 223.3164,262.3418L 226.4922,262.7539L 228,263Z" style="fill:rgb(23,24,22);"/>
<path d="M 228,306L 228,304L 227,303L 221,303L 221,306Z" style="fill:rgb(23,24,22);"/>
<path d="M 243,261L 238,261L 237,262L 237,263L 243,263Z" style="fill:rgb(23,24,22);"/>
<path d="M 246,299L 245,299L 243.668,299.334L 241,300L 239,301L 238,302L 237,304L 237,305L 243,305L 245,304L 245.998,303.3315L 248,302L 248,300Z" style="fill:rgb(23,24,22);"/>
<path d="M 249,259L 247.5039,258.6777L 244.6445,257.9258L 242,257L 239,257L 239,259L 240,261L 248,261L 249,260Z" style="fill:rgb(23,24,22);"/>
<path d="M 248.8242,300.4297L 251.4922,301.0957L 254,302L 256,302L 256,300L 254,298L 246,298L 246,300Z" style="fill:rgb(23,24,22);"/>
<path d="M 259,266L 262,265L 264,264L 264,263L 262,262L 256,262L 253,263L 253,264L 254,265L 256,266Z" style="fill:rgb(23,24,22);"/>
<path d="M 258,298L 259.332,297.666L 262,297L 263,296L 263,295L 261.4688,294.7656L 258.4688,294.2656L 257,294L 256,294L 255,296L 255,297L 256,298Z" style="fill:rgb(23,24,22);"/>
<path d="M 258,392L 256,393L 256,394L 261,394L 262,393L 262,392Z" style="fill:rgb(23,24,22);"/>
<path d="M 260,255L 260,258L 267,258L 267,256L 264.332,254.668L 263,254L 262,254Z" style="fill:rgb(23,24,22);"/>
<path d="M 267,395L 267,394L 266,393L 263,393L 261,394L 261,395Z" style="fill:rgb(23,24,22);"/>
<path d="M 265,265L 263,265L 263,268L 266,269L 269,269L 269,268L 268,267L 267,266Z" style="fill:rgb(23,24,22);"/>
<path d="M 264,293L 265,294L 269,294L 269,292L 268,291L 267,290L 264,290L 263,291L 263,292Z" style="fill:rgb(23,24,22);"/>
<path d="M 271,268L 270,267L 269,266L 268,265L 267,264L 266,264L 265,265L 265,266L 267,267.4844L 269,269L 271,269Z" style="fill:rgb(23,24,22);"/>
<path d="M 269,287L 269,288L 269,290L 270,290L 271,290L 277,290L 278.1406,289.5703L 280.5039,288.752L 283,288L 285,287L 285,286L 284,285L 280,285L 277.7109,285.7539L 275.5469,286.0078L 273.6484,285.3789L 272,284L 271,284L 269,285Z" style="fill:rgb(23,24,22);"/>
<path d="M 280,387L 280,384L 279,382L 278,381L 275,381L 274,382L 274,383L 274.2656,384.4688L 274.7656,387.4688L 275,389L 276,389L 278,387.9688Z" style="fill:rgb(23,24,22);"/>
<path d="M 283,293L 284,292L 285,291L 285,290L 283,289L 282,289L 280,290L 279,291L 278,292L 277,293L 276,294L 276,295L 278,295L 280.4688,293.9688Z" style="fill:rgb(23,24,22);"/>
<path d="M 282.0166,383.9795L 282.1816,381.9463L 282.665,379.9668L 283,379L 283,377L 282.332,375.667L 281,373L 280,372L 279,372L 277.5156,374L 276,376L 276,377L 276.334,378.332L 277,381L 277.624,382.1406L 278.8389,384.5039L 280,387L 281,387L 282,385Z" style="fill:rgb(23,24,22);"/>
<path d="M 281,278L 282,279L 283,280L 285,281L 287,281L 287,278L 286,276L 284.666,274L 284,273L 283,272L 282,272L 281.334,273.334L 280,276L 280,277Z" style="fill:rgb(23,24,22);"/>
<path d="M 283,384L 284,383L 285.4531,381.4531L 287,380L 287,379L 285,377L 283,377L 281,379L 281,384Z" style="fill:rgb(23,24,22);"/>
<path d="M 329,358L 329.3223,355.1406L 329.752,352.3633L 330,351L 330,344L 329.7344,342.5313L 329.2344,339.5313L 329,338L 328,338L 325.8047,339.3535L 323.0938,340.3203L 319.7383,340.8037L 315.9531,340.9648L 313.9746,340.981L 311.9883,340.9888L 308.0303,340.9797L 306.1196,340.9181L 302.5127,340.6362L 299.4932,339.9233L 297.251,338.6558L 295.666,336.9404L 295,336L 294,336L 293.335,337.002L 292,339L 290.668,341.001L 290,342L 289.7656,343.5313L 289.5156,345.0313L 289.2539,346.5352L 288.9639,348.0254L 288.3027,350.9219L 287.4707,353.5664L 286.5049,355.9023L 286,357L 285.5098,358.2754L 284.4648,360.8242L 283.2832,363.3926L 282,366L 282,369L 283.8672,371.1328L 285.5371,373.4629L 287,376L 288.0078,376.2188L 290.0078,376.7188L 291,377L 292,377L 294,375.666L 295,375L 295.6602,373.7607L 296.9854,371.3574L 298.3193,369.1191L 299.6587,367.0249L 301,365L 302,363L 302.5,362L 303.0156,360.9692L 303.5781,359.928L 304.2178,358.9618L 305.0669,358.18L 307.0161,357.2139L 309.0708,357.5818L 310.7109,359.0695L 312,361L 313,362L 314,363L 315,364L 316,365L 317,366L 318,367L 319,368L 321,369L 323,369L 325,368L 326,366L 327.066,362.9176L 327.5596,361.5344L 328.5266,359.0757ZM 305.5,348L 305,346.5ZM 294.2188,345.375L 294.875,346.25Z" style="fill:rgb(23,24,22);"/>
<path d="M 287,373L 286,372L 284,372L 284,376L 285,379L 287,379Z" style="fill:rgb(23,24,22);"/>
<path d="M 291,272L 291,278L 294,278L 295,275L 295,272Z" style="fill:rgb(23,24,22);"/>
<path d="M 298,270L 297.7344,268.5313L 297.2344,265.5313L 297,264L 296,264L 296,272L 298,272Z" style="fill:rgb(23,24,22);"/>
<path d="M 300,279L 300,276L 299,275L 298,275L 297,278L 297,280L 299,280Z" style="fill:rgb(23,24,22);"/>
<path d="M 303,270L 302.7539,268.5547L 302.3418,265.6055L 302.0879,262.5508L 302,261L 301,261L 301,272L 303,272Z" style="fill:rgb(23,24,22);"/>
<path d="M 234,263L 232.4688,262.7656L 229.4688,262.2656L 228,262L 224,262L 221,263L 221,264L 234,264Z" style="fill:rgb(115,55,17);"/>
<path d="M 232,307L 222,307L 222,308L 232,308Z" style="fill:rgb(115,55,17);"/>
<path d="M 194,242L 194,234L 193,234L 193,242Z" style="fill:rgb(127,126,125);"/>
<path d="M 232,330L 224,330L 224,331L 232,331Z" style="fill:rgb(127,126,125);"/>
<path d="M 261,243L 261,235L 260,235L 260,243Z" style="fill:rgb(127,126,125);"/>
<path d="M 165.0215,381L 163.1094,379L 161.3438,377L 159.7539,375L 159,374L 157.4727,371.9727L 156.7129,370.9004L 155.2051,368.6553L 153.7402,366.2188L 152.3438,363.6416L 151.6719,362.3208L 150.5,360L 150,359L 149,357L 148,356L 146,356L 144.0078,356.5273L 142,357L 141.708,358.2256L 141.3655,359.4192L 140.5537,361.7329L 139.4492,363.8848L 138.7161,364.8511L 137.8835,365.7233L 136.0378,367.2068L 133.9142,368.0124L 131.7468,367.865L 129.8176,366.6592L 128.2695,364.5714L 127,362L 125,362L 125,368L 126.1182,370L 127.0435,372L 127.7192,374L 128,375L 132,375L 134,374L 136,373L 138,372L 139,371L 140,370L 141,369L 141.7944,368.1113L 142.6797,367.3574L 143.6375,366.8174L 144.8511,366.6099L 147.1462,366.8511L 148.8442,368.168L 149.4221,369.084L 150.6777,371.1406L 151.9258,373.5039L 153,376L 153.8389,376.7686L 154.6641,377.5745L 156.3057,379.2969L 157.9336,381.2834L 159.5093,383.5527L 161,386L 163,386L 164.333,385.332L 167,384L 167,383Z" style="fill:rgb(238,236,234);"/>
<path d="M 148,278L 148,273L 147,273L 146,275L 145,277L 144,280L 143.3208,282.6563L 142.5791,285.248L 141.6841,287.6846L 140.5928,289.9258L 140,291L 140,293L 141,296L 142,296L 143,294L 144,291L 145,288L 146,285L 146.376,283.6113L 147.1611,280.8184Z" style="fill:rgb(238,236,234);"/>
<path d="M 306.0474,406.8228L 305.4511,407.9031L 304.799,408.9532L 303.3808,410.9758L 302.5616,411.8937L 300.8316,413.6116L 298.9526,415.0906L 297.972,415.7216L 295.9817,416.9136L 293.902,417.9888L 291.6641,418.9292L 289.2305,419.6758L 286.6191,420.2461L 283.8594,420.6777L 281,421L 279.5547,421.2461L 276.6055,421.6582L 275.0781,421.7852L 272.1582,421.9795L 270.8369,422.0132L 268.1426,421.999L 265.1934,421.8037L 262.0254,421.3975L 258.9434,420.7744L 256,420L 254.5488,419.7256L 251.7754,419.1123L 249.291,418.3545L 247.0645,417.4678L 246,417L 244.6123,416.3955L 241.9316,415.1387L 239.5186,413.7783L 237.479,412.3179L 235.7798,410.7827L 235,410L 232.4688,409.0313L 230,408L 226,408L 223,409L 221.0508,410.7051L 218.9375,412.2617L 216.5664,413.666L 214,415L 211.666,416.3047L 209.1758,417.459L 206.5371,418.418L 203.8828,419.1787L 202.584,419.4663L 201.25,419.74L 198.4541,420.2549L 195.3555,420.6777L 192,421L 190.5449,421.2373L 189.0879,421.4385L 186.167,421.7456L 183.2324,421.8291L 180.3057,421.6509L 177.4248,421.2476L 176,421L 174.1074,420.8926L 170.4629,420.5527L 167.2012,419.9238L 164.4258,419.0273L 162,418L 159.1694,416.8228L 156.457,415.5166L 155.2236,414.7397L 154.0791,413.8892L 151.9728,412.0668L 150.2117,410.0706L 148.7062,408.0231L 148,407L 146,407L 146,410L 147,412L 147.7656,413L 149.2656,415L 150,416L 151,417L 152,418L 154,419.2148L 156,420.5479L 158,422L 160.668,422.666L 162,423L 164.668,423.666L 166,424L 167.5313,424.2344L 170.5313,424.7344L 172,425L 174.8594,425.3223L 177.6367,425.752L 179,426L 192,426L 193.4688,425.7344L 196.4688,425.2344L 198,425L 199.332,424.666L 202,424L 203.332,423.666L 206,423L 207.332,422.666L 210,422L 212.1758,421L 214.5078,420L 217,419L 219,418L 221.0459,416.3184L 222.1221,415.5654L 224.3555,414.249L 226.6836,413.4561L 228.8691,413.4697L 230.6343,414.4111L 232,416L 233.2539,416.4805L 235.6758,417.4648L 237.9219,418.4844L 239,419L 240.2256,419.5L 242.6123,420.5L 244.8545,421.5L 246.9678,422.5L 248,423L 251,424L 253.4434,424.0146L 256.4121,424.1006L 259.4824,424.3389L 262.5137,424.7529L 264,425L 282,425L 283.4688,424.7344L 286.4688,424.2344L 288,424L 289.332,423.666L 292,423L 293.332,422.666L 296,422L 296.9966,421.377L 298.9932,420.1719L 300.9954,419.0537L 303,418L 304,417L 305,416L 306,415L 306.666,414L 308,412L 308.377,411L 309.1719,409L 310.0537,407L 311,405L 311,404L 310.752,402.4961L 310.3223,399.3555L 310,396L 309.332,394.667L 308,392L 307,392L 306,392L 305,392L 305,394L 305.9861,396.142L 306.8262,398.4442L 307.2839,400.8953L 307.26,402.1344L 306.9137,404.5471L 306.5914,405.7206Z" style="fill:rgb(238,236,234);"/>
<path d="M 150,273L 150,257L 149,257L 149,273Z" style="fill:rgb(238,236,234);"/>
<path d="M 163,340L 163.666,337.332L 164,336L 164,334L 163.9531,331.5156L 164,329L 164,324L 162,324L 162,340Z" style="fill:rgb(238,236,234);"/>
<path d="M 174,327L 174,319L 172,318L 170,317L 168,316L 166,315L 163,315L 163,316L 164,318L 166,319L 168.3203,320.248L 170.2988,321.7236L 171.7275,323.5811L 172.6455,325.8086L 173,327Z" style="fill:rgb(238,236,234);"/>
<path d="M 167,358L 169,357L 170,356L 170,355L 169.0977,352.3828L 168.4512,349.5664L 168.1074,346.5469L 168,345L 167,345L 166.7656,346.5313L 166.2656,349.5313L 166,351L 166,358Z" style="fill:rgb(238,236,234);"/>
<path d="M 277.3223,379.5039L 278.0742,376.6445L 279,374L 279,372L 278,371L 276,370L 275,370L 274,370.334L 272,371L 270,373L 269,374L 267.2061,375.7734L 265.4629,377.2734L 263.3711,378.6738L 261,380L 259.0806,381.6084L 257.1147,382.8682L 255.0562,383.6885L 254,384L 252.8594,384.4297L 250.4961,385.248L 248,386L 246.6094,386.4219L 243.8945,387.1758L 242.5898,387.4648L 241.2529,387.7393L 238.4502,388.2529L 235.3125,388.6563L 231.7852,388.8887L 228,388.957L 224.2148,388.8887L 220.6875,388.6563L 219.0977,388.4512L 217.6055,388.2324L 214.791,387.7725L 212.2344,387.2656L 211,387L 209.5693,386.8052L 208.1594,386.5697L 206.7794,386.2803L 204.0944,385.5739L 201.5797,384.5858L 199.2528,383.2906L 197.0828,381.7258L 195,380L 192.5479,378.7852L 190.2148,377.4521L 188,376L 186.1816,374.6367L 184.665,372.9463L 184,372L 182.291,370.7988L 180.8398,369.2871L 179.7754,367.3145L 179,365L 178,364L 176.4531,362.5469L 175,361L 173.7739,360.2261L 171.3813,358.6187L 169.1074,356.8926L 168,356L 167,356L 167,360L 168,362.1758L 169,364.5078L 170,367L 170.668,368.333L 172,371L 173.334,373L 174,374L 174.708,375L 176.0229,377L 177.1064,379L 178,381L 179,382L 180,383L 181.2314,383.7686L 183.6509,385.3491L 185.9194,386.9478L 188,388.4844L 190,390L 191,390.5703L 193,391.752L 195,393L 197,394L 199.4521,395L 201.7852,396L 204,397L 206.668,397.666L 208,398L 210.668,398.666L 212,399L 213.5508,399.0879L 216.6055,399.3418L 219.5547,399.7539L 221,400L 236,400L 237.4688,399.7344L 240.4688,399.2344L 242,399L 243.332,398.666L 246,398L 249,397L 251.4688,395.9688L 254,395L 256,394L 258,393L 260,392L 262.0366,390.7148L 264.1777,389.5693L 266.5073,388.6758L 269,388L 270,387L 270.5684,385.8633L 271.8848,383.8164L 273.6348,382.3164L 275.8184,381.3633L 277,381Z" style="fill:rgb(238,236,234);"/>
<path d="M 181,359L 178.6465,357.9346L 177.5758,357.3481L 175.6083,356.0693L 174.0056,354.5342L 172.7766,352.6641L 171.9042,350.4141L 171.3502,347.814L 171,345L 170,345L 169.334,347.668L 169,349L 169,355L 169,356L 169,359L 170,359.666L 172,361L 176,361L 177.2344,360.7344L 179.7344,360.2344L 181,360Z" style="fill:rgb(238,236,234);"/>
<path d="M 173,336L 173,323L 172,323L 171.7656,324.5313L 171.2656,327.5313L 171,329L 171,342L 172,342L 172.2344,340.4688L 172.7344,337.4688Z" style="fill:rgb(238,236,234);"/>
<path d="M 202,360L 201,360L 199.7656,360.6348L 197.2676,361.6621L 194.7539,362.0723L 192.3223,361.7715L 190,361L 188.4688,360.7656L 185.4688,360.2656L 184,360L 176,360L 175,361L 175,362L 176.5313,362.2344L 179.5313,362.7344L 181,363L 182.5313,363.2344L 185.5313,363.7344L 187,364L 201,364L 202,363Z" style="fill:rgb(238,236,234);"/>
<path d="M 243,329L 241.5078,329.2461L 238.4375,329.6563L 235.2383,329.8926L 232,330L 230.668,330.1582L 228,330.3164L 225.332,330.1582L 224,330L 220.2148,329.8926L 216.6875,329.6563L 213.5078,329.2461L 212,329L 209.1406,328.6777L 206.3633,328.248L 205,328L 203,328L 203,359L 204,359L 205,358L 205,353L 205,352L 205,350.5L 205.001,348.752L 205.0103,346.8896L 205.0452,344.9956L 205.2207,341.2695L 205.4797,339.5767L 206.2937,336.5474L 207.7537,334.3413L 209.8264,333.0737L 212.2529,332.6528L 214.7559,332.8149L 216,333L 222,333L 224,333L 235,333L 236.5078,332.7539L 239.6836,332.3418L 243.1758,332.0879L 245,332L 247.4688,330.9688L 250,330L 250,329Z" style="fill:rgb(238,236,234);"/>
<path d="M 238,237L 238,233L 235,233L 235,238L 236,238Z" style="fill:rgb(238,236,234);"/>
<path d="M 267,324L 266,324L 264.9121,324.4121L 262.6582,325.1582L 260.2461,325.7461L 259,326L 256.3027,326.6514L 253.5,327.25L 250.5293,327.7646L 249,328L 248.002,328.668L 246,330L 246,331L 248,332L 250,332L 251.3906,331.5781L 254.1055,330.8242L 256.7148,330.2461L 258,330L 259.332,329.666L 262,329L 263.332,328.666L 266,328L 267,327Z" style="fill:rgb(238,236,234);"/>
<path d="M 289,315L 288,315L 286,316L 283.9961,317L 282.9785,317.5L 280.8887,318.5L 279.7617,319L 277.3848,320L 274.7617,321L 271.9346,322L 269,323L 267,324L 267,326L 271,326L 272,326L 273,326L 275.0391,325L 277.1797,324L 279.5078,323L 282,322L 284.6475,320.8418L 287.313,319.8418L 290,319L 290,316Z" style="fill:rgb(238,236,234);"/>
<path d="M 280,372L 281,371L 282,368L 282,366L 282,365L 282,364L 281,363L 280,363L 279,364L 278,365L 277,366L 277,371L 278,372Z" style="fill:rgb(238,236,234);"/>
<path d="M 286,361L 286,358L 285,356L 283,356L 282.8281,357.4102L 282.3975,360.1387L 281.7744,362.6563L 281,365L 281,366L 283,366L 284,365L 284.666,363.666Z" style="fill:rgb(238,236,234);"/>
<path d="M 290,353L 287,352L 286,352L 285,353L 285,358L 286,358L 287,357L 287.7344,356.2344L 289.2344,354.7344L 290,354Z" style="fill:rgb(238,236,234);"/>
<path d="M 291,340L 291,326L 290,326L 289.9121,327.5508L 289.6582,330.6055L 289.2461,333.5547L 289,335L 289,336L 289.334,337.332L 290,340Z" style="fill:rgb(238,236,234);"/>
<path d="M 293,386L 294,384L 295,382L 295,380L 293,380L 292,381L 291,382L 290,383L 290,385L 292,386Z" style="fill:rgb(238,236,234);"/>
<path d="M 314,367L 315,364L 315,363L 314,362L 313,361L 312,360L 310,358.5156L 308,357L 306,356L 304,356L 303.498,357.2256L 302.4805,359.6123L 301.9453,360.7332L 300.8281,362.9077L 299.6162,364.9775L 298.3271,366.9966L 297.6636,367.9983L 296.334,370L 295,372L 294,375L 293.668,376L 293,378L 293,379L 294,380L 296,380L 297,379L 298,378L 298.7344,377.2344L 300.2344,375.7344L 301,375L 302,373L 302.4922,371.7695L 303.0105,370.5859L 304.1396,368.3779L 305.5753,366.708L 307.4869,366.0376L 309.7869,366.5063L 311,367Z" style="fill:rgb(238,236,234);"/>
<path d="M 312,296L 312,287L 311.5703,285.5859L 310.752,282.7773L 310,280L 309.5703,278.5859L 308.752,275.7773L 308,273L 307,272L 306,271L 304,271L 304,273L 305.1582,275.6475L 306.1582,278.313L 306.5791,279.6565L 307.4297,282.4141L 307.8389,283.8184L 308.6172,286.5977L 309.3271,289.3184L 309.6636,290.6592L 310.334,293.332L 311,296Z" style="fill:rgb(238,236,234);"/>
<path d="M 329.0785,349.7735L 328.6319,352.4968L 327.8164,355.1582L 326.6582,357.7461L 326,359L 325.8281,360.3086L 325.6094,361.606L 325.3279,362.8711L 324.9691,364.0739L 324.5041,365.1703L 323.314,367.0518L 321.5879,368.1391L 319.4485,368.215L 317.1943,367.3719L 315,366L 314,366L 313,367L 313,370L 314,371L 315,371.7686L 317,373.3491L 319,375L 320,375L 321,375L 324,375L 326,373.666L 327,373L 328,372L 328.752,369.5039L 329.5703,367.1406L 330,366L 330.3223,363.1406L 330.752,360.3633L 331,359L 331.2344,357.4688L 331.7344,354.4688L 332,353L 332,352L 331.8418,350.668L 331.6836,348L 331.8418,345.332L 332,344L 332,342L 331,342L 329,343L 329,344L 329.11,347.1381Z" style="fill:rgb(238,236,234);"/>
<path d="M 224,406L 223,405L 221.4492,404.9121L 218.3945,404.6582L 215.4453,404.2461L 214,404L 212.4688,403.7656L 210.9688,403.5156L 208.0918,403.0098L 205.4102,402.4648L 202.748,401.7988L 200,401L 197.3125,400.2256L 194.708,399.3872L 193.4629,398.9302L 192.2244,398.4584L 189.7673,397.4933L 187.3877,396.498L 185.146,395.4805L 183.0386,394.4102L 182.0225,393.8281L 180.0034,392.6162L 178.0002,391.3271L 177.0001,390.6636L 175,389.334L 173,388L 172,387.334L 170,386L 169,386L 168,387L 168,388L 169,389L 170,389.6128L 172,390.9141L 174,392.3872L 176,394L 177.2441,394.7344L 179.6582,396.1934L 181.9004,397.6172L 184,399L 185,399.2744L 186,399.5811L 188,400.2668L 190,401.0923L 192,402.0222L 194,403L 197,404L 198.3887,404.376L 201.1816,405.1611L 204,406L 207.082,406.2188L 210.0898,406.6035L 212.9453,407.3164L 215.5723,408.4775L 218,410L 220,410L 222,409L 223,408L 224,407Z" style="fill:rgb(198,139,35);"/>
<path d="M 192,279L 191,278L 190,277L 188,276L 187,276L 187,278L 188,279L 189,280L 192,280Z" style="fill:rgb(198,139,35);"/>
<path d="M 232,301L 221,301L 221,302L 232,302Z" style="fill:rgb(198,139,35);"/>
<path d="M 230,297L 224,297L 224,298L 230,298Z" style="fill:rgb(198,139,35);"/>
<path d="M 231,408L 234,409L 235,409L 236.2383,408.4727L 238.7891,407.5215L 241.5586,406.8047L 244.6484,406.3262L 248,406L 249.5117,405.5195L 252.5391,404.6094L 255.5547,403.8438L 258.5273,403.2539L 260,403L 262,402L 264,401L 265.0352,400.377L 267.1797,399.1719L 269.5078,398.0537L 272,397L 274,396L 276,395L 277,394.2344L 279,392.7344L 280,392L 280,391L 279,390L 278,390L 276,391L 275,391.6128L 273,392.8062L 272,393.3666L 271,393.9102L 268.9961,394.9713L 267.9785,395.4824L 265.8887,396.4963L 264.7617,396.9979L 263.5732,397.4988L 261.0771,398.4979L 258.3789,399.4805L 255.5781,400.4102L 254.1765,400.8281L 252.7887,401.2222L 250.0392,401.9707L 247.3094,402.6479L 244.5,403.25L 241.5293,403.7646L 240,404L 238.5547,404.2461L 235.6055,404.6582L 232.5508,404.9121L 231,405L 230,406L 230,407Z" style="fill:rgb(198,139,35);"/>
<path d="M 266,279L 267,278L 267,276L 266,276L 264,277L 263,278L 263,279Z" style="fill:rgb(198,139,35);"/>
<path d="M 279,391L 281,391L 283,389.4902L 285,388.0449L 287,386.6719L 288,386L 288,384L 286,384L 284,385L 282,386.6777L 280,388.248L 279,389Z" style="fill:rgb(198,139,35);"/>
<path d="M 124,349L 124,338L 123,338L 123,349Z" style="fill:rgb(216,203,191);"/>
<path d="M 142,359L 141,359L 140.2095,359.998L 139.3928,360.9883L 137.6982,362.9336L 135.8815,364.7617L 133.9648,366.3857L 131.9927,367.7734L 130,369L 130,370L 131,371L 135,371L 136.0039,370.2188L 138.0039,368.7188L 139,368L 139.666,366.666L 141,364L 142,362Z" style="fill:rgb(216,203,191);"/>
<path d="M 148,355L 147,352L 145,352L 144,354L 143,356L 143,358L 145,359L 146,359L 147.332,356.999L 148,356Z" style="fill:rgb(216,203,191);"/>
<path d="M 231,405L 223,405L 221.4204,407.0371L 219.7344,408.8789L 217.8757,410.4507L 215.8027,411.7813L 214.6466,412.3591L 212.2863,413.45L 209.9004,414.4111L 208.6982,414.8296L 206.2344,415.6172L 204.9443,415.9722L 202.3564,416.6509L 199.7949,417.2529L 197.2656,417.7656L 194.4922,418.2461L 192.9023,418.4512L 191.2246,418.6123L 189.4819,418.7332L 185.9287,418.9058L 182.3418,418.9561L 178.8682,418.8872L 175.5776,418.656L 172.4922,418.2461L 171,418L 167.9199,417.4521L 164.9375,416.7852L 163.5264,416.3784L 160.8115,415.5054L 158.332,414.5352L 156.0059,413.4785L 153.5938,412.2969L 151,411L 150,411L 150,413L 151,414L 152,415L 153.334,415.666L 156,417L 157.4121,417.5879L 160.1582,418.8418L 162.7461,420.2539L 164,421L 167.7852,421.1074L 171.3125,421.3438L 174.4922,421.7539L 176,422L 177.5313,422.2344L 180.5313,422.7344L 182,423L 186,423L 187.4688,422.7344L 190.4688,422.2344L 192,422L 193.5039,421.752L 196.6445,421.3223L 200,421L 201.2344,420.7344L 203.7344,420.2344L 205,420L 206.4141,419.5703L 209.2227,418.752L 212,418L 213.1406,417.3223L 215.5039,416.0742L 218,415L 219.332,414.332L 222,413L 224.0996,411.2861L 226.3203,410.1094L 228.6465,409.7471L 231,410L 233,410L 233,409L 231.9688,407Z" style="fill:rgb(216,203,191);"/>
<path d="M 160,224L 161,224L 162,223L 162,222L 161,220L 159,220L 159,222Z" style="fill:rgb(216,203,191);"/>
<path d="M 172,352L 172,342L 171,342L 171,352Z" style="fill:rgb(216,203,191);"/>
<path d="M 200,362L 191,362L 191,363L 200,363Z" style="fill:rgb(216,203,191);"/>
<path d="M 211,240L 212,239L 213,238L 214,237L 214,235L 211,235L 210,236L 210,240Z" style="fill:rgb(216,203,191);"/>
<path d="M 243.7487,414.1567L 242.562,413.6455L 240.2468,412.594L 238.0592,411.5269L 237,411L 235,411L 235,412L 236,413L 238,414.4844L 240,416L 242.7734,417L 245.3867,418L 247.7734,419L 250,420L 253.0801,420.5479L 256.0781,421.2148L 259,422L 262.3555,422.3223L 265.4961,422.752L 267,423L 272,423L 273.4453,422.7539L 276.3945,422.3418L 279.4492,422.0879L 281,422L 282.3633,421.752L 285.1406,421.3223L 288,421L 289.2344,420.7344L 291.7344,420.2344L 293,420L 294,419.3872L 296,418.1938L 298,417.073L 300,416.019L 302,415L 304,413L 305,412L 305,410L 304,410L 301.8184,411.3555L 300.6689,412.0078L 298.3071,413.2617L 295.8413,414.3975L 293.2974,415.3916L 291.9873,415.8179L 290.6654,416.2166L 288.0062,416.9702L 285.3013,417.646L 282.457,418.2285L 279.3105,418.6553L 275.7813,418.8906L 273.9316,418.9346L 270.293,418.9863L 268.5107,418.9819L 264.9443,418.9331L 261.4453,418.7617L 258.2285,418.3857L 255.4531,417.7734L 253,417L 251.6753,416.6624L 249.0368,415.9578L 246.3533,415.1217Z" style="fill:rgb(216,203,191);"/>
<path d="M 287,383L 287,384L 290,384L 291,383L 291,382L 290,380L 289,380L 288,381Z" style="fill:rgb(216,203,191);"/>
<path d="M 295,376L 294,375L 293,375L 292,376L 291,377L 290,379L 290,382L 292,382L 293,381L 294,380L 295,378Z" style="fill:rgb(216,203,191);"/>
<path d="M 312,359L 311,357L 310.376,356L 309.1611,354L 308,352L 307,351L 306,351L 305,354L 305,356L 306,357L 308,358.4844L 310,360L 312,360Z" style="fill:rgb(216,203,191);"/>
<path d="M 324,368L 322.7949,367.6128L 320.4307,366.6987L 318.1719,365.4731L 316,364L 314,364L 314,366L 315,367L 316,368L 317,369L 318,370L 319,371L 322,372L 323,372L 324,370Z" style="fill:rgb(216,203,191);"/>
<path d="M 211,415L 213,413.4902L 215,412.0449L 217,410.6719L 218,410L 219,408L 219,407L 217.4688,406.7656L 214.4688,406.2656L 213,406L 209.9063,405.7734L 206.8672,405.3867L 203.9063,404.7734L 202.4531,404.3867L 199.6572,403.6128L 198.3394,403.2095L 195.7727,402.3666L 194.5699,401.9102L 192.2515,400.9713L 190.0859,399.9935L 188.0209,398.9991L 186,398L 185,397.5693L 183,396.6025L 181,395.3975L 179,394L 177.7686,393.2314L 175.3491,391.6509L 173,390L 171,388.7852L 169,387.4521L 167,386L 160,386L 158,387L 156.4648,388.5098L 154.793,389.9551L 152.9551,391.3281L 152,392L 151,393L 150,394L 149,395L 148,396L 147.334,398.668L 147,400L 147,404L 148,407L 149,408L 150,409L 151,410L 152,411L 153.1206,411.606L 155.3887,412.9004L 157.6924,414.3779L 160,416L 161.6563,416.1719L 164.7949,416.6025L 167.5488,417.2256L 170,418L 201,418L 202.332,417.666L 205,417L 206.332,416.666L 209,416Z" style="fill:rgb(251,174,16);"/>
<path d="M 265.125,277.5L 266,278ZM 199.8535,283.6953L 202.3887,284.376L 205.1816,285.1611L 208,286L 210.8594,286.3223L 213.6367,286.752L 215,287L 240,287L 241.2344,286.7344L 243.7344,286.2344L 245,286L 246.332,285.666L 249,285L 250.332,284.666L 251.582,284.4141L 251.9609,285.7124L 249.8203,286.9814L 247.4922,287.9995L 245,289L 244,289.667L 241.9961,291.001L 240.9785,291.6641L 238.8887,292.9717L 237.7637,293.5959L 235.4043,294.7908L 234.1299,295.3149L 231.5371,296.2351L 230.2236,296.5294L 227.6062,296.89L 226.2999,296.8354L 223.6823,296.5056L 221.0792,295.7796L 218.5676,294.7377L 216.218,293.4459L 214,292L 213,291.4297L 211,290.248L 209,289L 207,288L 205.7744,287.5L 204.5811,287L 202.2668,286L 200.0923,285L 199.3997,284.1953L 200.5479,283.8833ZM 275,280L 275,275L 274,273L 273,272L 271,271L 268,270L 266.6113,269.624L 263.8184,268.8389L 261,268L 257.7637,267.8896L 254.5938,267.6211L 251.6875,267.0586L 249.1914,266.1504L 247,265L 214,265L 212.4922,265.2461L 209.3125,265.6563L 205.7813,265.8906L 201.9609,265.9805L 200,266L 198.668,266.334L 196,267L 194.5859,267.4297L 191.7773,268.248L 189,269L 186,270L 183,271L 180,272L 178,273L 177,274L 176,276L 176,277L 177,279L 178,279.7686L 180,281.3491L 182,283L 183,283.5703L 185,284.752L 187,286L 189,287L 190,287.5L 192,288.502L 194,289.5195L 196,290.5898L 198,291.7539L 200,293L 201,293.502L 203,294.5195L 205,295.5898L 207,296.7539L 209,298L 211,299L 212.2656,299.5L 214.7656,300.5L 216,301L 237,301L 240,300L 242,299L 244,298L 246,297L 248,296L 250,295L 251,294.3872L 253,293.1938L 255,292.073L 257,291.019L 259,290L 260.1406,289.376L 262.5039,288.1611L 265,287L 267,285.666L 268,285L 270,283.666L 271,283L 273,281.666L 274,281ZM 190,278.25L 191,279Z" style="fill:rgb(251,174,16);"/>
<path d="M 297,415L 297.7744,414.2744L 299.3877,412.8877L 301.1455,411.6455L 303.0322,410.5322L 304,410L 305.4844,407.4844L 307,405L 307,398L 306,396L 304,394L 303,393L 302,392L 300,390.5156L 298,389L 296.709,388.4824L 294.1367,387.4102L 291.5723,386.2461L 289,385L 288,385L 286,386L 284,387.334L 283,388L 281,389.6777L 280,390.4629L 277.9961,391.9971L 275.9609,393.4512L 273.8203,394.7734L 271.4922,395.9355L 269,397L 267,398L 265,399L 263.9648,399.5591L 261.8203,400.5808L 259.4922,401.3813L 257,402L 255.5039,402.498L 252.5273,403.4785L 249.5742,404.3887L 246.5703,405.1367L 243.3828,405.6563L 240,406L 238.7656,406.2656L 236.2656,406.7656L 235,407L 235,409L 236,410L 237,410.5703L 239,411.752L 241,413L 244,414L 247,415L 250,416L 252.5898,416.5352L 255.252,417.2012L 258,418L 280,418L 281.3574,417.7744L 284.1289,417.3877L 287.0898,417.1455L 290.3184,417.0322L 292,417L 295,416Z" style="fill:rgb(251,174,16);"/>
<path d="M 165,377L 163,376L 162,376L 162,379L 163,380L 164,381L 165,382L 166,383L 167,383L 167,381L 166.332,379.667Z" style="fill:rgb(10,8,7);"/>
<path d="M 168,362L 168,360L 167,358L 166,357L 165,357L 165,363L 167,363Z" style="fill:rgb(10,8,7);"/>
<path d="M 267,397L 267,395L 265.4688,394.7656L 262.4688,394.2656L 261,394L 254,394L 252.668,394.334L 250,395L 248.6763,395.5791L 246.0186,396.6553L 243.3174,397.542L 240.5051,398.2285L 237.53,398.7627L 236,399L 234.5508,399.2441L 231.582,399.6348L 228.5,399.7813L 225.418,399.6348L 222.4492,399.2441L 221,399L 219.4492,398.9121L 217.9219,398.7852L 214.9297,398.4453L 213.502,398.1943L 212.106,397.9143L 210.74,397.6107L 208.074,396.9598L 205.5593,396.2201L 203.2261,395.387L 201.0537,394.4731L 198.752,393.4297L 197.5371,392.8389L 196.3667,392.2407L 194.1157,391.0366L 192.0176,389.7944L 191.0088,389.1233L 189,387.7246L 187,386.23L 185,384.6509L 183,383L 181.6953,382.75L 179.2305,382.043L 177,381L 167,381L 167,384L 168,385L 169,386L 170,387L 171,388L 172,388.666L 174,390L 175,390.666L 177,392L 178,392.666L 180,394L 182,395L 184,396L 186,397L 188,398L 189.2656,398.5L 191.7656,399.5L 193,400L 196,401L 197.3887,401.376L 200.1816,402.1611L 203,403L 204.2656,403.2344L 206.7656,403.7344L 208,404L 209.5313,404.2344L 212.5313,404.7344L 214,405L 233,405L 234.5078,404.7539L 237.6563,404.3438L 241,404.1094L 244.3516,404.0195L 246,404L 247.332,403.666L 250,403L 251.332,402.666L 254,402L 257,401L 260,400L 261.0879,399.3418L 263.3418,398.1836L 265.7539,397.3418ZM 183,387.5L 182,387Z" style="fill:rgb(10,8,7);"/>
<path d="M 217,245L 217,235L 216,233L 215,232L 214,231L 213,230L 208,230L 206,231.334L 205,232L 204,233L 203.334,235.668L 203,237L 203,244L 204.334,246L 205,247L 206,248L 208,249L 213,249L 214,248L 215,247L 216,246ZM 212.1289,237.2578L 212.5,236.25Z" style="fill:rgb(10,8,7);"/>
<path d="M 249,243L 250,244L 253,244L 253,237L 252,234L 251,233L 250,232L 249,231L 248,230L 243,230L 240,231L 239,233L 238,235L 237,237L 237,244L 240,244L 241,243L 241.6797,240.2549L 242.6945,238.0051L 243.9599,237.3051L 246.1658,237.1729L 247.7124,238.9077L 248.6593,241.5374Z" style="fill:rgb(10,8,7);"/>
<path d="M 250,217L 243,217L 243,218L 250,218Z" style="fill:rgb(10,8,7);"/>
<path d="M 269,396L 270,395L 270,394L 269.7344,392.5313L 269.2344,389.5313L 269,388L 267,387L 265,387L 262.5156,388.5313L 260,390L 260,392L 261,394L 263.6289,394.6445L 265.9414,395.5039L 267,396Z" style="fill:rgb(10,8,7);"/>
<path d="M 260.7656,238.5313L 260.2656,241.5313L 260,243L 260,244L 262,244L 263,243L 263,242L 262.7344,240.7656L 262.2344,238.2656L 262,237L 261,237Z" style="fill:rgb(10,8,7);"/>
<path d="M 270,395L 271,395L 272,394L 272,393L 271,391L 269,391L 268,392L 268,394Z" style="fill:rgb(10,8,7);"/>
<path d="M 278,391L 279,390L 280,388L 280,387L 279,386L 277.5693,385.9009L 274.9932,385.4658L 272.8882,384.4707L 271,383L 270,383L 269.334,385.668L 269,387L 269,391L 271,393L 272,394L 273,394L 275,393L 277,391.666Z" style="fill:rgb(10,8,7);"/>
<path d="M 275,388L 275,383L 275,382L 275,381L 272,381L 271,382L 271,384L 272,387L 273,388Z" style="fill:rgb(10,8,7);"/>
<path d="M 282,377L 285,377L 285.25,375L 285.707,373L 286,372L 286,369L 285,369L 284,370L 283,371L 282,372L 281,373L 281,376Z" style="fill:rgb(10,8,7);"/>
<path d="M 286,385L 287,384L 288,383L 289.4844,381L 291,379L 291,378L 290,377L 289,377L 286.5156,378.5313L 284,380L 282.5156,382.5156L 281,385L 281,386L 284,386Z" style="fill:rgb(10,8,7);"/>
<path d="M 284,370L 283,369L 282,368L 281,368L 280,371L 280,373L 282,373L 283,372L 284,371Z" style="fill:rgb(10,8,7);"/>
<path d="M 291,378L 291,375L 290,374L 289,374L 288,375L 287,376L 287,379L 288,379L 289,378.666Z" style="fill:rgb(10,8,7);"/>
<path d="M 174,319L 174,317L 172,316L 170,315L 168.7344,314.5L 166.2344,313.5L 165,313L 164,313L 164,315L 166,316L 168,317L 170,318L 172,319Z" style="fill:rgb(196,57,43);"/>
<path d="M 174,352L 173.7539,350.4922L 173.3438,347.3125L 173.1094,343.7813L 173.0215,339.957L 173,336L 172,336L 172,354L 174,354Z" style="fill:rgb(196,57,43);"/>
<path d="M 173,336L 174,336L 174.2344,334.7344L 174.7344,332.2344L 175,331L 175,326L 174,326L 173,327Z" style="fill:rgb(196,57,43);"/>
<path d="M 188,361L 188,359L 185.332,358.334L 184,358L 180,358L 180,359L 181,360L 184,361Z" style="fill:rgb(196,57,43);"/>
<path d="M 200,362L 200,360L 195,360L 192,360L 188,360L 188,361L 190,362Z" style="fill:rgb(196,57,43);"/>
<path d="M 208,306L 199,306L 199,307L 208,307Z" style="fill:rgb(196,57,43);"/>
<path d="M 201,361L 202,360L 203,359L 203,328L 201,328L 200,329L 200,335L 200.2461,336.5078L 200.4512,338.0977L 200.7715,341.4492L 200.9131,345.0879L 200.8789,348.8047L 200.6553,352.3145L 200.2461,355.4922L 200,357L 200,361Z" style="fill:rgb(196,57,43);"/>
<path d="M 239,307L 232,307L 229.1172,307.3438L 226.2363,307.4307L 223.4004,307.1924L 222,307L 208,307L 208,308L 210.8594,308.3223L 213.6367,308.752L 215,309L 239,309Z" style="fill:rgb(196,57,43);"/>
<path d="M 220,290L 218,290L 216,290L 215,290L 215,292L 217,293L 218,293L 219,292L 220,291Z" style="fill:rgb(196,57,43);"/>
<path d="M 240,329L 219,329L 219,330L 240,330Z" style="fill:rgb(196,57,43);"/>
<path d="M 255,327L 246,327L 246,328L 248,329L 249,329L 250.4688,328.7344L 253.4688,328.2344L 255,328Z" style="fill:rgb(196,57,43);"/>
<path d="M 292,286L 291,286L 289,287L 288,288L 287,289L 286,290L 286,293L 288,293L 290,292L 292,291Z" style="fill:rgb(196,57,43);"/>
<path d="M 312,298L 312,296L 311.666,294.668L 311,292L 310.666,290.668L 310,288L 309.666,286.668L 309,284L 308.5703,282.5859L 307.752,279.7773L 307,277L 306,274L 305,273L 304,273L 303,274L 302,275L 302,278L 302.9609,279.0078L 304.6953,281.125L 305.354,282.2979L 305.9294,283.5347L 306.9548,286.1226L 307.3521,287.5039L 307.6766,288.8937L 308.1351,291.6481L 308.1321,294.2827L 307.5576,296.7031L 306.4438,298.9131L 305,301L 305,304L 306,304L 307,303L 308.5371,301.3223L 310.1611,299.752L 311,299Z" style="fill:rgb(196,57,43);"/>
<path d="M 305.3872,304.7744L 306.3013,302.3872L 307.5269,300.1396L 309,298L 310,296L 310,295L 309.7344,293.5313L 309.2344,290.5313L 309,289L 308.5703,287.5859L 307.752,284.7773L 307,282L 306,279L 305,277L 304,277L 302,278L 301.1074,278.9258L 299.1738,280.6035L 297,282L 295.4521,283.4521L 293.7852,284.7852L 292,286L 290.7876,287.9863L 289.2192,289.3838L 288.1863,289.6588L 286.0767,289.9669L 285,290L 284.0469,290.8789L 283.0625,291.7031L 281.0322,293.252L 278.8652,294.625L 276.5166,295.8594L 274,297L 272.7373,297.6211L 270.2725,298.7803L 267.8662,299.7227L 265.3232,300.3916L 262.4922,300.8281L 261,301L 259.1416,302.293L 257.0684,303.3809L 254.7471,304.1836L 252.2666,304.7568L 249.6367,305.248L 246.8594,305.6777L 244,306L 242.7656,306.2656L 240.2656,306.7656L 239,307L 237.4922,307.4922L 234.3125,308.3125L 230.7852,308.7793L 227,308.9355L 223.2148,308.8867L 219.6875,308.6563L 216.5078,308.2461L 215,308L 212.1406,307.6777L 209.3633,307.248L 208,307L 206.4883,306.8389L 203.6133,306.3232L 201.125,305.3535L 199,304L 197.6113,303.624L 194.8184,302.8389L 193.4092,302.4194L 190.752,301.624L 188.3223,300.8389L 186,300L 183.5679,299.188L 181.24,298.2572L 179.0618,297.1102L 177.0054,295.7366L 176,295L 175,294.4824L 174,293.9463L 173,293.3862L 171,292.2114L 169,290.918L 167,289.5015L 165,288L 163.8296,287.5457L 161.6426,286.4619L 159.8652,284.959L 158.5522,283.0427L 158,282L 155.7754,280.7344L 153.8398,279.207L 153.0654,278.2363L 151.6729,276.1787L 150.5273,274.0459L 150,273L 149,273L 148,275L 147,278L 146,281L 145.6128,282.3975L 144.8062,285.2158L 143.927,288.0913L 142.981,291.0273L 142,294L 142,299L 142.9121,300L 144.6582,302L 146.2461,304L 147,305L 148.9336,306.0977L 150.7021,307.4512L 152.2646,309.1074L 153,310L 155,311L 156.8926,311.8613L 158.6563,312.9336L 159.4512,313.6025L 161.123,315.1357L 162,316L 163,316L 164.0703,315.8252L 166.248,315.6885L 168.457,316.0923L 170.5273,317.1997L 172.2227,319.0698L 173.4746,321.5991L 174,323L 175,323L 177.3284,322.6772L 178.531,322.6968L 181.019,322.9673L 182.2779,323.3144L 181.9422,324.7762L 179,325L 177.668,325.334L 175,326L 174.7656,327.2656L 174.2656,329.7656L 174,331L 173.7656,332.2656L 173.2656,334.7656L 173,336L 173,352L 173,354L 173,356L 174,357L 176,358L 178,359L 181.2012,359.085L 182.627,359.2002L 185.3789,359.5332L 188.0264,360.0464L 190.6738,360.6709L 192,361L 195,361L 196.2344,360.7344L 198.7344,360.2344L 200,360L 201,357L 201,337L 201.0408,335.4175L 201.2015,334.0806L 201.8611,331.7922L 203.2734,330.2502L 205.4025,329.4785L 207.9576,329.4065L 210.6487,329.7578L 212,330L 219,330L 220.5078,329.7539L 222.082,329.5488L 225.3398,329.2285L 228.7441,329.0869L 232.1484,329.1211L 235.4238,329.3447L 238.5078,329.7539L 240,330L 243,330L 244.2344,329.7344L 246.7344,329.2344L 248,329L 250.9844,327.9609L 254.1406,327.3047L 257.3828,327.0508L 259,327L 260.2344,326.7344L 262.7344,326.2344L 264,326L 266.5488,325L 267.8877,324.5L 270.646,323.5L 273.5386,322.5L 276.5059,321.5L 278,321L 279,320.5L 280,320.001L 282,319.0117L 284,318.0654L 286,317.2266L 288,316.5488L 290,316L 290.7754,315.2578L 292.4961,313.9063L 294.5967,312.8428L 297,312L 298.6836,310.3896L 300.6836,309.0566L 303,308L 304,307L 305,306Z" style="fill:rgb(226,42,17);"/>
<path d="M 148,404L 147.998,401.332L 148,400L 148,396L 147,396L 146,398L 145,400L 145,401L 145.2656,402.2344L 145.7656,404.7344L 146,406L 147,407L 148,407Z" style="fill:rgb(226,173,91);"/>
<path d="M 155.7744,411.3872L 153.3872,410.0859L 151.1396,408.6128L 149,407L 148,407L 148,409L 149,410L 150,411L 151,412L 152,413L 153.248,413.5703L 155.6777,414.752L 158,416L 160,416L 160,415L 159,414L 158,413L 157,412Z" style="fill:rgb(226,173,91);"/>
<path d="M 158,388L 156,388L 154,389L 153,390L 152,391L 152,392L 154,392L 156,390.666L 157,390L 158,389Z" style="fill:rgb(226,173,91);"/>
<path d="M 168,416L 162,416L 162,417L 165,418L 170,418L 170,417Z" style="fill:rgb(226,173,91);"/>
<path d="M 169,387L 169,385L 168,384L 164,384L 163,385L 163,386L 165.668,386.666L 167,387Z" style="fill:rgb(226,173,91);"/>
<path d="M 184,420L 186,419L 186,418L 171,418L 171,419L 174.2383,419.1074L 177.4375,419.3438L 180.5078,419.7539L 182,420Z" style="fill:rgb(226,173,91);"/>
<path d="M 196,418L 186,418L 186,419L 196,419Z" style="fill:rgb(226,173,91);"/>
<path d="M 217,264L 213,264L 211.6367,264.248L 208.8594,264.6777L 206,265L 206,266L 214,266L 217,265Z" style="fill:rgb(226,173,91);"/>
<path d="M 216,410L 215,410.624L 213,411.8389L 211,413L 211,414L 214,414L 216,413L 218,412L 219,411L 219,410Z" style="fill:rgb(226,173,91);"/>
<path d="M 240,264L 217,264L 217,265L 240,265Z" style="fill:rgb(226,173,91);"/>
<path d="M 250,415L 248.5176,414.4824L 247.0537,413.9463L 244.1934,412.8379L 242.8628,412.2622L 240.3438,411.125L 239.2161,410.5808L 237.0496,409.5208L 235.0054,408.5024L 234,408L 232,408L 232,409L 233,410L 234,410.5176L 236,411.5898L 238,412.7539L 240,414L 241.2656,414.5L 243.7656,415.5L 245,416L 250,416Z" style="fill:rgb(226,173,91);"/>
<path d="M 248,265L 247,265L 246,266L 246,267L 248.668,267.666L 250,268L 257,268L 257,267L 254.332,266.334L 253,266L 251.7344,265.7656L 249.2344,265.2656Z" style="fill:rgb(226,173,91);"/>
<path d="M 272,418L 268.127,417.9346L 264.4375,417.7617L 261.0488,417.3857L 257.9453,416.7734L 255,416L 249,416L 249,417L 250.248,417.376L 252.6777,418.1611L 255,419L 272,419Z" style="fill:rgb(226,173,91);"/>
<path d="M 288,416L 287,416L 285.6367,416.248L 282.8594,416.6777L 280,417L 278.4961,417.248L 275.3555,417.6777L 272,418L 272,419L 284,419L 285.332,418.666L 288,418Z" style="fill:rgb(226,173,91);"/>
<path d="M 277,278L 277,275L 276,274L 275,273L 274,273L 274,275L 274.334,276.332L 275,279L 276,279Z" style="fill:rgb(226,173,91);"/>
<path d="M 292,385L 290,384L 288,384L 288,385L 289,386L 290,387L 291.2656,387.5L 293.7656,388.5L 295,389L 298,389L 298,388L 296,387L 294,386Z" style="fill:rgb(226,173,91);"/>
<path d="M 298,412L 297,413L 297,414L 300,414L 302,412.666L 303,412L 304,411L 304,410L 302,410L 300,411Z" style="fill:rgb(226,173,91);"/>
<path d="M 306,394L 305,393L 304,392L 303,391L 302,390.334L 300,389L 298,389L 298,390L 299,391L 300,392L 301.6777,393.5371L 303.248,395.1611L 304,396L 306,396Z" style="fill:rgb(226,173,91);"/>
<path d="M 307,408L 308,406L 308,397L 307,396L 306,396L 306,398L 306.1602,400.3223L 305.9336,402.6133L 305.1602,404.8379L 304,407L 304,410L 305,410L 306,409Z" style="fill:rgb(226,173,91);"/>
<path d="M 147,303L 146,302L 145,301L 144,300L 143,299L 142,299L 142,301L 143,302L 144,303L 145,304L 147,304Z" style="fill:rgb(56,23,5);"/>
<path d="M 153,281L 155,282L 156,282L 156,280L 154.4512,277.8926L 153.2051,275.6563L 152.3438,273.2461L 152,272L 150,272L 150,275L 151,278L 152,280Z" style="fill:rgb(56,23,5);"/>
<path d="M 176,278L 176.5703,277L 177.752,275L 179,273L 179,272L 177,272L 176,273L 175,274L 175,278Z" style="fill:rgb(56,23,5);"/>
<path d="M 177,297L 177,298L 178.2656,298.5L 180.7656,299.5L 182,300L 185,300L 185,299L 183,298L 181,297Z" style="fill:rgb(56,23,5);"/>
<path d="M 189,270L 192,269L 192,268L 186,268L 183,269L 182,270L 182,272L 183,272L 186,271Z" style="fill:rgb(56,23,5);"/>
<path d="M 200,303L 198.6113,302.624L 195.8184,301.8389L 193,301L 190.332,300.334L 189,300L 186,300L 186,301L 188,302L 189.3887,302.376L 192.1816,303.1611L 195,304L 200,304Z" style="fill:rgb(56,23,5);"/>
<path d="M 206,295L 205,294.4824L 203,293.4102L 201,292.2461L 199,291L 197,290L 195,289L 193,288L 191,287L 190,287L 190,289L 191,289.666L 193,291L 194,291.666L 196,293L 197,293.377L 199,294.1719L 201,295.0537L 203,296L 206,296Z" style="fill:rgb(56,23,5);"/>
<path d="M 206,265L 198,265L 196,266L 196,267L 200,267L 201.4688,266.7344L 204.4688,266.2344L 206,266Z" style="fill:rgb(56,23,5);"/>
<path d="M 244,306L 236,306L 232.0039,305.998L 228.043,305.9785L 224.2188,305.8906L 220.6875,305.6563L 217.5078,305.2461L 216,305L 204,305L 204,306L 206.668,306.666L 208,307L 244,307Z" style="fill:rgb(56,23,5);"/>
<path d="M 213,264L 211,263L 208,263L 205,264L 205,265L 213,265Z" style="fill:rgb(56,23,5);"/>
<path d="M 221,263L 212,263L 212,264L 221,264Z" style="fill:rgb(56,23,5);"/>
<path d="M 216,300L 214,299L 212,299L 212,301L 216,301Z" style="fill:rgb(56,23,5);"/>
<path d="M 242,299L 240,299L 238.6094,299.4219L 235.8945,300.1758L 233.2852,300.7539L 230.6406,301.2266L 227.8906,301.5469L 225.1094,301.5469L 222.3594,301.2266L 221,301L 216,301L 216,302L 217,303L 235,303L 236.332,302.666L 239,302L 241,301L 242,300Z" style="fill:rgb(56,23,5);"/>
<path d="M 240,404L 233,404L 233,405L 240,405Z" style="fill:rgb(56,23,5);"/>
<path d="M 243,265L 243,263L 234,263L 234,264L 235.5313,264.2344L 238.5313,264.7344L 240,265Z" style="fill:rgb(56,23,5);"/>
<path d="M 251,294L 250,294L 248,295L 246,296L 244,297L 242,298L 242,300L 245,300L 247,298.666L 248,298L 250,296.666L 251,296Z" style="fill:rgb(56,23,5);"/>
<path d="M 250,266L 250,264L 243,264L 243,265L 244.2656,265.2344L 246.7656,265.7344L 248,266Z" style="fill:rgb(56,23,5);"/>
<path d="M 258,303L 255,303L 253,303L 250,303L 248.5859,303.4297L 245.7773,304.248L 243,305L 243,306L 251,306L 252.2344,305.7344L 254.7344,305.2344L 256,305L 258,304Z" style="fill:rgb(56,23,5);"/>
<path d="M 259,268L 259,266L 256,265L 250,265L 250,266L 253,267L 255.668,267.666L 257,268Z" style="fill:rgb(56,23,5);"/>
<path d="M 257,291L 255,291L 253,292L 251,293L 251,295L 253,295L 255,294L 256,293L 257,292Z" style="fill:rgb(56,23,5);"/>
<path d="M 275,273L 275,271L 272,270L 269,269L 266,268L 263,267L 259,267L 259,268L 261,269L 264,270L 266.6875,270.7744L 269.292,271.6128L 271.7822,272.5269L 273,273Z" style="fill:rgb(56,23,5);"/>
<path d="M 267,285L 266,285L 264.667,285.668L 262,287L 260,288L 260,290L 262,290L 264,289L 266,288L 267,287Z" style="fill:rgb(56,23,5);"/>
<path d="M 261,398L 261,399L 263,399L 265,398L 265,397L 264,396L 263,396L 262,397Z" style="fill:rgb(56,23,5);"/>
<path d="M 266,302L 268,301L 270,300L 272,299L 272,298L 269,298L 267,299L 265,300L 265,302Z" style="fill:rgb(56,23,5);"/>
<path d="M 275,280L 274,280L 272,281L 270,282.334L 269,283L 268,284L 267,285L 267,286L 269,286L 271,285L 273,284L 275,282Z" style="fill:rgb(56,23,5);"/>
<path d="M 284,292L 283,292L 281.668,292.334L 279,293L 278,293.624L 276,294.8389L 274,296L 274,297L 277,297L 280,296L 281.332,295.332L 284,294Z" style="fill:rgb(56,23,5);"/>
<path d="M 276.0313,276.5313L 275,279L 275,281L 277,281L 278,280L 279,278L 279,276L 278,274L 277,274Z" style="fill:rgb(56,23,5);"/>
<path d="M 279,388L 279,389L 281,389L 282,388L 283,387L 283,386L 281,386L 280,387Z" style="fill:rgb(56,23,5);"/>
<path d="M 291,323L 291.5352,320.4102L 292.2012,317.748L 293,315L 293,314L 291,314L 290,315L 290,323Z" style="fill:rgb(56,23,5);"/>
<path d="M 297,284L 297.666,283L 299,281L 299,280L 297,280L 296,281L 295,282L 294,283L 293,284L 292,285L 292,286L 294,286L 296,285Z" style="fill:rgb(56,23,5);"/>
<path d="M 302.3223,279.5039L 303.0742,276.6445L 304,274L 304,272L 301,272L 300.2256,274.6875L 299.3872,277.292L 298.4731,279.7822L 298,281L 298,282L 301,282L 302,281Z" style="fill:rgb(56,23,5);"/>
<path d="M 314,299L 313,298L 311,298L 309,299L 308,300L 307,301L 306.334,302L 305,304L 305,305L 307,305L 308,304.333L 310,303.2793L 312,302.8721L 314,303L 315,303L 315,301Z" style="fill:rgb(56,23,5);"/>
<path d="M 153,308L 151.666,306L 151,305L 150,304L 149,303L 148,303L 148,306L 149,307L 150,308L 151,309L 153,309Z" style="fill:rgb(169,44,23);"/>
<path d="M 158,283L 156,283L 156,285L 158,286.4844L 160,288L 163,288L 163,287L 162.2344,286.2656L 160.7344,284.7656L 160,284Z" style="fill:rgb(169,44,23);"/>
<path d="M 159.2344,311.2656L 157.7344,309.7656L 157,309L 156,309L 156,313L 159,314L 161,314L 161,313L 160,312Z" style="fill:rgb(169,44,23);"/>
<path d="M 179,326L 181.5479,326.0557L 184.2148,326.3906L 187,327L 188.2656,327.2344L 190.7656,327.7344L 192,328L 194,328L 194,326L 192,325L 189.2266,324.2256L 186.4688,323.3848L 183.7686,322.4478L 181.1484,321.4043L 178.5732,320.2456L 176,319L 175,319L 174.334,321.668L 174,323L 174,326Z" style="fill:rgb(169,44,23);"/>
<path d="M 248.9341,288.5371L 251,287.5L 252,287L 254,286L 256,285L 258,284L 260,283L 261,282L 262,281L 262,280L 260,280L 258.9141,280.498L 256.668,281.4805L 254.252,282.4102L 252.9619,282.8281L 250.3408,283.6162L 249.0068,283.9717L 246.3657,284.6509L 243.7949,285.2529L 241.2656,285.7656L 238.4922,286.2461L 235.3125,286.6563L 233.5781,286.7734L 230.0605,286.9326L 226.5195,286.9668L 223.0293,286.8896L 219.6563,286.6563L 216.5078,286.2461L 215,286L 213.5547,285.8281L 210.6816,285.3975L 207.8359,284.7744L 206.418,284.3872L 203.752,283.624L 201.3223,282.8389L 199,282L 196,281L 194,281L 194,283L 196,284L 198,285L 200,286L 202,287L 204,288L 205.248,288.5703L 206.4629,289.1611L 207.6333,289.7593L 209.8843,290.9634L 211.9824,292.2056L 214,293.5479L 216,295L 218,296L 221,297L 233,297L 236,296L 238,295L 239.0049,294.3301L 241.0449,292.9854L 243.1934,291.6377L 244.3574,290.9722L 246.6948,289.6904L 249.4341,288.2871ZM 218,291L 215,292Z" style="fill:rgb(169,44,23);"/>
<path d="M 204,304L 199,304L 199,306L 204,306Z" style="fill:rgb(169,44,23);"/>
<path d="M 293,312L 290,313L 290,315L 291,315L 292.332,314.666L 295,314L 296,313L 296,312Z" style="fill:rgb(169,44,23);"/>
<path d="M 298,312L 300,310.666L 301,310L 302,309L 302,308L 299,308L 297,309L 297,312Z" style="fill:rgb(169,44,23);"/>
</svg>