<svg width="400" height="300"
     xmlns="http://www.w3.org/2000/svg" version="1.1">
<style>path {fill-opacity:1; stroke:none;}</style>
<path d="M 307.365,223.0407L 306.8573,225.9254L 306.4657,227.1184L 305.4934,229.3002L 304.7958,230.1289L 303.9899,230.7751L 302.586,231.2425L 301.3679,231.3956L 299.1309,231.2061L 298.152,230.7018L 296.3302,229.408L 294.8915,227.6232L 294.0283,225.5192L 293.7981,223.2726L 294,221L 294,219L 292.9922,218.6563L 292.0205,218.2246L 290.1694,217.1592L 288.5151,215.6963L 287.0391,213.9219L 285.6689,211.9883L 285,211L 284,211L 282,212L 281.334,214.668L 280.6636,217.3389L 279.9717,220.0215L 279.2222,222.6924L 278.3872,225.292L 277.9302,226.5371L 277.4584,227.7756L 276.9749,229.0042L 275.9849,231.4225L 274.9346,233.7332L 273.7734,235.9077L 272.4512,237.9778L 271,240L 270.4297,241L 269.248,243L 268,245L 267,247L 265.8384,249.8384L 264.4731,252.4731L 262.8604,254.8604L 262,256L 262,257L 263.2256,257.292L 264.4192,257.6345L 266.7344,258.4375L 268.9102,259.4736L 270.98,260.6929L 273,262L 274.1719,262.6128L 275.2793,263.2651L 276.3104,263.9667L 277.2623,264.7216L 278.1335,265.5313L 279.703,267.2608L 280.8827,269.2054L 281.5615,271.3375L 281.5984,272.4636L 281.357,274.713L 280.5033,276.84L 279.0936,278.5627L 277.2387,279.6089L 276.1739,279.7885L 273.5546,279.984L 272,280L 270.4922,280.2461L 267.3125,280.6563L 263.7813,280.8906L 259.957,280.9785L 256,281L 254.5508,281.2441L 251.582,281.6348L 248.5,281.7813L 245.418,281.6348L 242.4492,281.2441L 241,281L 225,281L 223.834,281.1582L 221.5,281.3164L 220.333,281.2373L 219.1377,281.1035L 216.7056,280.7505L 214.2344,280.2656L 213,280L 209.668,279.9785L 206.1563,279.8906L 202.6875,279.6563L 199.5078,279.2461L 198,279L 196,279L 193.9121,279.9131L 191.7441,280.6533L 189.4805,281.0527L 187.1641,281.0742L 186,281L 185,281L 184,281L 164,281L 161.332,281.002L 160,281L 154,281L 150.0039,280.998L 146.043,280.9785L 142.2188,280.8906L 138.6875,280.6563L 135.5078,280.2461L 134,280L 132.4678,279.9858L 129.4648,279.9043L 128.0659,279.7722L 126.7432,279.5581L 125.4993,279.2487L 123.1833,278.4193L 122.2233,277.7833L 121.3962,277.0358L 120.7201,276.186L 119.6943,274.311L 119.3503,272.1689L 119.7035,269.9634L 120.6627,267.9076L 122.0424,266.1091L 123.7206,264.5598L 125.7227,263.2148L 128,262L 128,258L 127,256L 127,257L 129,259L 132,259L 134,258L 135,257L 135.4688,255.7344L 136.4688,253.2344L 137,252L 137,251L 135.666,249L 135,248L 133.3242,246L 131.7803,244L 131.0923,243L 129.7754,240.9795L 128.5313,238.8555L 127.3013,236.5605L 126.707,235.376L 125.5662,233.0249L 124.5098,230.6558L 123.5,228.1367L 122.5,225.4102L 122,224L 121.5703,222.8594L 120.752,220.4961L 120,218L 119,216L 116.5156,215.5313L 114,215L 113,215L 112,216L 111.3257,217L 109.9507,219L 109.229,220L 108.4901,221L 107.7346,222L 106.96,223L 105.3651,224.998L 103.6674,226.9785L 101.8566,228.8906L 100.8916,229.772L 99.8928,230.5793L 98.8583,231.2474L 97.7957,231.6576L 96.6112,231.6091L 95.6773,231.2014L 94.3867,229.7785L 94.015,227.3817L 94,226L 93.8594,223.5703L 93.8862,222.376L 94.0269,219.7314L 94.3223,216.6445L 94.752,213.5039L 95,212L 95.2344,210.4688L 95.7344,207.4688L 96,206L 96.5479,202.9199L 97.2148,199.9219L 98,197L 98.2461,195.7363L 98.7783,193.2148L 99.4121,190.7246L 100.165,188.3164L 101,186L 101.3872,184.6025L 102.1938,181.7842L 102.6334,180.3464L 103.5461,177.4424L 104.0287,175.9736L 105.0065,173.0566L 106.0009,170.2367L 107.0001,167.6141L 108,165.2266L 109,163L 109,162L 108.6484,160.9336L 108.1396,158.7871L 108.1494,157.7324L 108.5181,155.6963L 109.543,153.8027L 111,152L 111.666,149.332L 112,148L 112.2681,145.876L 112.9277,143.8691L 113.4639,142.9346L 114.666,141L 116,139L 116.3438,137.625L 117.2051,135.0361L 118.4512,132.8428L 120,131L 120,126L 120.0039,122.0039L 120.043,118.043L 120.2188,114.2188L 120.6875,110.6875L 121.5078,107.5078L 122,106L 122.2344,104.4688L 122.7344,101.4688L 123,100L 123.1611,98.5703L 123.5439,95.752L 124.0557,93.0137L 124.6729,90.332L 125,89L 125.124,87.1777L 125.585,83.8105L 126.5645,81.1133L 128,79L 129,77L 129.9688,74.4688L 131,72L 131.1572,70.915L 131.8037,68.8584L 133,67L 134,65L 135,63L 136,61L 136.4424,59.8516L 136.9937,58.8057L 138.3237,56.834L 140,55L 141.5776,53L 143.2444,51L 145,49L 146.4844,47L 148,45L 149.3721,43.1787L 151.0413,41.8457L 153,41L 155,39.4902L 156,38.7676L 157,38.0635L 158,37.3765L 159,36.7074L 161.0039,35.4091L 163.0391,34.1967L 165.1797,33.0731L 167.4883,32.0369L 169.9102,31.136L 171.127,30.8083L 173.5313,30.3068L 175.8594,30.0664L 177,30L 178.3223,29.3223L 179.6836,28.707L 182.4551,27.6211L 185.2813,26.8359L 188.126,26.3311L 191,26L 192.3467,25.6772L 195.0791,25.0825L 197.8975,24.6675L 200.7646,24.5698L 203.5996,24.8076L 205,25L 207.8594,25.3223L 210.6367,25.752L 212,26L 215.0195,26.4902L 217.9102,27.0449L 219.2832,27.3584L 221.9961,28.002L 224.668,28.666L 226,29L 227.4033,29.1543L 229.7822,29.7969L 231.3789,31.1426L 232,32L 233.248,32.5703L 235.6777,33.752L 236.8389,34.376L 239.2393,35.6699L 241.6426,37.04L 242.7629,37.7629L 243.8473,38.5037L 244.9041,39.2609L 245.941,40.037L 246.9643,40.8355L 247.9788,41.6594L 248.9875,42.51L 250.996,44.2639L 252.9784,46.1153L 253.9345,47.0784L 255.7734,49.0266L 257.4443,51.0072L 258.1938,52.0043L 259.6382,54.0057L 261.0112,56.045L 262.3623,58.1934L 263.6934,60.5215L 265,63L 265.6128,64L 266.8062,66L 267.927,68L 268.981,70L 270,72L 271.4014,73.6328L 272.3833,75.8125L 272.8657,78.5391L 273,80L 273.4219,81.3906L 274.1758,84.1055L 274.7539,86.7148L 275,88L 275.4219,89.3906L 276.1758,92.1055L 276.4648,93.4102L 276.7393,94.7471L 277.2549,97.5459L 277.6777,100.6445L 278,104L 278.2461,105.5078L 278.6582,108.6836L 278.9121,112.1758L 279,114L 279.4102,115.1797L 280.1367,117.7266L 280.6348,120.7305L 280.8887,124.2227L 280.9785,128.043L 280.998,132.0039L 281,134L 282.8345,135.5565L 284.2883,137.4521L 285.2825,139.6683L 286,142L 287,145L 288,147.4688L 289,150L 290.0313,152L 291,154L 292.2051,156.2363L 292.9336,158.5176L 293.0664,160.8359L 293,162L 293,166L 293.334,167.332L 294,170L 295.2441,172.7705L 296.3906,175.582L 297.3906,178.4155L 298.2441,181.2246L 299,184L 299.4297,185.1406L 299.8389,186.3223L 300.6172,188.7656L 301.3271,191.3457L 302,194L 302.4219,195.3906L 303.1758,198.1055L 303.7539,200.7148L 304,202L 304.2656,203.2344L 304.7656,205.7344L 305,207L 305.4121,208.1758L 306.1582,210.6836L 306.4521,212.0957L 306.7183,213.5417L 307.1736,216.5302L 307.4615,219.7462L 307.252,223.3959ZM 0,0L 0,300L 400,300L 400,0ZM 282.625,261.375L 281,261Z" style="fill:rgb(254,254,254);"/>
<path d="M 262,175L 261.666,173.668L 261,171L 260,170L 256,170L 254.5469,170.4102L 251.5625,171.1367L 248.3438,171.6367L 244.8281,171.9102L 243,172L 241.4834,172.248L 238.335,172.6777L 235,173L 232.1289,173.9648L 229.3164,174.668L 226.6133,174.9805L 225.3066,174.9902L 222,175L 218.9453,175.4297L 215.7656,175.6641L 212.5566,175.5908L 209.4863,175.2354L 208,175L 204,175L 201.3535,175.3438L 198.7539,175.4307L 196.2363,175.1924L 195,175L 192,175L 190,175.5156L 188,176L 188,188L 187.9961,191.9961L 187.9766,193.9766L 187.9219,195.9219L 187.6953,199.6934L 187.1426,203.123L 186.1035,206.0137L 185.2881,207.1162L 184.3179,208.0356L 182.0906,209.5281L 179.3469,210.3948L 177.7693,210.5999L 174.4785,210.8777L 171.0404,210.9503L 167.6807,210.8655L 164.5347,210.5466L 161.6563,209.9023L 159,209L 157.3184,208.7227L 154.2256,207.9214L 151.8291,206.4858L 150.2813,204.2598L 149.4629,201.3027L 149.1035,197.8301L 149,196L 148.5703,193.0859L 148.3359,190.1289L 148.4092,187.1973L 148.7646,184.377L 149,183L 149,180L 148.5371,177.207L 148.1611,174.4043L 148,173L 147,171L 146,170.7656L 144,170.2656L 143,170L 142,170L 141,170L 140,170L 139,171L 138.9121,172.8242L 138.6582,176.3164L 138.2461,179.4922L 138,181L 138,186L 138.2461,187.5078L 138.6563,190.6875L 138.8906,194.2188L 138.9785,198.043L 138.998,202.0039L 139,206L 139,215L 139.334,216.332L 140,219L 140.334,220.332L 141,223L 141.4297,224.4141L 142.248,227.2227L 143,230L 144,232L 145,234L 146,236L 146.9844,236.9531L 148.6328,239.0781L 149.6484,241.625L 150,243L 151.334,245L 152,246L 152.9844,246.5781L 154.6992,248.041L 156,250L 157,251L 158,252L 159,253L 160.0078,253.1299L 161.4292,253.5747L 163.52,254.8311L 164.5947,256.8213L 165,258L 166,258.666L 168,260L 171.1777,260.3555L 174.1602,261.0664L 175.458,261.6953L 177.8623,263.1865L 180,265L 183,266L 184.2656,266.2344L 186.7656,266.7344L 188,267L 213,267L 214.2344,266.7344L 216.7344,266.2344L 218,266L 221,265L 224,264L 226,263L 228,262L 230,261L 232,260L 234,259L 236,257.666L 237,257L 237.5405,255.9783L 238.8579,254.1672L 240.7114,252.8762L 243,252L 244,251L 245,250L 246,249L 246.7686,248L 248.3491,246L 250,244L 250.5703,243L 251.752,241L 253,239L 253.6875,235.7949L 254.7227,233.0664L 256.1797,230.9336L 257,230L 258,228L 258.376,226.6113L 259.1611,223.8184L 260,221L 260.666,218.332L 261,217L 261.2344,215.7344L 261.7344,213.2344L 262,212ZM 228,258L 229,258L 230,258Z" style="fill:rgb(254,254,254);"/>
<path d="M 192.666,69.668L 192,67L 191,64L 190,63L 189,62L 186.4688,61.0313L 184,60L 181,59L 179,59L 177,59L 175,59L 173,59L 172,59L 171,60L 170,61L 169,62L 168,64L 167,66L 166,69L 166,84L 167,87L 168,90L 170.0234,91.9897L 171,93L 172,94L 174.5938,95.4063L 177,97L 182,97L 185,96L 186,95L 187,94L 187,93L 186.666,91.668L 186,89L 184.8989,88.6011L 182.9595,87.5405L 182.26,86.74L 180.9541,84.8994L 180.3755,83.7886L 179.875,82.6257L 179.0945,80.2339L 178.8318,77.7983L 179.1758,75.5225L 180.1316,73.646L 181.3581,73.1289L 184.1385,72.8123L 186.6085,73.8408L 187.2793,74.8496L 188.27,77.1689L 188.5029,78.5625L 188.8329,81.4857L 188.959,84.625L 188.9935,87.8351L 189,91L 190,91L 191,90L 192,88L 193,85L 193,83L 192.6563,80.3535L 192.5693,77.7539L 192.8076,75.2363L 193,74L 193,71Z" style="fill:rgb(254,254,254);"/>
<path d="M 235,81L 234.7207,79.7949L 234.377,77.4307L 234.5049,75.1719L 235,73L 235,71L 234.666,69.668L 234,67L 233,64L 231.7461,63.5107L 229.335,62.4595L 227.1748,61.2104L 225.3271,59.6929L 223.7412,57.9312L 223,57L 218,57L 216,58L 214,59L 213,60L 212,61L 210.5156,63L 209,65L 208.334,67.668L 208,69L 208,75L 209,75L 210.333,74.9932L 213,75L 216,75L 217.2976,74.738L 219.8862,74.3345L 222.4463,74.2803L 224.9087,74.75L 227.1416,75.8188L 229.0361,77.4658L 230.6099,79.5913L 232,82L 235,82Z" style="fill:rgb(254,254,254);"/>
<path d="M 213,74L 212,72L 210,72L 209,73L 209,74L 209.2656,75.2344L 209.7656,77.7344L 210,79L 211,79L 212,78L 213,75Z" style="fill:rgb(254,254,254);"/>
<path d="M 234,86L 234,82L 233.332,81.001L 232,79L 231,78L 229,78L 226.5156,78.0469L 224,78L 216,78L 215,79L 214,80L 213,81L 211.668,83.668L 211,85L 211,86L 211.2656,87.2344L 211.7656,89.7344L 212,91L 213.0195,91.7891L 214.8691,93.5781L 216.3496,95.7891L 217,97L 223,97L 226,96L 228,94.666L 229,94L 230,93L 230.666,92L 232,90L 233,88Z" style="fill:rgb(254,254,254);"/>
<path d="M 215,142L 188,142L 188,143L 215,143Z" style="fill:rgb(123,49,26);"/>
<path d="M 258,257L 259,256L 260,255L 261,254L 262,253L 263,252L 264,251L 265,250L 266,249L 267,248L 268,247L 268.666,246L 270,244L 271.2148,242L 272.5479,240L 274,238L 275,236L 276,234L 277,232L 277.5,230.7344L 278.5,228.2344L 279,227L 280,224L 280.666,221.332L 281,220L 281.666,217.332L 282.1143,216.0684L 282.9058,215.0576L 284.2458,214.603L 285.2694,214.8386L 286.9805,216.0371L 288.334,218L 289,219L 289.7969,219.9844L 291.2969,221.9844L 292,223L 293.6777,225L 295.248,227L 296,228L 297,229L 298,230L 299,231L 300,232L 302,233L 305,233L 306,232L 307,230L 307,229L 306.6563,226.6309L 306.5693,224.3174L 306.8076,222.0908L 307,221L 307,216L 306.7539,214.5547L 306.3418,211.6055L 306.0879,208.5508L 306,207L 305.7344,205.7656L 305.2344,203.2656L 305,202L 304.7344,200.7656L 304.2344,198.2656L 304,197L 303.5703,195.5859L 303.1611,194.1816L 302.3828,191.4023L 301.6729,188.6816L 301,186L 300.5703,184.8594L 299.752,182.4961L 299,180L 298,177L 297,174L 296,171L 294.666,169L 294,168L 293.1406,167.3018L 291.5039,165.7646L 290,164L 288,163L 283,163L 282.1582,163.6582L 281.2373,164.2373L 279.2158,165.2354L 276.8418,165.9492L 274.1934,166.4609L 271.4092,166.8389L 270,167L 269,167.4297L 266.9375,168.2676L 264.625,169.1074L 262,170L 261,173L 261,175L 261.2461,176.5078L 261.6582,179.6836L 261.9121,183.1758L 262,185L 262.2441,186.5039L 262.6348,189.6445L 262.7813,193L 262.6348,196.3555L 262.2441,199.4961L 262,201L 261.8926,204.2383L 261.6563,207.4375L 261.4512,208.9727L 261.2324,210.4336L 261.0024,211.8232L 260.7568,213.166L 260.2234,215.811L 259.5879,218.4551L 258.835,221.1914L 258.4175,222.5957L 257.624,225.248L 257.2314,226.4629L 256.8098,227.689L 255.8943,230.2056L 254.8281,232.8311L 253.627,235.4199L 252.3359,237.8008L 251.668,238.9004L 250.3872,241L 249.0859,243L 247.6128,245L 246,247L 244.3928,249L 242.6992,251L 240.8889,253L 239,255L 237.4629,256.7739L 235.5771,258.0657L 233.2568,258.7732L 232,259L 229.9961,260L 228.9785,260.5L 226.8887,261.5L 225.7617,262L 224.5791,262.498L 222.1221,263.4785L 219.5352,264.3906L 216.9141,265.1563L 214.3027,265.7461L 213,266L 211.7656,266.2656L 209.2656,266.7656L 206.6406,267.2266L 203.8906,267.5469L 201.1094,267.5469L 198.3594,267.2266L 197,267L 195.4492,266.9121L 192.3945,266.6582L 190.9199,266.4521L 188.0801,266L 186.7451,265.7324L 184.0742,265.1289L 182.7031,264.75L 179.895,263.9214L 178.4358,263.4529L 175.4871,262.4915L 173.9929,261.9954L 172.5587,261.4819L 169.9372,260.3279L 167.875,258.8438L 167,258L 166,257.334L 164,256L 162,255L 159.5459,254.1465L 157.6279,252.6074L 156.4297,250.3047L 156,249L 155.1611,248L 153.5439,246L 152.7998,245L 152.0825,244L 151.3876,243L 150.04,241L 149.41,240L 148.1967,238L 147.6349,237L 146.5482,234.9961L 145.5308,232.9609L 144.5916,230.8203L 143.754,228.4922L 143,226L 142.5703,224.5859L 142.1611,223.1816L 141.772,221.792L 141.0288,219.0439L 140.354,216.3447L 139.7695,213.6406L 139.3232,210.8613L 139,208L 138.7344,206.5313L 138.2344,203.5313L 138,202L 137.5508,198.9063L 137.3994,197.248L 137.2124,193.8369L 137.2769,190.3604L 137.6206,187.0361L 138.2271,183.9443L 139,181L 139,169L 136.1641,168.6563L 133.3184,168.1387L 131.8818,167.7744L 130.48,167.395L 127.7803,166.5996L 125.3154,165.6846L 123.0742,164.5928L 122,164L 117,164L 115.8184,164.1074L 113.4297,164.1738L 111,164L 110,164L 109,164L 108,164L 107,165L 106,167L 105,170L 104,173L 103,176L 102,179L 101,182L 100.624,183.248L 99.8389,185.6777L 99,188L 98.334,190.668L 98,192L 97.4648,194.5898L 96.7988,197.252L 96,200L 95.7656,201.5313L 95.2656,204.5313L 95,206L 94.7656,207.5313L 94.2656,210.5313L 94,212L 94,232L 95,233L 99,233L 100,232L 101,231L 102,230L 103,229L 104,228L 105,227L 106,226L 107,225L 108.4844,223L 110,221L 110.666,220L 112,218L 112.666,217L 114,215L 114.666,214L 116,212L 117,210L 117.5371,208.8926L 118.6982,206.8262L 120,205L 119,205L 119,218L 119.334,219.332L 120,222L 120.5,223.2539L 121.5,225.8418L 122.5,228.5879L 123,230L 124,232.1758L 125,234.5078L 126,237L 127,238L 128.5898,239.6152L 129.8408,241.5234L 130.6748,243.7891L 131,245L 132.6777,247L 134.248,249L 135,250L 136,251L 137.125,251.3403L 139.168,252.2681L 140.6836,253.7778L 141.6406,255.8501L 142,257L 143,258L 144,259L 146.8975,259.5068L 149.5566,260.2998L 151.8896,261.5029L 154,263L 156.5156,264.4844L 158.8857,265.9463L 161.0029,267.3291L 162,268L 164.4512,268.7744L 166.7744,269.8281L 168.9463,271.2256L 170,272L 171.334,272.666L 174,274L 176.668,274.666L 178,275L 179.2656,275.2344L 181.7656,275.7344L 183,276L 213,276L 214.3164,275.5625L 217.1309,274.7891L 220.3145,274.2266L 222,274L 223.1758,273.3418L 225.6836,272.1836L 228.5078,271.3418L 230,271L 231.002,270.502L 233.0215,269.5215L 235.1094,268.6094L 237.3438,267.8438L 239.7539,267.2539L 241,267L 242.1602,266.4531L 244.6602,265.4531L 246,265L 246.8767,264.072L 248.7388,262.4878L 250.8065,261.5062L 253,261L 255,260L 256,259L 257,258Z" style="fill:rgb(0,0,1);"/>
<path d="M 279,104L 278.752,102.4961L 278.3223,99.3555L 278,96L 277.7344,94.7656L 277.2344,92.2656L 277,91L 276.5781,89.6094L 275.8242,86.8945L 275.2461,84.2852L 275,83L 274,80L 273,77L 272,74L 271.332,72.667L 270,70L 269,68L 268,66L 267,64L 266.332,62.667L 265,60L 263.666,58L 263,57L 261.666,55L 261,54L 259.666,52L 259,51L 258,50L 257,49L 256,48L 255,47L 254,46L 253,45L 252,44L 251,43L 250,42L 249,41L 248,40L 246,38.5156L 244,37L 243,36.334L 241,35L 239.666,34.334L 237,33L 235,32L 233.666,31.334L 231,30L 229.7344,29.5L 227.2344,28.5L 226,28L 223.332,27.334L 222,27L 219.332,26.334L 218,26L 216.4688,25.7656L 213.4688,25.2656L 212,25L 211,25L 209.6406,25.2266L 206.8906,25.5469L 204.1094,25.5469L 201.3594,25.2266L 200,25L 191,25L 189.6367,25.248L 186.8594,25.6777L 184,26L 182.5313,26.2656L 179.5313,26.7656L 178,27L 176.5469,27.5313L 173.5469,28.5313L 172,29L 169.5313,30L 167,31L 165,32L 163,33L 161,34L 159,35.334L 158,36L 156,37.334L 155,38L 153,39.6777L 151,41.248L 150,42L 149,43L 148,44L 147,45L 146,46L 145.3047,47.0273L 144.5371,48.0342L 143.7021,49.0308L 141.9248,51.0171L 140,53L 139.334,54L 138,56L 137.334,57L 136,59L 135,61L 134,63L 133,65L 132,67L 131,69L 130.334,70.334L 129,73L 128.624,74.248L 127.8389,76.6777L 127,79L 126,82L 125,85L 124.334,87.668L 124,89L 123.334,91.668L 123,93L 122.6777,95.8594L 122.248,98.6367L 122,100L 121.6777,103.3555L 121.248,106.4961L 121,108L 121,129L 122,130L 125,130L 127,129L 126,129L 126,131L 128.668,131.666L 130,132L 136,132L 138.4902,131.5254L 140.8262,131.5254L 143,132L 143,131L 140,131L 137,132L 137,133L 138,134L 140,135L 143.3555,135.3223L 144.9258,135.5371L 146.4072,135.7612L 149.21,136.2271L 151.7656,136.7344L 153,137L 155.8594,137.3223L 158.6367,137.752L 160,138L 161.8242,138.0879L 163.5703,138.2148L 166.8906,138.5547L 169.8867,139.0566L 172.6543,139.6729L 174,140L 176,140L 178.4297,139.8594L 180.8184,139.9131L 182,140L 183.6211,140.002L 187.082,140.0215L 190.7813,140.1094L 194.3125,140.3438L 197.4922,140.7539L 199,141L 200,141L 202.4844,140.9531L 205,141L 208,141L 209.5078,140.7539L 212.6836,140.3418L 216.1758,140.0879L 218,140L 219.5078,139.7539L 222.6563,139.3438L 224.3281,139.2266L 225.9639,139.146L 229.0615,139.0386L 231.7617,139.0059L 233,139L 234.3633,138.752L 237.1406,138.3223L 240,138L 242.7012,137.3506L 245.543,136.7715L 248.6895,136.3447L 252.1563,136.1094L 255.668,136.0215L 259,136L 262,135L 264.5723,133.8613L 267.1367,132.9336L 269.709,132.2715L 271,132L 272,131.6641L 274,131L 275,130.5703L 277,129.752L 279,129ZM 234.4348,77.5523L 234.3041,79.1088L 233.8788,81.9488L 233.533,83.1965L 232.7424,85.6069L 231.7574,87.8325L 230.5803,89.854L 229.8799,90.7568L 229.1019,91.6042L 227.376,93.1847L 225.3166,94.5077L 224.1596,94.9863L 222.9815,95.3294L 220.6243,95.7155L 218.335,95.4833L 217.2826,95.0746L 215.2978,94.0202L 214.416,93.2751L 212.7375,91.5943L 211.2268,89.5636L 209.9332,87.2707L 208.9502,84.8196L 208.2793,82.3154L 207.8477,79.8662L 207.6836,77.5L 207.7627,76.333L 207.9014,75.1387L 208.2769,72.6968L 208.8438,70.1855L 209.2412,68.9404L 209.7078,67.7249L 210.2384,66.5508L 211.4156,64.3088L 212.1112,63.3136L 213.6015,61.4772L 215.306,59.9595L 217.2717,58.788L 219.5303,58.0352L 220.7688,57.9299L 223.2577,58.0142L 225.674,58.6262L 226.7715,59.1407L 227.7906,59.762L 229.6558,61.2439L 231.1636,63.2158L 231.7466,64.4158L 232.7779,66.9404L 233.569,69.6558L 234.133,72.5595L 234.2951,74.1528ZM 224.1563,104.0034L 227.4297,104.0508L 230.3516,104.2568L 232.8281,104.7095L 234,105L 236.3535,105.2891L 238.6777,105.7969L 240.9121,106.5625L 242,107L 243.2861,107.2793L 245.6201,108.0586L 246.5459,108.7158L 247.3562,109.519L 248.0345,110.4414L 249.0815,112.4531L 249.4386,114.6479L 249.0309,116.7385L 247.8901,118.4934L 246.0825,119.7683L 243.7109,120.5469L 241,121L 238,122L 236,123L 233.9961,123.9961L 232.9785,124.4785L 230.8965,125.3887L 228.6992,126.1367L 226.3828,126.6563L 224,127L 221.2988,127.6494L 218.457,128.2285L 215.3418,128.6553L 212,128.8906L 208.6484,128.9805L 207,129L 205.4922,129.2461L 202.3125,129.6563L 198.7813,129.8906L 195.082,129.9785L 191.6211,129.998L 190,130L 190,131L 190.25,131.125L 189.498,130.4189L 188,129L 184.6445,128.6777L 181.4688,128.2188L 178.418,127.5254L 175.4531,126.5547L 174,126L 172.7383,125.833L 170.2188,125.4111L 167.6543,124.7881L 166.3271,124.394L 163.6445,123.5166L 161.1484,122.3887L 159,121L 157.6104,120.4797L 154.9536,119.3494L 153.8159,118.6527L 152.8442,117.8679L 151.2917,116.1444L 150.9425,115.1691L 150.9395,112.7518L 151.9341,110.4908L 153.5183,109.0287L 155.6072,107.9021L 158,107L 158.9746,106.5039L 159.9668,106.0742L 161.0005,105.7026L 163.1821,105.0571L 165.6328,104.5854L 168.4233,104.2668L 171.5801,104.0923L 174.9707,104.0225L 178.3462,104.0032L 180,104L 181.4922,103.7539L 184.5625,103.3438L 187.7617,103.1074L 191,103L 192.5078,102.7539L 195.6875,102.3438L 199.2188,102.1094L 201.0684,102.0654L 202.8877,102.0405L 206.4893,102.0278L 210.0557,102.1118L 213.5566,102.3652L 216.793,102.8633L 219.6563,103.5898L 221,104ZM 192.3248,81.9533L 191.9499,83.367L 191.5145,84.7238L 191.0097,86.0219L 189.849,88.5023L 188.3663,90.7499L 186.5342,92.7465L 184.373,94.4725L 183.1865,95.2363L 181.0227,96.5747L 178.9104,97.1685L 176.7957,96.5503L 175,95L 173.0117,93.5386L 172.0811,92.6334L 170.3384,90.5887L 169.5959,89.3589L 168.2432,86.7684L 167.1521,84.0133L 166.3582,81.2713L 166.1532,79.9661L 166.0512,78.6731L 166.0317,76.0533L 166.1847,74.6851L 166.4002,73.2964L 166.6725,71.9114L 166.9981,70.5507L 167.3764,69.2281L 167.8092,67.9512L 168.7904,65.4937L 170.018,63.2357L 170.7759,62.2214L 172.4712,60.3539L 174.5602,58.889L 175.8021,58.4388L 177.1005,58.1619L 178.4195,58.0635L 179.7295,58.141L 181.0098,58.3858L 183.485,59.1857L 184.619,59.8705L 186.7509,61.4733L 188.5764,63.4907L 189.3067,64.6547L 190.5817,67.0887L 191.5155,69.7095L 192.1678,72.5214L 192.5534,75.5738L 192.6642,78.8282L 192.6525,80.4914Z" style="fill:rgb(0,0,1);"/>
<path d="M 189,82L 189,74L 188,72L 187,71L 180,71L 179,72L 178.75,74.8281L 178.293,77.6172L 178,79L 178,83L 179,84L 180.2813,84.4688L 182.7813,85.4688L 184,86L 186,86L 187,85L 188,84Z" style="fill:rgb(0,0,1);"/>
<path d="M 230,78L 230,76L 229,75L 228,74L 225,73L 220,73L 218,74L 218,76L 220,78L 222.668,78.666L 224,79L 229,79Z" style="fill:rgb(0,0,1);"/>
<path d="M 94,226L 94,220L 93,220L 93,226Z" style="fill:rgb(107,107,106);"/>
<path d="M 263,201L 263,185L 262,185L 262,201Z" style="fill:rgb(107,107,106);"/>
<path d="M 181,278L 134,278L 134,279L 181,279Z" style="fill:rgb(235,187,136);"/>
<path d="M 180,208L 164,208L 164,209L 180,209Z" style="fill:rgb(235,187,136);"/>
<path d="M 186,207L 186,174L 185,174L 185,207Z" style="fill:rgb(235,187,136);"/>
<path d="M 211,276L 208,277L 208,278L 217,278L 217,277L 216,276Z" style="fill:rgb(235,187,136);"/>
<path d="M 221,173L 215,173L 215,174L 221,174Z" style="fill:rgb(235,187,136);"/>
<path d="M 235,278L 219,278L 219,279L 235,279Z" style="fill:rgb(235,187,136);"/>
<path d="M 266,278L 241,278L 241,279L 266,279Z" style="fill:rgb(235,187,136);"/>
<path d="M 211,276L 191,276L 191,277L 211,277Z" style="fill:rgb(54,54,53);"/>
<path d="M 280,132L 280,114L 279,114L 279,132Z" style="fill:rgb(54,54,53);"/>
<path d="M 121,132L 121,113L 120,113L 120,132Z" style="fill:rgb(166,166,165);"/>
<path d="M 139,208L 139,197L 138,197L 138,208Z" style="fill:rgb(166,166,165);"/>
<path d="M 166,81L 166,75L 165,75L 165,81Z" style="fill:rgb(166,166,165);"/>
<path d="M 205,24L 195,24L 195,25L 205,25Z" style="fill:rgb(166,166,165);"/>
<path d="M 208,267L 197,267L 197,268L 208,268Z" style="fill:rgb(166,166,165);"/>
<path d="M 208,81L 208,74L 207,74L 207,81Z" style="fill:rgb(166,166,165);"/>
<path d="M 139,186L 138,186L 138,197L 139,197Z" style="fill:rgb(235,222,206);"/>
<path d="M 168,279L 138,279L 138,280L 168,280Z" style="fill:rgb(235,222,206);"/>
<path d="M 150,169L 149,169L 149,206L 150,206Z" style="fill:rgb(235,222,206);"/>
<path d="M 212,174L 190,174L 190,175L 212,175Z" style="fill:rgb(235,222,206);"/>
<path d="M 199,277L 190,277L 190,278L 199,278Z" style="fill:rgb(235,222,206);"/>
<path d="M 262,279L 224,279L 224,280L 262,280Z" style="fill:rgb(235,222,206);"/>
<path d="M 307,215L 307,209L 306,209L 306,215Z" style="fill:rgb(235,222,206);"/>
<path d="M 130,165L 128,164L 125.4102,163.4648L 122.748,162.7988L 120,162L 117.332,161.334L 116,161L 113.332,160.334L 112,160L 109,160L 108,163L 108,164L 109,165L 110,165.332L 112,166L 115,166L 117.2563,165.4692L 119.6245,165.1997L 122.1262,165.3088L 124.7029,165.7302L 126,166L 130,166Z" style="fill:rgb(14,7,7);"/>
<path d="M 119.3223,209.1406L 119.752,206.3633L 120,205L 120,204L 118,204L 117,206L 117,209L 118,212L 119,212Z" style="fill:rgb(14,7,7);"/>
<path d="M 123,133L 124.2148,132.9297L 125.4282,132.9114L 126.6458,132.9489L 129.0999,133.1378L 131.6199,133.5585L 134.2563,134.2029L 137,135L 140,135L 142.002,133.3223L 144,132L 144,130L 136,130L 134.7813,130.2075L 132.3877,130.3735L 130.1221,129.9009L 128.0156,128.7349L 127,128L 125,128L 123.0039,128.5313L 121,129L 121,133Z" style="fill:rgb(14,7,7);"/>
<path d="M 134,167L 131.332,166.334L 130,166L 127.332,165.334L 126,165L 122,165L 122,166L 125,167L 127.7949,167.7744L 130.6357,168.6128L 133.5361,169.5269L 135,170L 136,170L 137,169L 137,168Z" style="fill:rgb(14,7,7);"/>
<path d="M 131,243L 131,240L 131,239L 131,237L 130,237L 128,238L 128,240L 129,242L 130,243Z" style="fill:rgb(14,7,7);"/>
<path d="M 138,202L 138,184L 137,184L 137,202Z" style="fill:rgb(14,7,7);"/>
<path d="M 142,256L 142,252L 140.666,250L 140,249L 139,249L 137,250L 137,252L 138,253L 139,254L 140,255L 141,256Z" style="fill:rgb(14,7,7);"/>
<path d="M 148,135L 146,134L 144,134L 141,135L 141,136L 148,136Z" style="fill:rgb(14,7,7);"/>
<path d="M 147,49L 146,47L 145,47L 144,49L 144,52L 146,52L 147,51Z" style="fill:rgb(14,7,7);"/>
<path d="M 161,270L 163,270L 164,267L 164,266L 162.7739,265.6187L 161.5737,265.1729L 159.228,264.1226L 157.0054,262.7244L 154.9368,260.9758L 153,259L 152,258.7656L 150,258.2656L 149,258L 146,258L 146,260L 148,262L 149.0039,262.7344L 151.0039,264.2344L 152,265L 154.5156,266.4844L 157,268L 159,269Z" style="fill:rgb(14,7,7);"/>
<path d="M 166,107L 167.2344,106.4688L 169.7344,105.4688L 171,105L 171,103L 169,103L 168,103L 167,103L 165.7061,103.2261L 163.0791,103.6187L 160.373,103.8926L 159,104L 157,105L 155.0127,106.248L 153.0078,107.4297L 152,108L 151,109L 150,110L 148,112L 148,114L 149,117L 150,118L 151,119L 152,119L 153.332,116.999L 154,116L 154.2207,114.894L 154.5801,113.8425L 155.6094,111.8896L 157.2412,110.296L 159.3545,109.1284L 161.7529,108.3265L 163,108Z" style="fill:rgb(14,7,7);"/>
<path d="M 160,137L 157.1406,136.6777L 154.3633,136.248L 153,136L 148,136L 148,137L 150.668,137.666L 152,138L 160,138Z" style="fill:rgb(14,7,7);"/>
<path d="M 178,125L 176.5195,124.5L 173.6094,123.5L 170.8438,122.5L 169.5488,122L 168.2764,121.5L 165.7764,120.5L 163.3877,119.5L 161.1455,118.5L 159.0322,117.5L 158,117L 155,116L 152,116L 152,120L 153.2295,120.3936L 155.5225,121.3057L 157.4258,122.5205L 158.2129,123.2603L 160,125L 161.2471,125.0786L 163.7686,125.3374L 166.3037,125.8394L 168.7822,126.5806L 170,127L 171,127L 172.3633,126.752L 175.1406,126.3223L 178,126Z" style="fill:rgb(14,7,7);"/>
<path d="M 160,256L 161,255L 161,254L 160,253L 159,252L 158,251L 157,250L 156,250L 155,251L 155,255L 156,256L 158,256L 159,256Z" style="fill:rgb(14,7,7);"/>
<path d="M 174,139L 171.332,138.334L 170,138L 161,138L 161,139L 164.3555,139.3223L 167.4961,139.752L 169,140L 174,140Z" style="fill:rgb(14,7,7);"/>
<path d="M 170,260L 168,259L 166,259L 164.668,259.334L 162,260L 162,261L 163,262L 168,262L 170,261Z" style="fill:rgb(14,7,7);"/>
<path d="M 170,272L 170,270L 169,269.334L 167,268L 163,268L 163,270L 164,271L 166.668,271.666L 168,272Z" style="fill:rgb(14,7,7);"/>
<path d="M 171,95L 172,94L 172,93L 171,92L 168,92L 168,95L 169,96L 170,96Z" style="fill:rgb(14,7,7);"/>
<path d="M 187,127L 185.7344,126.7656L 183.2344,126.2656L 182,126L 174,126L 172,127L 172,128L 175.3555,128.3223L 178.4961,128.752L 180,129L 187,129Z" style="fill:rgb(14,7,7);"/>
<path d="M 180.4688,96.7656L 177.4688,96.2656L 176,96L 174,96L 174,97L 175,99L 176,100L 181,100L 182,98L 182,97Z" style="fill:rgb(14,7,7);"/>
<path d="M 176.9961,141.002L 180.957,141.0215L 184.7813,141.1094L 188.3125,141.3438L 191.4922,141.7539L 193,142L 207,142L 207,141L 205,140L 200,140L 197.3789,139.998L 193.918,139.9785L 190.2188,139.8906L 186.6875,139.6563L 183.5078,139.2461L 182,139L 176,139L 175,140L 175,141Z" style="fill:rgb(14,7,7);"/>
<path d="M 180,80L 181,79L 181,77L 180,75L 179,74L 178,74L 178,79L 179,80Z" style="fill:rgb(14,7,7);"/>
<path d="M 181,86L 184,86L 184,84L 183,82L 182,82L 180,84L 180,85Z" style="fill:rgb(14,7,7);"/>
<path d="M 194,131L 192,129L 188,129L 186,130L 186,131L 187.334,131.666L 190,133L 192,133L 194,132Z" style="fill:rgb(14,7,7);"/>
<path d="M 211,25L 200,25L 200,26L 211,26Z" style="fill:rgb(14,7,7);"/>
<path d="M 223,141L 224.5078,140.7539L 227.6836,140.3418L 231.1758,140.0879L 233,140L 233,139L 232,138L 231,138L 229.4922,138.2461L 226.3438,138.6563L 223,138.8906L 219.6484,138.9805L 218,139L 216.4922,139.2461L 213.3164,139.6582L 209.8242,139.9121L 208,140L 208,141Z" style="fill:rgb(14,7,7);"/>
<path d="M 219,101L 218,101L 216,101L 214,101L 212.7656,101.2656L 210.2656,101.7656L 209,102L 209,103L 219,103Z" style="fill:rgb(14,7,7);"/>
<path d="M 220,78L 220,76L 218,74L 216,74L 214,75L 214,80L 215,80L 217.4688,78.9688Z" style="fill:rgb(14,7,7);"/>
<path d="M 227,124L 226,124L 223.8398,125.0078L 221.4688,125.9102L 218.8242,126.5703L 216,127L 214,128L 214,129L 220,129L 221.2939,128.7739L 223.9209,128.3813L 226.627,128.1074L 228,128L 228,126Z" style="fill:rgb(14,7,7);"/>
<path d="M 220,274L 221,273L 221,272L 216,272L 215,274L 215,275L 219,275Z" style="fill:rgb(14,7,7);"/>
<path d="M 239,270L 241,269L 241,267L 236,267L 233.9648,267.9746L 231.8516,268.8555L 230.7266,269.1836L 228.4395,269.6885L 226.1387,269.9326L 225,270L 224,271L 223,272L 222,273L 222,274L 228,274L 231,273L 234,272L 237,271Z" style="fill:rgb(14,7,7);"/>
<path d="M 243.0015,117.1301L 240.9585,118.3542L 238.8196,119.3771L 236.4922,120.2402L 234,121L 231.5313,122L 229,123L 227,124L 227,126L 228,127L 230,127L 232.0039,126L 233.0215,125.5L 235.1074,124.502L 237.334,123.5215L 239.752,122.6113L 242.3613,121.8633L 245.1309,121.3438L 248,121L 249,120L 249.7739,119L 251.3813,117L 253.1074,115L 254,114L 254,113L 252,112L 250,111L 249,111L 248.0247,112.3151L 246.0448,114.6574L 244.0209,116.4074Z" style="fill:rgb(14,7,7);"/>
<path d="M 231,102L 230,102L 228,103L 228,104L 229,105L 234,105L 234,104L 233,103.334Z" style="fill:rgb(14,7,7);"/>
<path d="M 232,63L 235,62L 235,61L 234,60L 233,59L 231,59L 230,60L 230,62L 231,63Z" style="fill:rgb(14,7,7);"/>
<path d="M 242,139L 243.2344,138.7344L 245.7344,138.2344L 248.5039,137.752L 251.6445,137.3223L 255,137L 255,136L 244,136L 241.3379,136.6494L 238.6406,137.2305L 235.8613,137.6768L 233,138L 233,139Z" style="fill:rgb(14,7,7);"/>
<path d="M 242,109L 243,106L 243,105L 241.6641,104.668L 239,104L 235,104L 235,106L 237.668,107.332L 239,108L 241,109Z" style="fill:rgb(14,7,7);"/>
<path d="M 239,255L 238,255L 236,256.334L 235,257L 234,258L 234,259L 235,261L 237,261L 239,260Z" style="fill:rgb(14,7,7);"/>
<path d="M 246,265L 244,264L 242,263L 241,263L 240,265L 240,266L 241,268L 242,268L 244,267L 246,266Z" style="fill:rgb(14,7,7);"/>
<path d="M 249,112L 249,107L 247,106L 244,106L 242,107L 242,109L 244,110L 246,111L 248,112Z" style="fill:rgb(14,7,7);"/>
<path d="M 252,262L 252,260L 251,259L 249,259L 248,260L 247,261L 246,262L 246,266L 247,266L 248,265.2344L 250,263.7344L 251,263Z" style="fill:rgb(14,7,7);"/>
<path d="M 262,173L 263.084,172.4912L 265.4121,171.624L 268,171L 269.332,168.998L 270,168L 270,167L 266,167L 263,168L 261,169L 261,173Z" style="fill:rgb(14,7,7);"/>
<path d="M 279,129L 278,128L 276,128L 273,128.5313L 270,129L 269.0391,129.8613L 266.9648,131.3164L 264.5859,132.291L 262,133L 262,134L 267,134L 269.4844,133.9531L 272,134L 274,134L 275.2344,133.7344L 277.7344,133.2344L 279,133Z" style="fill:rgb(14,7,7);"/>
<path d="M 282,166L 283,165L 283,164L 279,164L 277.6094,164.4219L 274.8945,165.1758L 272.2852,165.7539L 271,166L 271,167L 273,168L 274,168L 275.3906,167.5781L 278.1055,166.8242L 280.7148,166.2461Z" style="fill:rgb(14,7,7);"/>
<path d="M 284,212L 284,207L 283,206L 281,206L 281,209L 282,212Z" style="fill:rgb(14,7,7);"/>
<path d="M 289,160L 287,162L 287,163L 288.5293,164.9902L 289.9707,166.9922L 291.332,168.998L 292,170L 293,170L 294,168L 294,166L 293,163L 292,161L 291,160Z" style="fill:rgb(14,7,7);"/>
<path d="M 307,229L 307,221L 306,221L 305,223L 305,224L 305.2656,225.2344L 305.7656,227.7344L 306,229Z" style="fill:rgb(14,7,7);"/>
<path d="M 97,233L 95.4688,231.0313L 94,229L 93,229L 92,230L 92,234L 93,236L 95,237L 97,237Z" style="fill:rgb(248,247,242);"/>
<path d="M 120,135L 120,131L 119,130L 118,130L 116,132L 115,133L 114.6367,134.0469L 113.7695,136.25L 112.5469,138.6094L 111,141L 110.832,144.5234L 110.3672,147.5938L 109.3945,150.0234L 108,152L 107,154L 106.334,156.668L 106,158L 106,161L 108,162L 109,162L 110,160L 110.5,158.7344L 111.5,156.2344L 112,155L 112.5,153.7344L 113.5,151.2344L 114,150L 114.5,148.7344L 115.5,146.2344L 116,145L 116.5,143.7344L 117.5,141.2344L 118,140L 118.5,138.7344L 119.5,136.2344Z" style="fill:rgb(248,247,242);"/>
<path d="M 119,212L 118,209L 117,209L 116,210L 116,213L 116,215L 116,217L 118,217L 119,216Z" style="fill:rgb(248,247,242);"/>
<path d="M 116,217L 117,215L 117,213L 116,212L 115,212L 114,213L 114,216L 115,217Z" style="fill:rgb(248,247,242);"/>
<path d="M 143,257L 142,256L 141,255L 138,255L 137,255L 135,255L 133.1914,256.0371L 131.2236,256.6147L 129.125,256.5391L 127,256L 126,256L 125.751,257.5234L 125.3745,258.875L 124.8625,260.0469L 123.5901,262.082L 121.9038,263.6426L 120,265L 119,267L 118,270L 118,276L 119,278L 120,279L 121.2656,279.5L 123.7656,280.5L 125,281L 129,281L 131.4844,280.9531L 134,281L 140,281L 143.9961,281.002L 147.957,281.0215L 151.7813,281.1094L 155.3125,281.3438L 158.4922,281.7539L 160,282L 164,282L 165.5078,281.7539L 168.6836,281.3457L 172.1758,281.1309L 175.8242,281.1309L 179.3164,281.3457L 182.4922,281.7539L 184,282L 185,282L 186,282L 192,282L 193.1797,281.5898L 195.7109,280.8633L 198.6172,280.3672L 201.8359,280.1328L 205.168,280.1309L 208.4258,280.3457L 209.9668,280.5498L 211.4307,280.7681L 214.2129,281.2275L 216.7656,281.7344L 218,282L 225,282L 226.5039,281.7559L 229.6445,281.3652L 233,281.2188L 236.3555,281.3652L 239.4961,281.7559L 241,282L 256,282L 257.5078,281.7539L 260.6875,281.3438L 264.2188,281.1094L 266.1309,281.0654L 268.0771,281.0386L 272.0127,281.0063L 276.001,281.0005L 280,281L 281,280L 281.5,278.7344L 282.5,276.2344L 283,275L 283,270L 282,268L 280.666,266L 280,265L 279,264L 278,263L 276,262L 273,262L 273,263L 274,265L 274.8958,265.9006L 275.7049,266.7722L 277.1294,268.5363L 278.0714,270.4098L 278.1424,271.8939L 277.8924,273.0685L 276.8619,274.9962L 274.9407,276.2791L 272.3866,277.141L 269.3459,277.6663L 266,278L 263.2988,278.6494L 260.457,279.2285L 257.3105,279.6553L 253.7813,279.8906L 249.957,279.9785L 245.9961,279.998L 243.998,279.999L 240.0039,279.998L 236.043,279.9785L 232.2188,279.8906L 228.6875,279.6563L 227.0977,279.4512L 225.6055,279.2324L 222.791,278.7725L 220.2344,278.2656L 219,278L 215.7617,277.8926L 212.5625,277.6563L 209.4922,277.2461L 208,277L 199,277L 197.4922,277.2461L 194.3125,277.6563L 190.7813,277.8906L 186.957,277.9785L 182.9961,277.998L 181,278L 179.4922,278.2461L 176.3438,278.6563L 173,278.8906L 169.6484,278.9805L 168,279L 166.4922,279.2461L 163.3125,279.6563L 159.7813,279.8906L 157.8691,279.9346L 153.9805,279.9863L 150.041,279.9775L 146.2188,279.8906L 144.4531,279.7734L 141.1113,279.4443L 138.1133,278.9434L 135.3457,278.3271L 134,278L 132.3438,277.7944L 130.7444,277.5311L 127.7112,276.8405L 126.4194,276.296L 125.3056,275.6356L 124.401,274.8706L 123.053,273.1693L 122.9261,270.229L 123.8144,268.3268L 124.5481,267.487L 126.1994,265.9333L 128.1829,264.578L 130.4396,263.3239L 132.8855,262.1368L 135.4229,261.0352L 138,260L 140.4688,259L 143,258Z" style="fill:rgb(248,247,242);"/>
<path d="M 122,106L 120,106L 120,113L 121,113L 121.2344,111.7344L 121.7344,109.2344L 122,108Z" style="fill:rgb(248,247,242);"/>
<path d="M 127,82L 127,79L 126,77L 125,77L 124.334,79.668L 124,81L 124,83L 125,85L 126,85Z" style="fill:rgb(248,247,242);"/>
<path d="M 131,71L 132,69L 132,63L 131,63L 130,64L 130,71Z" style="fill:rgb(248,247,242);"/>
<path d="M 137,59L 138,58L 138,56L 137,54L 136,54L 134,56L 134,57L 135,58L 136,59Z" style="fill:rgb(248,247,242);"/>
<path d="M 140,254L 139,253L 138,252L 135,252L 135,255L 137,256L 138,256L 140,255Z" style="fill:rgb(248,247,242);"/>
<path d="M 149,169L 146.332,168.334L 145,168L 140,168L 140,170L 141,172L 142.0176,172.5049L 143.9648,173.7129L 145.6523,175.3887L 146.9707,177.5474L 148,180L 149,180Z" style="fill:rgb(248,247,242);"/>
<path d="M 150,241L 150,234L 149,234L 148,235L 147,236L 147,238L 148,240L 149,241Z" style="fill:rgb(248,247,242);"/>
<path d="M 149,44L 151,42.666L 152,42L 152,39L 149,39L 148,41L 148,44Z" style="fill:rgb(248,247,242);"/>
<path d="M 149,196L 149,183L 148,183L 148,196Z" style="fill:rgb(248,247,242);"/>
<path d="M 153,206L 150,206L 149,208L 149,209L 150.8242,209.0879L 154.3164,209.3418L 157.4922,209.7539L 159,210L 161,210L 164,209L 164,208L 162.5703,207.8389L 159.752,207.4561L 157.0137,206.9443L 154.332,206.3271Z" style="fill:rgb(248,247,242);"/>
<path d="M 156,249L 156.666,246.332L 157,245L 157,244L 156,243L 155,243L 153,244L 153,247L 154,248L 155,249Z" style="fill:rgb(248,247,242);"/>
<path d="M 186,207L 185,207L 183.7656,207.2656L 181.2656,207.7656L 178.4922,208.2461L 175.3125,208.6563L 171.7813,208.8906L 167.957,208.9785L 164.2461,208.998L 161,209L 160,210L 160,211L 163.3555,211.3223L 166.4961,211.752L 168,212L 169,212L 171.4297,211.8594L 173.8184,211.9131L 175,212L 176,212L 177.5039,211.752L 180.6445,211.3223L 184,211L 186,210Z" style="fill:rgb(248,247,242);"/>
<path d="M 160,254L 161,255L 162,256L 163,256L 163,252L 162,251L 160,251Z" style="fill:rgb(248,247,242);"/>
<path d="M 166,257L 166,253L 163,253L 163,256L 164,257Z" style="fill:rgb(248,247,242);"/>
<path d="M 172,91L 172,88L 170,88L 169,89L 169,91L 170,92L 171,92Z" style="fill:rgb(248,247,242);"/>
<path d="M 171,262L 175,262L 175,259L 173,259L 170,260L 170,261Z" style="fill:rgb(248,247,242);"/>
<path d="M 187,63L 188,62L 188,61L 186.666,59L 186,58L 184,57L 174,57L 173,58L 173,61L 176.1272,61.0127L 178.4941,61.103L 181.0298,61.4106L 183.5659,62.063L 186,63Z" style="fill:rgb(248,247,242);"/>
<path d="M 177,97L 178,95L 178,94L 177,93L 176,93L 173,94L 173,95L 174,95.666L 176,97Z" style="fill:rgb(248,247,242);"/>
<path d="M 177,264L 179,264L 179,261L 178,260L 175,260L 174,262L 174,263Z" style="fill:rgb(248,247,242);"/>
<path d="M 183,86L 178,86L 178,87L 179,88L 183,88Z" style="fill:rgb(248,247,242);"/>
<path d="M 187,89L 187,86L 183,86L 181,88L 181,89Z" style="fill:rgb(248,247,242);"/>
<path d="M 188,93L 189,92L 189,89L 188,88L 187,88L 186,89L 186,93Z" style="fill:rgb(248,247,242);"/>
<path d="M 186,174L 186,208L 188,208L 188,196L 188.001,194.002L 188.0083,192.0146L 188.0605,188.0996L 188.2637,184.416L 188.7915,181.2178L 189.7837,178.7041L 191.2031,176.8164L 192,176L 192,175L 190,174Z" style="fill:rgb(248,247,242);"/>
<path d="M 190,83L 189,82L 188,82L 187.334,83L 186,85L 186,86L 187,88L 188,89L 189,89L 190,86Z" style="fill:rgb(248,247,242);"/>
<path d="M 193,83L 193,74L 192,74L 192,83Z" style="fill:rgb(248,247,242);"/>
<path d="M 204,175L 195,175L 195,176L 204,176Z" style="fill:rgb(248,247,242);"/>
<path d="M 213,82L 212.332,81.001L 211,79L 209,79L 208,80L 208,86L 210,86L 213,85Z" style="fill:rgb(248,247,242);"/>
<path d="M 236,172L 227,172L 225.5313,172.2656L 222.5313,172.7656L 221,173L 219.5547,173.2461L 216.6055,173.6582L 213.5508,173.9121L 212,174L 210.668,174.334L 208,175L 208,176L 222,176L 224,176L 229,176L 230.4688,175.7344L 233.4688,175.2344L 235,175L 236,173Z" style="fill:rgb(248,247,242);"/>
<path d="M 208,80L 209,80L 210,79L 210,74L 209,74L 208,75Z" style="fill:rgb(248,247,242);"/>
<path d="M 212,91L 212,86L 211,85L 210,85L 209,86L 209,89L 210,90L 211,91Z" style="fill:rgb(248,247,242);"/>
<path d="M 214,81L 214,75L 212,75L 211,78L 211,82L 213,82Z" style="fill:rgb(248,247,242);"/>
<path d="M 212,93L 213,94L 214,95L 216,96L 217,96L 218,93L 218,92L 217,91L 216,90L 214,90L 212,91Z" style="fill:rgb(248,247,242);"/>
<path d="M 227,58L 226,57L 223,57L 223,59L 224,60L 227,60Z" style="fill:rgb(248,247,242);"/>
<path d="M 232,63L 230.666,61L 230,60L 229,59L 227,59L 225,60L 223,61L 223,62L 224,62.666L 226,64L 227,64L 229,64L 232,64Z" style="fill:rgb(248,247,242);"/>
<path d="M 230,258L 230,257L 230,256L 228,256L 226,257L 226,258L 227,260L 229,260L 230,259Z" style="fill:rgb(248,247,242);"/>
<path d="M 228,30L 231,31L 232,31L 234,29L 234,28L 231,27L 228,27Z" style="fill:rgb(248,247,242);"/>
<path d="M 235,81L 235,73L 234,73L 233,75L 233,81Z" style="fill:rgb(248,247,242);"/>
<path d="M 240,255L 241,254L 242,253L 242,252L 241,251L 240,251L 239,251L 237,251L 236,252L 235,253L 235,255L 237,256L 238,256Z" style="fill:rgb(248,247,242);"/>
<path d="M 243,171L 236,171L 236,173L 237,174L 239,174L 242,174L 245,174L 245,173Z" style="fill:rgb(248,247,242);"/>
<path d="M 261,171L 261,168L 256,168L 254.5313,168.2656L 251.5313,168.7656L 250,169L 248.6367,169.248L 245.8594,169.6777L 243,170L 243,172L 253,172L 254.4297,171.7314L 257.2051,171.2979L 259.7754,171.0664Z" style="fill:rgb(248,247,242);"/>
<path d="M 255,236L 256,233L 256,230L 255,230L 253,231L 253,237L 254,237Z" style="fill:rgb(248,247,242);"/>
<path d="M 274,263L 273,261L 272,260L 271,259.334L 269,258L 268,257.5L 265.8926,256.3555L 263.8262,254.8516L 262,253L 261,253L 260,254L 259,255L 258,256L 257,257L 257,258L 259.9346,259L 261.3481,259.5L 264.0732,260.5L 266.5732,261.5L 268.8481,262.5L 270.9673,263.5L 272,264L 274,264Z" style="fill:rgb(248,247,242);"/>
<path d="M 265,254L 265,250L 264,250L 263,251L 262,252L 262,256L 263,256L 264,255Z" style="fill:rgb(248,247,242);"/>
<path d="M 267,248L 266,248L 265,249L 265,253L 266,253L 267,253L 268,253L 268,251Z" style="fill:rgb(248,247,242);"/>
<path d="M 274,75L 274,71L 273,70L 272,70L 271,71L 270,72L 270,73L 270.668,74.333L 272,77L 273,77Z" style="fill:rgb(248,247,242);"/>
<path d="M 282,259L 281,259L 279,260L 279,261L 281,263L 284,263L 284,260Z" style="fill:rgb(248,247,242);"/>
<path d="M 281,134L 281,116L 280,116L 280,134Z" style="fill:rgb(248,247,242);"/>
<path d="M 281,136L 281.5,137.2539L 282.5,139.8418L 283.5,142.5879L 284,144L 284.5,145.0898L 285.5,147.3633L 286.5,149.8633L 287.5,152.5898L 288,154L 289,156.1758L 290,158.5078L 291,161L 292,163L 293,163L 294,162L 294,155L 293.332,154.002L 292.6387,152.9463L 291.9336,151.8345L 290.5469,149.5293L 289.292,147.124L 288.292,144.7173L 287.5605,142.3457L 286.9971,139.8657L 286.6055,137.1758L 286.6035,134.5078L 287,132L 287,131L 286,130L 285,130L 283,130L 282,130L 281.334,132.668L 281,134Z" style="fill:rgb(248,247,242);"/>
<path d="M 297,230L 297,228L 296,226L 295,225L 294,224L 293,224L 292,226L 292,227L 293,228L 294,229L 295,230Z" style="fill:rgb(248,247,242);"/>
<path d="M 302,232L 300,230.5156L 298,229L 297,229L 296,230L 296,231L 297,233L 298,234L 299,235L 301,235L 302,233Z" style="fill:rgb(248,247,242);"/>
<path d="M 308,226L 308,215L 306,215L 306,216L 306.2461,217.5078L 306.6582,220.6836L 306.9121,224.1758L 307,226Z" style="fill:rgb(248,247,242);"/>
<path d="M 118,140L 117,140L 116,142L 115.5,143.2656L 114.5,145.7656L 114,147L 113.5,148.2656L 112.5,150.7656L 112,152L 111.5,153.2656L 110.5,155.7656L 110,157L 110,160L 112,161L 114.668,161.666L 116,162L 120,162L 120,161L 118.999,160.4756L 117.0898,159.3154L 116.3408,158.5706L 115.2278,156.8594L 114.9092,154.7644L 115.2803,152.4736L 116.0601,150.1973L 117,148L 118,145Z" style="fill:rgb(193,45,49);"/>
<path d="M 121,132L 120,132L 119.5,133.2656L 118.5,135.7656L 118,137L 118,141L 119,141L 119.5234,140.0215L 120.6504,138.1309L 122.043,136.4531L 123.8516,135.0977L 126,134L 126,133L 124.7344,132.7656L 122.2344,132.2656Z" style="fill:rgb(193,45,49);"/>
<path d="M 146.2656,169.2344L 148.7656,169.7344L 150,170L 151,170L 151,168L 150,167L 149,166L 147.4219,165.9453L 144.2559,165.7627L 141.1973,165.3857L 138.4531,164.7734L 136,164L 134.4688,163.7656L 131.4688,163.2656L 128.7344,162.7656L 126.2344,162.2656L 125,162L 120,162L 120,163L 123,164L 125.5313,164.4902L 128.082,165.0449L 130.6836,165.6719L 132,166L 134.5898,166.5352L 137.252,167.2012L 140,168L 141.2656,168.2344L 143.7656,168.7344L 145,169Z" style="fill:rgb(193,45,49);"/>
<path d="M 126,134L 126,135L 127,136L 128.2656,136.2344L 130.7656,136.7344L 132,137L 133.2656,137.2344L 135.7656,137.7344L 137,138L 144,138L 144,137L 141.332,136.334L 140,136L 137.4688,135.5098L 134.918,134.9551L 132.3164,134.3281L 131,134Z" style="fill:rgb(193,45,49);"/>
<path d="M 150,138L 144,138L 144,139L 146.668,139.666L 148,140L 149.5313,140.2344L 152.5313,140.7344L 154,141L 155.5313,141.2344L 158.5313,141.7344L 160,142L 161.5508,142.0879L 164.6055,142.3418L 167.5547,142.7539L 169,143L 172.2383,143.1074L 175.4375,143.3438L 178.5078,143.7539L 180,144L 220,144L 221.5078,143.7539L 224.6563,143.3438L 228,143.1094L 231.3516,143.0195L 233,143L 234.2344,142.7344L 236.7344,142.2344L 239.5039,141.752L 242.6445,141.3223L 246,141L 247.2344,140.7344L 249.7344,140.2344L 251,140L 252.2344,139.7344L 254.7344,139.2344L 256,139L 256,138L 250,138L 248.7656,138.2656L 246.2656,138.7656L 243.5547,139.2461L 240.6055,139.6582L 237.5508,139.9121L 236,140L 234.4961,140.248L 231.3555,140.6777L 228,141L 226.4922,141.2461L 223.3438,141.6563L 220,141.8906L 216.6484,141.9805L 215,142L 213.4922,142.2461L 210.3125,142.6563L 206.8438,142.8906L 203.2734,142.9766L 199.7266,142.9766L 196.1563,142.8906L 192.6875,142.6563L 189.5078,142.2461L 188,142L 184.043,141.9785L 180.2188,141.8906L 176.6875,141.6563L 173.5078,141.2461L 172,141L 168.6445,140.6777L 165.5039,140.248L 164,140L 161.1406,139.6777L 158.3633,139.248L 157,139L 154.1406,138.6777L 151.3633,138.248Z" style="fill:rgb(193,45,49);"/>
<path d="M 185,208L 185,173L 184,173L 183,174L 183,177L 183.2461,178.5078L 183.6563,181.6875L 183.7734,183.4219L 183.9326,186.9395L 183.9668,190.4805L 183.8896,193.9707L 183.6484,197.3359L 183.1465,200.3926L 182.2129,202.9668L 180.5781,204.9219L 179.3145,205.541L 176.3965,206.4561L 174.6416,206.645L 171.0381,206.8491L 167.4238,206.7485L 164.0479,206.3848L 160.9453,205.7734L 159.4727,205.3867L 156.8633,204.6172L 154.8184,203.5703L 153.3398,201.7949L 152.498,199.1367L 152.1348,195.7539L 152.0234,191.9551L 152.002,187.9961L 152,184L 152,170L 151,170L 151,206L 153,207L 155.668,207.666L 157,208Z" style="fill:rgb(193,45,49);"/>
<path d="M 291,160L 291,158L 290.5,156.9102L 289.5,154.6367L 288.5,152.1367L 287.5,149.4102L 287,148L 286.5,146.9102L 285.5,144.6367L 284.5,142.1367L 283.5,139.4102L 283,138L 282,136L 281,134L 280,132L 279,132L 277.7656,132.2656L 275.2656,132.7656L 274,133L 271.3633,133.6543L 268.7949,134.2529L 266.2656,134.7656L 265,135L 262.3633,135.6543L 259.7949,136.2529L 257.2656,136.7656L 256,137L 256,138L 264,138L 265.3906,137.5781L 266.748,137.2012L 268.085,136.8752L 270.738,136.3477L 272.0427,136.2487L 274.5837,136.3154L 275.7362,136.6508L 277.842,137.6384L 278.6886,138.4033L 280.198,140.0994L 281.4002,142.0501L 282.3965,144.1792L 283.245,146.5076L 284,149L 284.4766,150.0859L 285.3418,152.3184L 285.6074,153.4707L 285.7969,155.71L 285.1699,157.6865L 283.6191,159.2295L 281.3223,160.3516L 278.5635,161.1572L 275.5508,161.7471L 274,162L 272.8242,162.4121L 270.3164,163.1582L 267.4922,163.7461L 266,164L 263.3633,164.6543L 260.7949,165.2529L 258.2656,165.7656L 255.5313,166.2656L 252.5313,166.7656L 251,167L 249.5313,167.2656L 246.5313,167.7656L 245,168L 243.4961,168.248L 240.3555,168.6777L 237,169L 235.4961,169.248L 232.3555,169.6777L 229,170L 227.5078,170.2461L 224.4375,170.6563L 221.2383,170.8926L 218,171L 216.4922,171.2461L 213.3125,171.6563L 209.7813,171.8906L 205.957,171.9785L 201.9961,171.998L 198,172L 185,172L 185,173L 227,173L 228.4453,172.7539L 231.3945,172.3418L 234.4492,172.0879L 236,172L 237.3633,171.752L 240.1406,171.3223L 243,171L 244.3633,170.752L 247.1406,170.3223L 250,170L 251.4688,169.7344L 254.4688,169.2344L 256,169L 257.2344,168.7344L 259.7344,168.2344L 261,168L 262.4141,167.5703L 263.8184,167.1611L 266.5703,166.3965L 269.1934,165.7549L 271.7344,165.2344L 273,165L 274.332,164.666L 277,164L 278.332,163.666L 281,163L 282.332,162.666L 285,162L 288,161Z" style="fill:rgb(193,45,49);"/>
<path d="M 126.668,275.666L 128,276L 129.5313,276.2344L 132.5313,276.7344L 134,277L 174,277L 174,276L 173,275L 171,274L 168,273L 166.7744,272.6128L 165.5811,272.2095L 163.2668,271.3646L 161.0923,270.4343L 159.0225,269.3989L 157.0034,268.2444L 155,267L 154,266.4297L 153,265.8389L 152,265.228L 151,264.5996L 149,263.3096L 147,261.949L 145,260.5073L 143,259L 142,259L 139.8242,260L 137.4922,261L 135,262L 133.8594,262.624L 131.4961,263.8389L 129,265L 128,265.7656L 126,267.2656L 125,268L 124,269L 123,270L 123,274L 124,275Z" style="fill:rgb(248,174,10);"/>
<path d="M 157,115.7344L 159,117.2344L 160,118L 162.4521,119L 164.7852,120L 167,121L 170,122L 173,123L 176,124L 178.668,124.666L 180,125L 182.5898,125.5352L 185.252,126.2012L 188,127L 212,127L 213.3906,126.5781L 216.1055,125.8242L 218.7148,125.2461L 220,125L 221.332,124.666L 224,124L 227,123L 230,122L 231.0898,121.5L 233.3633,120.5L 235.8633,119.5L 238.5898,118.5L 240,118L 242,117L 244,115.666L 245,115L 246,114L 246,113L 245,112L 244,111L 243,110L 240,109L 237,108L 235.7344,107.7656L 233.2344,107.2656L 232,107L 229.1406,106.6777L 226.3633,106.248L 225,106L 222.1406,105.6777L 219.3633,105.248L 218,105L 183,105L 181.6367,105.248L 178.8594,105.6777L 176,106L 174.6367,106.248L 171.8594,106.6777L 169,107L 167.668,107.334L 165,108L 163.668,108.334L 161,109L 158,110L 156,111L 155,112L 155,114L 156,115Z" style="fill:rgb(248,174,10);"/>
<path d="M 229,277L 230.5313,277.2344L 233.5313,277.7344L 235,278L 239,278L 240.5078,277.7539L 243.6875,277.3438L 247.2188,277.1094L 251.043,277.0215L 255.0039,277.002L 259,277L 269,277L 272,276L 275,275L 277,274L 277,270L 276,269L 275,268L 274,267L 273,266L 272,265L 270.5898,264.4824L 267.8613,263.4102L 265.3438,262.2461L 263,261L 260,260L 256,260L 254,261.334L 253,262L 251,263.4521L 249,264.7852L 247,266L 244.8184,267.3555L 243.6689,268.0078L 241.3032,269.2637L 240.0566,269.8403L 237.4951,270.9492L 234.7871,271.9897L 231.9373,272.999L 229,274L 227,275L 227,276Z" style="fill:rgb(248,174,10);"/>
<path d="M 151,206L 151,170L 150,170L 150,206Z" style="fill:rgb(185,112,74);"/>
<path d="M 215,173L 185,173L 185,174L 215,174Z" style="fill:rgb(185,112,74);"/>
<path d="M 197,103L 187,103L 187,104L 197,104Z" style="fill:rgb(185,112,74);"/>
<path d="M 221,103L 204,103L 204,104L 221,104Z" style="fill:rgb(185,112,74);"/>
<path d="M 214,128L 205,128L 205,129L 214,129Z" style="fill:rgb(185,112,74);"/>
<path d="M 115.4521,160.5479L 117.7852,161.2148L 120,162L 121.2656,162.2344L 123.7656,162.7344L 125,163L 126.2656,163.2344L 128.7656,163.7344L 130,164L 132.9043,164.5479L 135.5703,165.2148L 138,166L 139.6758,166.1631L 141.2813,166.3652L 142.7969,166.6211L 145.6162,167.271L 147.9565,168.2673L 149.731,169.7649L 150.917,171.9155L 151.584,174.7754L 151.8813,178.2295L 151.978,182.0435L 151.998,186.0039L 152,190L 152,204L 153,205L 155.5898,205.5352L 158.252,206.2012L 161,207L 183,207L 183.2344,205.7344L 183.7344,203.2344L 184,202L 184,191L 184.002,189.0049L 184.0234,185.0527L 184.1367,181.2734L 184.5195,177.918L 185.4531,175.2754L 187.207,173.5078L 189.8633,172.5469L 193.2461,172.1445L 197.0449,172.0244L 201.0039,172.002L 205,172L 218,172L 219.4922,171.7539L 222.5625,171.3438L 225.7617,171.1074L 229,171L 230.5039,170.752L 233.6445,170.3223L 237,170L 238.5039,169.752L 241.6445,169.3223L 245,169L 246.4688,168.7344L 249.4688,168.2344L 251,168L 252.4688,167.7344L 255.4688,167.2344L 257,167L 258.2344,166.7344L 260.7344,166.2344L 262,166L 264.6973,165.3486L 267.5,164.75L 270.4707,164.2354L 272,164L 273.1758,163.5879L 275.6836,162.8418L 278.5078,162.2539L 280,162L 281.4141,161.5703L 284.2227,160.752L 287,160L 288,159L 288,156L 287,153L 286.5176,151.9648L 285.5898,149.8203L 284.7539,147.4922L 284,145L 283,142.9609L 282,140.8203L 281,138.4922L 280,136L 279,135L 276,134L 275,134L 273.6094,134.4219L 270.8945,135.1758L 268.2852,135.7539L 267,136L 265.5469,136.4102L 262.5664,137.1387L 259.3828,137.6563L 256,138L 254.7656,138.2656L 252.2656,138.7656L 251,139L 249.7656,139.2656L 247.2656,139.7656L 244.4961,140.248L 241.3555,140.6777L 238,141L 236.7656,141.2656L 234.2656,141.7656L 231.4922,142.2461L 228.3438,142.6563L 225,142.8906L 221.6484,142.9805L 220,143L 218.4922,143.2461L 215.3125,143.6563L 211.7813,143.8906L 207.957,143.9785L 203.9961,143.998L 200,144L 196.0039,143.998L 192.043,143.9785L 188.2188,143.8906L 184.6875,143.6563L 181.5078,143.2461L 180,143L 176.7617,142.8926L 173.5625,142.6563L 170.4922,142.2461L 169,142L 167.4492,141.9121L 164.3945,141.6582L 161.4453,141.2461L 160,141L 158.4688,140.7656L 155.4688,140.2656L 154,140L 150.9805,139.5098L 148.0898,138.9551L 145.3438,138.3281L 144,138L 141.1406,137.6777L 138.3633,137.248L 135.7344,136.7656L 134.4844,136.5156L 133.2324,136.2539L 130.7422,135.6738L 128.3223,134.9258L 126,134L 122,134L 121,135L 120,137L 119,139L 118,141L 117.6128,142.3428L 116.8062,144.9785L 115.927,147.4771L 114.981,149.8008L 114,152L 113,155L 113,160Z" style="fill:rgb(231,31,31);"/>
<path d="M 173,272L 170.4658,271.5054L 169.1841,271.2146L 167.8916,270.8921L 166.5986,270.5377L 164.0369,269.7629L 161.5676,268.8435L 159.2512,267.7448L 157.0826,266.4448L 155,265L 152,264L 150,264L 150,265L 151,266L 152,266.5703L 154,267.752L 156,269L 158,270L 160,271L 162,272L 164,273L 165.0059,273.6919L 164.7705,276.1643L 161.8721,276.9004L 157.9922,276.9941L 154,277L 150.0039,276.998L 146.043,276.9785L 142.2188,276.8906L 138.6875,276.6563L 135.5078,276.2461L 134,276L 132.5049,275.7393L 131.0776,275.4297L 129.7522,275.0176L 127.4094,273.9304L 126.0164,272.25L 126.0779,270.1228L 126.7731,269.1053L 128.511,267.2765L 130.6808,265.8081L 132.9039,264.5756L 134,264L 135,263L 135,261L 133,261L 130,262L 129,262.624L 127,263.8389L 125,265L 124,266L 123,267L 122,268L 121,269L 120,271L 120,274L 121,276L 123,277L 126,278L 190,278L 191,277L 191,276L 187.6445,275.6777L 186.0742,275.4629L 183.1133,275.0049L 180.4492,274.4883L 177.918,273.8477L 175.4336,273.0039Z" style="fill:rgb(228,176,58);"/>
<path d="M 143,258L 140,258L 137.5313,259L 135,260L 135,262L 138,262L 140,261L 142,260L 143,259Z" style="fill:rgb(228,176,58);"/>
<path d="M 151,264L 151,262L 148.999,260.668L 148,260L 146,259L 144,258L 143,258L 143,260L 144,261L 145,262L 146,262.666L 148,264Z" style="fill:rgb(228,176,58);"/>
<path d="M 239,108L 239,106L 236.332,105.334L 235,105L 233.4688,104.7656L 230.4688,104.2656L 229,104L 224,104L 220.0039,103.998L 216.043,103.9785L 212.2188,103.8906L 208.6875,103.6563L 205.5078,103.2461L 204,103L 197,103L 195.4922,103.2461L 192.3125,103.6563L 188.7813,103.8906L 184.957,103.9785L 180.9961,103.998L 179,104L 177.5313,104.2656L 174.5313,104.7656L 173,105L 171.7656,105.2656L 169.2656,105.7656L 168,106L 166.7656,106.2656L 164.2656,106.7656L 163,107L 161.7656,107.2656L 159.2656,107.7656L 158,108L 155.5313,109.0313L 153,110L 152,112L 152,115L 153,115.666L 155,117L 158,118L 160,118L 160,116L 159.5339,115.0667L 159.2773,113.0713L 159.8217,112.1346L 161.4133,110.5471L 162.5712,110.0067L 165.0269,109.0764L 167.6592,108.3602L 170.3582,107.7698L 173.1387,107.3232L 176,107L 177.3633,106.752L 180.1406,106.3223L 183,106L 184.5078,105.7539L 187.6875,105.3438L 191.2188,105.1094L 195.043,105.0215L 198.7539,105.002L 202.2461,105.002L 205.957,105.0215L 209.7813,105.1094L 213.3125,105.3438L 216.4922,105.7539L 218,106L 220.8594,106.3223L 223.6367,106.752L 225,107L 227.8594,107.3223L 230.6367,107.752L 232,108Z" style="fill:rgb(228,176,58);"/>
<path d="M 167,120L 165,119L 163,118L 160,118L 160,119L 162,120L 164,121L 167,121Z" style="fill:rgb(228,176,58);"/>
<path d="M 223,127L 225.3438,125.7744L 227.8613,124.6128L 230.5898,123.5269L 232,123L 233.1406,122.5703L 235.5039,121.752L 238,121L 240,120L 242,119L 244,118L 245,117.376L 247,116.1611L 249,115L 249,112L 248,111L 246,110L 244,109L 241,108L 237,108L 237,109L 238.262,109.6501L 240.4213,111.1027L 240.9519,112.0081L 241.2553,113.9075L 240.1572,115.7584L 238.0425,117.2639L 235.3995,118.4562L 234,119L 232.9102,119.5L 230.6406,120.498L 228.166,121.4805L 225.5059,122.4102L 224.1328,122.8281L 221.4199,123.6025L 218.8057,124.2451L 216.2656,124.7656L 215,125L 213.5469,125.4102L 210.5625,126.1367L 207.3398,126.6348L 203.7891,126.8867L 201.8945,126.9219L 198.1055,126.9219L 194.4355,126.7607L 191.0488,126.3857L 187.9453,125.7734L 185,125L 183.7324,124.7539L 182.4541,124.4878L 179.8594,123.9043L 177.167,123.2056L 174.3594,122.3853L 171.4639,121.4731L 170,121L 167,121L 167,122L 169,123L 172,124L 175,125L 178,126L 180.668,126.666L 182,127L 183.2656,127.2344L 185.7656,127.7344L 187,128L 188.5508,128.0879L 191.6055,128.3418L 194.5547,128.7539L 196,129L 205,129L 206.4922,128.7539L 209.5625,128.3438L 212.7617,128.1074L 216,128L 217.3633,127.752L 220.1406,127.3223Z" style="fill:rgb(228,176,58);"/>
<path d="M 244,266L 242,267L 239.8906,268.2256L 238.7627,268.8062L 237.5737,269.3666L 235.0771,270.4519L 232.3789,271.4692L 229.5781,272.4084L 228.1765,272.8272L 225.4009,273.6161L 222.6814,274.3271L 221.3407,274.6636L 218.668,275.334L 216,276L 216,277L 217,278L 235,278L 235,277L 235.0906,274.3394L 235.9197,273.4756L 237.9838,272.0559L 240.4688,271L 243,270L 245,268.666L 246,268L 247,267L 247,266Z" style="fill:rgb(228,176,58);"/>
<path d="M 256,258L 254,259.334L 253,260L 253,262L 255,262L 257.5547,261.8101L 260.0894,261.9681L 262.5425,262.5765L 264.8691,263.4929L 267.3646,264.6334L 270.0026,265.9701L 272.3205,267.5086L 273.9455,269.3406L 274.1842,270.3578L 273.9869,272.3246L 272.5711,274.0109L 270.2951,275.2625L 267.5078,276.1133L 264.332,276.6328L 260.7847,276.8887L 256.957,276.9785L 252.9961,276.998L 249,277L 239,277L 237.668,277.334L 235,278L 235,279L 241,279L 242.5078,278.7539L 245.6875,278.3438L 249.2188,278.1094L 253.043,278.0215L 257.0039,278.002L 261,278L 274,278L 275.332,277.666L 278,277L 279,276L 280,275L 280,270L 279,268L 278,267L 277,266L 276,265.334L 274,264L 272,263L 270,262L 268,261L 266,260L 263,259L 260,258Z" style="fill:rgb(228,176,58);"/>
<path d="M 253,261L 252,261L 250,262.334L 249,263L 248,264L 247,265L 247,266L 249,266L 251,265L 252,264L 253,263Z" style="fill:rgb(228,176,58);"/>
<path d="M 123,132L 123,133L 126,134L 129,134L 129,132L 126.332,131.334L 125,131L 124,131Z" style="fill:rgb(61,15,2);"/>
<path d="M 142,136L 141,135L 139.6113,134.624L 136.8184,133.8389L 134,133L 129,133L 129,134L 131,135L 133.668,135.666L 135,136L 136.2656,136.2344L 138.7656,136.7344L 140,137L 142,137Z" style="fill:rgb(61,15,2);"/>
<path d="M 132,165L 130,165L 130,167L 137,167L 137,166L 135.7344,165.7656L 133.2344,165.2656Z" style="fill:rgb(61,15,2);"/>
<path d="M 140,171L 140,167L 134,167L 134,168L 135.2656,168.7344L 137.7656,170.2344L 139,171Z" style="fill:rgb(61,15,2);"/>
<path d="M 153,138L 152,137L 149.332,136.334L 148,136L 142,136L 142,137L 144,138L 145.5313,138.2344L 148.5313,138.7344L 150,139L 153,139Z" style="fill:rgb(61,15,2);"/>
<path d="M 153,138L 153,139L 155.668,139.666L 157,140L 159.8594,140.3223L 162.6367,140.752L 164,141L 167.3555,141.3223L 170.4961,141.752L 172,142L 180,142L 180,141L 178.7344,140.7656L 176.2344,140.2656L 175,140L 173.4688,139.7656L 170.4688,139.2656L 169,139L 165.6445,138.6777L 162.5039,138.248L 161,138Z" style="fill:rgb(61,15,2);"/>
<path d="M 168,107L 169.2344,106.7344L 171.7344,106.2344L 173,106L 173,105L 166,105L 166,107Z" style="fill:rgb(61,15,2);"/>
<path d="M 179,104L 171,104L 171,105L 179,105Z" style="fill:rgb(61,15,2);"/>
<path d="M 187,103L 180,103L 180,104L 187,104Z" style="fill:rgb(61,15,2);"/>
<path d="M 193,141L 180,141L 180,142L 193,142Z" style="fill:rgb(61,15,2);"/>
<path d="M 196,128L 187,128L 187,129L 196,129Z" style="fill:rgb(61,15,2);"/>
<path d="M 209,102L 191,102L 191,103L 209,103Z" style="fill:rgb(61,15,2);"/>
<path d="M 207,129L 192,129L 192,130L 207,130Z" style="fill:rgb(61,15,2);"/>
<path d="M 228,141L 207,141L 207,142L 228,142Z" style="fill:rgb(61,15,2);"/>
<path d="M 219,275L 213,275L 213,276L 219,276Z" style="fill:rgb(61,15,2);"/>
<path d="M 220,276L 221.332,275.666L 224,275L 224,274L 219,274L 219,276Z" style="fill:rgb(61,15,2);"/>
<path d="M 236,140L 223,140L 223,141L 236,141Z" style="fill:rgb(61,15,2);"/>
<path d="M 247,138L 242,138L 240.5547,138.2461L 237.6055,138.6582L 234.5508,138.9121L 233,139L 233,140L 245,140L 247,139Z" style="fill:rgb(61,15,2);"/>
<path d="M 259,136L 255,136L 253.4961,136.248L 250.3555,136.6777L 247,137L 247,139L 250,139L 251.4688,138.7344L 254.4688,138.2344L 256,138L 259,137Z" style="fill:rgb(61,15,2);"/>
<path d="M 272,133L 267,133L 265.7656,133.2656L 263.2656,133.7656L 262,134L 259,135L 259,137L 261,137L 263.6367,136.3457L 266.2051,135.7471L 268.7344,135.2344L 270,135L 272,134Z" style="fill:rgb(61,15,2);"/>
<path d="M 271,165L 268,165L 266.668,165.334L 264,166L 261,167L 261,169L 263,169L 264.3906,168.5781L 267.1055,167.8242L 269.7148,167.2461L 271,167Z" style="fill:rgb(61,15,2);"/>
<path d="M 289,160L 288,160L 286.5859,160.4297L 285.1816,160.8389L 282.4023,161.6172L 279.6816,162.3271L 278.3408,162.6636L 275.668,163.334L 273,164L 271,165L 271,166L 276,166L 277.4141,165.5703L 278.8184,165.1611L 281.5977,164.3828L 284.3184,163.6729L 287,163L 289,162Z" style="fill:rgb(61,15,2);"/>
</svg>