<svg width="224" height="600"
     xmlns="http://www.w3.org/2000/svg" version="1.1">
<style>path {fill-opacity:1; stroke:none;}</style>
<path d="M 16,316L 15,317L 15,319L 17.25,320L 18,323L 20,323L 20,321L 20,319L 20,317L 18,316Z" style="fill:rgb(41,41,41);"/>
<path d="M 19,309L 18,311L 18,313L 19,315L 20,316L 21,316L 23,317L 26,317.5L 27,318L 28,318L 31,317L 33,316L 35,315L 36,314L 38,312.5L 40,312.5L 42,314L 43,314L 43,312L 42,311L 41,310L 39,309L 38,308.5L 37,307.75L 36,306.875L 35,305.9375L 33,304L 32,303.5L 31,302.75L 30,301.875L 28.5,300L 28,299L 27,297L 26,297L 25.5,298L 24,300L 23.5,301L 22,303L 21,305L 20,307Z" style="fill:rgb(41,41,41);"/>
<path d="M 42,322L 42,318L 38,318L 38,320L 39.5,320.25L 41,322Z" style="fill:rgb(41,41,41);"/>
<path d="M 173,209L 172,208.5L 170.5,207L 170,206L 169,205L 168,204L 167,203L 166,202L 165,201L 164,200L 163,199.5L 161.5,198L 161,197L 160,196.5L 159,195.75L 157,194L 155,193L 154,192.5L 152,191L 150,190L 148,189L 147,188.5L 145,187L 143.5,186.5L 141,185.5L 140,185L 138.5,184.5L 136,183.5L 135,183L 132,182.5L 131,182L 128,181.5L 127,181L 125.5,181L 123,180.5L 122,180L 106,180L 105,180.5L 102,181L 98,181L 97,181.5L 94,182L 93,182.5L 90,183L 87,184L 84,185L 82,186L 80,187L 77,188L 75,189L 74,190L 72.75,191L 70,192L 69,193L 68,194L 67,195L 65,196.5L 64,197L 63,198L 62,199L 61,200L 60,201L 59,202L 58,203L 57,204L 56,205L 55,206L 54,207L 53.5,208L 52.75,209L 51,211L 50,213L 50,215L 50.5,216L 50.5,218L 50,219L 49,221L 48.5,221.875L 46,221L 45,221L 44,222L 43.5,223.5L 42.5,226L 42,227L 41,230L 40,233L 40,234L 41,236L 42,236L 43,235.5L 46,235L 47,234L 48,235L 68,235L 71,235.5L 73,237L 74,237L 75,238L 76,238L 76,236L 77,233L 78,232L 78,231L 75,231L 74,231.5L 71,232L 58,232L 56.5,231.75L 56,230.5L 59,230L 68,230L 71,230.5L 72,231L 74,231L 74,229L 74.25,227.5L 75,229L 77,229L 78,228L 79,227.5L 82,227L 82.5,226L 84,224L 84.5,223L 86,221.5L 87,221L 87.5,219.5L 89,217.5L 90,217L 92,217L 93.5,217L 96,218L 97,219L 98,219.5L 99,220.25L 101,222L 102,223L 103,224L 104.5,226L 105,227L 106,227L 108,225L 109,224.25L 109,225L 109,229L 109.5,230L 110,233L 110.5,234L 110,236L 110,238L 111,239L 112,242L 113,242L 114,241L 114,240L 113.5,239L 113.75,238L 116,237L 116,235.5L 116.5,233L 117,232L 117,231L 116.5,230L 116.25,228.5L 118,227L 118.5,226L 119.75,224L 122,223L 123,220L 125,218.5L 126,218.25L 128,219L 129,219L 130,218.5L 132.5,218L 135,218.5L 136,219L 137,219.5L 138,220.25L 139,221.125L 140,222.0625L 141,223.0313L 142.5,225L 143,226L 144,227L 146,227L 146.5,226L 147,228L 149,229L 152,230L 168,230L 170,229L 171,228.5L 171,230L 171,231L 172.5,231L 175,231.5L 176,232L 177,232L 177,230L 179,229L 181,228L 182,225L 182,224L 181,222L 180,220L 178.5,218L 178,217L 176.5,215L 176,214L 174.5,212L 174,211ZM 113,232L 113.25,230.5L 114.5,231L 114.5,233L 113.25,233.5L 112.5,233Z" style="fill:rgb(41,41,41);"/>
<path d="M 155,232L 152,231.5L 151,231L 150,231L 150,238L 151,238L 151.25,236.5L 154,235L 168,235L 168,232Z" style="fill:rgb(41,41,41);"/>
<path d="M 169,232L 169,234L 170,235L 173,235L 174,233L 174,232Z" style="fill:rgb(41,41,41);"/>
<path d="M 183,225L 181,225L 180,228L 179,230.25L 178,231L 178,232L 181,233L 183,233L 184,232L 184,228Z" style="fill:rgb(41,41,41);"/>
<path d="M 201,300L 200,299L 199,298L 198,298L 197.5,299L 196.75,300L 195.875,301L 194,303L 193,304L 191,305.5L 190,306L 189,307L 188,308L 186,309.5L 185,310L 184.5,311L 182,312L 181,313L 179,314.5L 178,315L 178,320L 181,320L 182,319L 183,318L 186,317L 188,317L 188,316L 188.5,314.5L 189.25,313.75L 190.375,313.375L 192.25,314L 193,315L 201,315L 202,314L 203.5,316L 204,317L 205,317L 207,317L 209,317L 209,315L 208,313L 207,311L 206,309L 204.5,307L 204,306L 203,304L 202,302.75ZM 194.75,310L 194,311ZM 199,309.5L 199.25,308.25L 199.875,309.125L 200,312Z" style="fill:rgb(41,41,41);"/>
<path d="M 180,320L 179,320L 178,321L 178,328L 179,328L 179,326L 179.5,323L 180,322Z" style="fill:rgb(41,41,41);"/>
<path d="M 29,294L 28.5,293L 28,290.5L 28,289L 28,288L 28,286.5L 29,284L 30,283L 30.5,280L 31,279L 32,276L 32,274.5L 32.25,273.25L 34,273L 34,268L 34.5,265L 35,264L 35,261L 35.5,258L 36,257L 36,255.5L 36.5,253L 37,252L 37,249L 37.5,246L 38,245L 38,243.5L 38.5,241L 39,240L 39.5,237L 40,236L 41,233L 42,230L 42.5,228.5L 43.5,226L 44,225L 44.5,223.5L 46,221L 47,219L 47.5,218L 49,216L 49.5,215L 51,213L 51.5,212L 52.25,211L 54,209L 54.5,208L 55.25,207L 56.125,206L 57.0625,205L 58.0313,204L 59.0156,203L 60.0078,202L 61.0039,201L 62.002,200L 63.001,199L 65,197.5L 66,197L 67,196L 68,195L 69,194L 70.25,193L 73,192L 74,191L 76,189.5L 77,189L 80,188L 82,187L 84,186L 87,185L 90,184L 91,183.5L 94,183L 95,182.5L 98,182L 99,181.5L 102,181L 106,181L 107,180.5L 110,180L 118,180L 121,180.5L 122,181L 123.5,181L 126,181.5L 127,182L 130,182.5L 131,183L 134,183.5L 135,184L 137,185L 138.5,185.5L 141,186.5L 142,187L 143.5,187.5L 146,189L 148,190L 150,191L 151,191.5L 153,193L 155,194L 156,194.5L 158,196L 159,196L 159.5,194.875L 160.75,195.1875L 161,199L 162,200L 163,200.5L 164,201.25L 165,202.125L 166,203.0625L 167,204.0313L 168,205.0156L 169.5,207L 170,208L 171,209L 172,210L 173.5,212L 174,213L 175.5,215L 176,216L 177.5,218L 178,219L 179.5,221L 180,222L 181,224L 182,225.25L 183,228L 184,231L 185,234L 186,237L 187,240L 187.5,241L 188,243.5L 188,245L 188.5,246L 189,249L 189,252L 189.5,253L 190,256L 190,258L 190.5,259L 191,262L 191,264L 190.5,267L 190,268L 189,270L 189,273L 191,274L 192,274L 193,273.5L 194,275L 195,278L 195.5,279L 196,282L 196,284L 197,287L 198,290L 198.5,291L 199,294L 199,297L 199,299L 200,300.25L 201,303L 202.5,305L 203,306L 204,308L 205.5,310L 206,311L 207,313L 208,315L 209,318L 210,320L 211,323L 212,326L 213,329L 213.5,330L 214,332.5L 214,334L 214.5,335L 215,337.5L 215,339L 216,339L 218,341L 217.5,344L 217,345L 217,350L 217.5,351L 217.5,353L 217,354L 217,358L 217,360L 216.5,363L 216,364L 215.5,367L 214,369L 214,370L 213.5,371L 212,372.5L 211,373L 210,374L 208,375.5L 206,375L 205,374L 204,373.5L 203,372.75L 201,371L 200,370L 199,369L 198,368L 197,367L 195.5,365L 195,364L 193,363L 192,363L 191,365L 190.5,366.5L 189,369L 188,370L 187.5,371.5L 186.5,374L 185.75,375L 184,377L 183.5,378L 182,379.5L 181,380L 180,383L 180,384L 181,386L 184,386.5L 185,387L 186.5,387.5L 187.75,388L 189,391L 190.5,391.5L 193,393L 194,394L 195.5,396L 196,399L 196,402L 196.5,403L 196.5,405L 196,406L 195.5,407.5L 194.5,410L 193,412L 192,413L 191.5,414L 190,416L 189.25,417L 187,418L 185.75,419L 183,420L 181.75,421L 179,422L 178,422.5L 175.5,423L 174,423L 172,424.5L 169.5,425L 168,425L 167,425.5L 164,426L 154,426L 151,425.5L 150,425L 147,424.5L 146,424L 140,424L 137,423.5L 136,423L 134.5,422.5L 132,421.5L 131,421L 130,420.5L 128,419L 125,418.5L 123,417L 122,416L 119,415.25L 118,413L 117,412L 115,411L 114,411L 112,412L 110,413L 108,414.5L 107,415L 106.5,416L 105,417.5L 104,418L 102,419L 99,420L 97,421L 95,422.5L 92,423L 88,423L 87,424L 84.5,425L 83,425L 82,425.5L 79,426L 64,426L 61,425.5L 60,425L 57,424L 55,424L 52,423.5L 51,423L 49,423L 46,422.5L 45,421.75L 43,420L 41,419L 39,418L 38,417.5L 36.5,416L 36,415L 35,414L 34,413L 33,411.75L 32,409L 31,406L 30,405L 28.5,403L 29,401L 30,400L 30.5,397L 31,396L 31.25,394.5L 33,393L 35,393L 36,393L 37,392L 37,389L 36.75,388L 38,388L 39,388L 40.25,387L 43,386L 45,385L 45,381L 44,380.5L 42.5,379L 42,378L 41,376L 40,375L 38.5,373L 38,372L 36.5,370L 36,369L 35,367L 34,365L 33,363L 30,363L 29.5,366L 28,367.5L 27,368L 26.5,369L 25.75,370L 24,371.5L 23,372L 21,373L 20.5,374L 19.75,374.75L 17.875,374.875L 16.4375,374.6875L 17,374L 17,373L 15.5,372.75L 14,371L 13,370.25L 12,368L 11,365L 11,363L 11,361L 10,359.75L 9,357L 8.5,355.5L 8.5,354.25L 10,353L 10,350L 9.5,349L 9,346L 9,344L 9.5,341L 10,340L 10,338L 10.5,335L 11,334L 11,332.5L 11.5,330L 12,329L 13,326L 13.75,323L 16,322L 16,320L 16,318.5L 16.5,316L 17,315L 18,313L 19,311L 20,309L 21,307L 22,305L 22.5,304L 24,302L 24.5,301L 26,299L 26.5,298L 27.25,297L 29,295ZM 0,0L 0,600L 224,600L 224,0Z" style="fill:rgb(254,254,254);"/>
<path d="M 51,320L 50,320L 49,322L 49,324L 49.5,325L 50,328L 50.5,329L 51,332L 51,338L 53,338L 53.5,339L 53,340L 53,344L 54,344L 55,342L 55,340L 55.5,337L 56,336L 57,333L 57,330L 57.5,327L 58,326L 58,322L 57,320L 55,319L 53,319L 52,320L 51.75,321.5Z" style="fill:rgb(254,254,254);"/>
<path d="M 56,344L 54,344L 54,351L 55,351L 55,349.5L 55.5,347L 56,346Z" style="fill:rgb(254,254,254);"/>
<path d="M 177,340L 177,322L 176,319L 172,319L 170,320L 168,321L 166,322L 164.75,323L 162,324L 161,324.5L 158,325L 155,326L 153,327L 152,327.5L 149,328L 146,329L 145,329.5L 142.5,330L 141,330L 140,330.5L 137,331L 135,331L 132,331L 131.25,332L 129,332L 122,332L 121,332.5L 118,333L 106,333L 103,332.5L 102,332L 98,332L 95,332L 91,332L 91,348L 90.5,351L 90,352L 90,353L 91,354L 91,356L 91,358L 90.75,359L 89,360L 88,363L 87,364L 85,364L 82,364L 80,364L 74,364L 72.25,364L 72,363L 70,363L 69,363.5L 66,364L 64,366L 63,367L 63,368L 65,368L 68,368.5L 69.5,370L 70,371L 72,373L 74,375L 75,376L 76.5,376L 79,376.5L 80,377.25L 81,378.125L 83,380L 85,381L 87,382L 90,383L 91,384L 92.75,385L 93,386L 95,386L 96,386L 97,386L 98,386L 101,387L 128,387L 131,386L 133,384.5L 134,384L 136,383L 137.25,382L 140,381L 141.5,381L 144,382L 145,382L 146,381L 146.5,379.5L 147.25,378.75L 149,379L 151,379L 151,376L 153,375L 153,373L 156,372L 156,371L 158,371.5L 159,372L 161,373L 162,373L 163,372L 163,369L 162,367.75L 162,366.375L 162.5,365.1875L 165,364L 167,364L 168,364L 169,363L 169,360L 169.25,358.5L 173,358L 174,355L 174,353L 173,352L 172,351.25L 172,350.125L 172.25,349.0625L 175,349L 176,347L 176,344L 176.5,341Z" style="fill:rgb(254,254,254);"/>
<path d="M 108,245L 108,234L 107.5,233L 107,230.5L 107,229L 106,227L 105,225L 104,224L 102.5,222L 102,221L 101,220.5L 99,219L 97,218L 90,218L 88,219L 86,220.5L 85,221L 84,222L 83.5,223L 82,225L 81,227L 80,230L 80,247L 81,249L 82,251L 83.5,253L 84,254L 85,255L 86,256L 87,257L 89,258L 91,259L 97,259L 99,258L 101,257L 102,256L 103,255L 104,254L 104.5,253L 106,251L 107,248ZM 103,240L 102.5,243L 102,244L 101.5,245L 100.75,246L 99.875,247L 98,248.5L 96.75,248.75L 95.375,248.375L 93,247.5L 91.5,246L 91,245L 90,243L 89.5,242L 89,239.5L 89.5,237L 90,236L 91,234L 91.5,233L 92.5,232L 95,231L 96.5,231L 99,231.5L 100,232.25L 101.5,234L 102,235L 102.5,236L 102.8339,238.9931Z" style="fill:rgb(254,254,254);"/>
<path d="M 123,242L 123,237L 122,236L 121.75,234L 124,233L 124,228L 122.5,226L 122,225L 121,225L 120,227L 119,229L 119,230.5L 118.5,233L 118,234L 118,244L 119,244L 119.5,243Z" style="fill:rgb(254,254,254);"/>
<path d="M 146,246L 146,231L 145,228L 144,226L 143,224L 142,223L 141,222L 140,221L 139,220L 138,219L 136,218L 129,218L 127,219L 125,220L 124,221L 123,222L 122,223L 122,227L 123.5,229L 124,232L 124,234L 125,234L 126,233L 128,231.5L 129,231L 130,230.5L 131.25,230.25L 132.625,230.625L 133.8125,231.3125L 134.9063,232.1563L 135.9531,233.0781L 136.9766,234.2891L 138,237L 138.5,238L 139,240.5L 138,243L 136,243L 135,240L 135,236L 134,235L 133,234L 129,234L 128,235L 127,237L 127,239L 126.5,242L 125.5,243L 123.75,243L 123,242L 121,241L 120,241L 119,242L 118,244L 118,246L 119,248L 120,250L 121,252L 122.5,254L 123,255L 124,256L 125,256.5L 127,258L 130,259L 135,259L 137,258L 139,257L 140,256L 141,255L 142,254L 143,253L 144,251L 145,249Z" style="fill:rgb(254,254,254);"/>
<path d="M 190,267L 190,252L 189,252L 189,267Z" style="fill:rgb(94,93,92);"/>
<path d="M 216,350L 216,341L 215,341L 215,350Z" style="fill:rgb(94,93,92);"/>
<path d="M 49,324L 49,320L 49.5,317L 50,316L 50,315L 46,315L 44,314L 43,313.5L 41,312L 37,312L 35,313L 34,314L 32,315.5L 31,316L 29.5,316.5L 28.25,316.75L 25,317L 23,317L 22,318L 21,318.5L 19,319L 19,321L 18,319L 15,319L 15,320L 14.75,321L 13,322L 12.5,325L 12,326L 11,329L 11,330.5L 10.5,333L 10,334L 10,355L 10.5,356L 11,358.5L 11,360L 13,360L 15.25,360L 16,362.5L 16,364L 17.5,364.5L 20,366L 21,367L 22,367L 23,366L 23,359L 21.5,358.75L 22.5,358L 24,358L 25,357L 26,356.25L 28,357L 29,357L 30,356L 30.5,355L 31.25,354L 32.125,354.5L 34,356L 35,356L 36,356.5L 37,359L 37,362L 38,362L 40,362.5L 41,363L 42,363L 43,363L 44,363L 46,362L 47,361.5L 50,361L 50,359.5L 50.5,357L 51,356L 51,351L 50.5,350L 50,347L 49.5,346L 49,343L 49,340L 48.5,339L 48,336L 48,328L 48.5,325ZM 41,319L 40,319L 41,319L 41.25,320Z" style="fill:rgb(30,29,29);"/>
<path d="M 17,366L 17,364L 16.5,363L 16,360.5L 16,359L 15,359L 15,365L 16,366Z" style="fill:rgb(30,29,29);"/>
<path d="M 16,315L 16,316L 18,318L 19,318L 21,317L 21,316L 19.5,314L 19,313L 17,313Z" style="fill:rgb(30,29,29);"/>
<path d="M 23,316L 22,315L 21,315L 20,317L 20,320L 21,320L 23,319Z" style="fill:rgb(30,29,29);"/>
<path d="M 25,363L 26,362L 27,361L 27,360L 26,359L 25,358L 24,358L 24,363Z" style="fill:rgb(30,29,29);"/>
<path d="M 37,361L 37,355L 35,355L 34,356L 34,358L 35,360L 36,361Z" style="fill:rgb(30,29,29);"/>
<path d="M 151,270L 152,269.5L 154,269.5L 155,270L 156.5,270.5L 159,272L 160,273L 162,275L 163,276.25L 163,277.625L 162.5,278.8125L 161.75,279.9063L 160,281.5L 159,282L 158,283L 157,284L 155,285.5L 154,285.75L 151,286L 148,287L 146,288L 144,289.5L 143,290L 141,291L 140,292L 139.5,293L 138,294.5L 137,295L 135,296L 134,296.5L 131.5,297L 130,297L 128,298L 127,299L 126.5,300L 125,301.5L 122.5,302L 121,302L 120,302.5L 117,303L 110,303L 108.5,302.75L 107,301L 105.5,301L 103,300.5L 102,300L 100,299L 98.5,298.5L 96,297.5L 95,297L 94,296.5L 92,295L 90,294L 88,293L 86,292L 84,291L 81,290.5L 80,290L 78.5,289.5L 76,288.5L 74.5,287L 74,286L 73,285L 72,284.5L 70,283L 69,282.5L 68,281.75L 67,280.875L 66,279.9375L 64,278L 63.25,277L 63.125,276L 63.5625,275L 65,273.5L 66,273L 68,272L 68.75,271L 71,270L 72,269.25L 73,269.125L 75,269L 77,268L 78,267.5L 79.5,267.25L 80.75,267.125L 83,267L 85,266L 86,265.5L 89,265L 90,264.5L 93,264L 95,264L 96,264L 98,264L 98,259L 95,259L 92,258.5L 91,258L 89,257L 88,256.5L 87,255.75L 86,254.875L 84.5,253L 84,252L 82.5,250L 82,249L 81,247L 80.5,246L 80,243L 80,241L 79.5,240L 79.25,238.5L 79.5,236L 80,235L 80,233.5L 80.5,231L 81,230L 81,227L 80,226L 79,226L 77,227L 75,225L 74,225L 74,227L 73.5,228.5L 72.75,229.25L 70,230L 55,230L 54,231L 54,232L 69,232L 72,232.5L 73,233L 74,233L 75.25,232L 76,234L 75.75,235.5L 75,234L 74,234L 73.5,234.875L 70,235L 52,235L 49,234L 48,231L 47,231L 46.5,232.5L 45,234.5L 43.5,234.75L 41,234L 40,234L 39,236L 38.5,239L 38,240L 38,241.5L 37.5,244L 37,245L 37,248L 36.5,251L 36,252L 36,273L 37,274L 38,277L 39.5,279L 40,280L 42,282L 43,282.5L 44,283.25L 45,284.375L 46,287L 47,288L 48,289L 49,289.5L 51,291L 54,291.5L 56,293L 58,294L 60,295L 61.5,295.5L 64,297L 66,298L 67.5,298.5L 70,299.5L 71,300L 74,300.5L 75,301L 78,302L 81,302.5L 82,303L 85,303.5L 86,304L 87.5,304L 90,304.5L 91,305L 98,305L 101,305.5L 102,306L 128,306L 129,305.5L 131.5,305L 133,305L 134,304.5L 137,304L 140,304L 141,303.5L 144,303L 145,302.5L 148,302L 151,302L 154,301L 156,300L 159,299L 161,298L 163,296L 165,294.5L 166,294L 169,293L 170,292L 171,291L 173,289.5L 174,289L 176,288L 177,287L 178,286L 179,285L 180.25,284L 183,283L 185,282L 185.5,280.5L 186.5,278L 187,277L 187.5,274L 189,272L 189,245L 188.5,244L 188,241.5L 188,240L 187,237L 186,234L 185,231L 184,231L 183,231.75L 182,231.875L 179.5,232L 178,232L 176,231L 174.5,231L 173.25,230.75L 173,229.5L 174,229L 174,228L 170,228L 168,229L 167,229.5L 164,230L 156,230L 153,229.5L 152,229L 150.5,228.5L 149.25,227.75L 148.625,226.875L 148,224L 147,224L 146,225L 144,227L 144,228L 145,231L 145.5,232L 146,235L 146.5,236L 147,239L 146.5,242L 146,243L 145,246L 144.5,247.5L 143.5,250L 143,251L 142.5,252L 141.75,253L 140.875,254L 139.9375,255L 138,256.5L 137,257L 135,258L 134,260L 134,263L 135,265L 136.5,265L 139,265.5L 140,266L 143,267L 144,268L 147,269L 150,270ZM 167,234.25L 164,235L 156,235L 153,234.5L 152,234L 151,234L 150.75,235.5L 150,234.5L 150.25,233.25L 153,232L 164,232L 165.5,232.75ZM 171.25,232.5L 171.375,233.75L 170,233Z" style="fill:rgb(30,29,29);"/>
<path d="M 42,363L 41,362L 39,361L 38,361L 37,362L 37,364L 38,366L 39,367L 40,368L 42,368Z" style="fill:rgb(30,29,29);"/>
<path d="M 49,364L 48,361L 47,361L 46,363L 46,364L 47,367L 48,367L 49,366Z" style="fill:rgb(30,29,29);"/>
<path d="M 50,221L 50,219L 48,217L 47,217L 46,219L 46,222L 47,223L 48,224L 49,224Z" style="fill:rgb(30,29,29);"/>
<path d="M 52,355L 51,355L 50,356L 50,357.5L 49.5,360L 49,361L 49,362L 50,364L 51,364L 51,361L 51.5,358L 52,357Z" style="fill:rgb(30,29,29);"/>
<path d="M 51,219L 51,215L 50,214L 49,214L 48,216L 48,219Z" style="fill:rgb(30,29,29);"/>
<path d="M 56,368L 56,365L 55,363L 53,363L 53,366L 54,367L 55,368Z" style="fill:rgb(30,29,29);"/>
<path d="M 97,217L 95.5,217L 93,216.5L 92,216L 90,216L 88,217L 87,218L 87,220L 88,220L 90,219L 91,218.5L 94,218L 97,218Z" style="fill:rgb(30,29,29);"/>
<path d="M 99,265L 101,264L 102,263L 102,261L 102,260L 102,258L 101,257L 99,257L 97,258L 97,259L 97.5,260L 98,263L 98,265Z" style="fill:rgb(30,29,29);"/>
<path d="M 125,263L 125,261.5L 125.5,259L 126,258L 126,256L 125,255.5L 123.5,254L 123,253L 121.5,251L 121,250L 120,248L 119,246L 118.5,245L 118,242L 118,236L 117.5,235L 117,232L 116,232L 116,233.5L 115.5,234.75L 113,236L 113,240L 112,238L 112,236L 112,235L 111,233L 110,232L 109,231L 108,231L 108,241L 107.5,244L 107,245L 106,248L 106,249L 107,251L 107.5,252L 105,252L 104,252L 103.5,253L 102.75,254L 101,256L 101,258L 101,260L 101,261L 102,263L 111,263L 112,262.5L 113.25,262.25L 116,263Z" style="fill:rgb(30,29,29);"/>
<path d="M 108,234L 109,232.25L 110,232L 110,229L 109.5,228L 109.5,226L 111,224L 111,223L 109,223L 107,224.5L 106,225L 106,229L 106.5,230L 107,232.5L 107,234Z" style="fill:rgb(30,29,29);"/>
<path d="M 112.5,231L 112,232L 112,234L 113,235L 114,235L 115,234L 115,230L 114,228L 113,228Z" style="fill:rgb(30,29,29);"/>
<path d="M 119,234L 119,232.5L 119.5,230L 120,229L 121,227L 122,225L 122,223L 119,223L 118,225L 115,226L 115,227L 115.5,228L 116,231L 116.5,232L 117,234.5L 117,236L 118,236Z" style="fill:rgb(30,29,29);"/>
<path d="M 128,218L 127,217L 126,217L 124,218L 122,219L 122,223L 123,223L 124,222L 126,220.5L 127,220L 128,219Z" style="fill:rgb(30,29,29);"/>
<path d="M 129,260L 127,259L 125,259L 125,263L 126,263L 128,261.5L 129,261Z" style="fill:rgb(30,29,29);"/>
<path d="M 135,263L 134,261L 133,261L 131,261L 127,261L 126,262L 126,264L 127,264L 129,264L 135,264Z" style="fill:rgb(30,29,29);"/>
<path d="M 175,362L 175.5,359L 176,358L 176,356L 174,355L 173,355L 172,358L 172,361L 174,362Z" style="fill:rgb(30,29,29);"/>
<path d="M 214.5,333L 214,330.5L 214,329L 213,328L 211.5,327.5L 209.5,326L 209,325L 208.5,323.5L 208.75,322.25L 211,321L 211,320L 210,318L 209,317L 208,316.5L 206,315L 205,315L 204,314.25L 203,312L 202,312L 201.5,313L 200,314.5L 197,315L 194,314L 193,313L 190,312L 189,312L 188,313L 187,314L 186.5,315.5L 185,316.5L 184,316L 182,316L 182,317L 181.5,318L 180,320L 179,322L 179,324L 178.75,325.5L 178,324.5L 178.5,322L 179,321L 179,320L 178.5,319L 178,316.5L 178,315L 177,315L 176,317L 176,322L 176.5,323L 177,326L 177,336L 176.5,339L 176,340L 176,343L 175.5,346L 175,347L 174.5,350L 174,351L 174,356L 175,356.75L 176,359L 177,359L 178,359.5L 179.5,361L 180,362L 181.5,364L 182,365L 183,365.75L 184,368L 185,368L 186,367L 187,364L 187,362L 187.5,359L 190,358L 191,357L 192,354L 192,353L 191.5,352L 191.5,350L 192,349L 193,350L 193,353L 194.5,355L 195,356L 196,358L 197,360L 198,361L 199,362L 200.5,364L 201,365L 203,365L 204,364L 204,362L 206,361L 207,360.5L 210,360L 211,357L 212,357L 213,357L 214,357L 215,357L 215,334Z" style="fill:rgb(30,29,29);"/>
<path d="M 178,233L 180,231L 180,228L 179,228L 177,228L 176,228L 176,230L 177,233Z" style="fill:rgb(30,29,29);"/>
<path d="M 196,312L 197,311L 197,309L 194,309L 193,310L 193,312L 194,312L 195,312Z" style="fill:rgb(30,29,29);"/>
<path d="M 201,311L 201,309L 200,306L 199,306L 199,307.5L 198.5,310L 198,311L 198,312L 200,312Z" style="fill:rgb(30,29,29);"/>
<path d="M 213,326L 212,323L 211,321L 207,321L 207,322L 208,325L 209,327L 210,329L 211,329L 213,328Z" style="fill:rgb(30,29,29);"/>
<path d="M 211,368L 212,366L 213,364L 213,362L 212,361L 211,360L 210,360L 209,363L 208,364L 207.5,367L 207,368L 207,369L 210,369Z" style="fill:rgb(30,29,29);"/>
<path d="M 213,362L 214,361L 214,358L 212,358L 211,359L 211,361L 212,362Z" style="fill:rgb(30,29,29);"/>
<path d="M 12,362L 12,360L 11.5,359L 11,356.5L 11,355L 10,353L 9,352L 8,352L 7.5,355L 7,356L 7,358L 8,358.25L 9,360L 10,361L 11,362Z" style="fill:rgb(243,241,240);"/>
<path d="M 16,368L 15,367.25L 14,365L 13,362L 11,362L 10,363L 10,365L 11,368L 12,371L 13,373L 17,373L 17,372L 16.5,371L 16.25,370Z" style="fill:rgb(243,241,240);"/>
<path d="M 29,367L 26,367L 24,368L 22,370L 19.5,371L 18,371L 17.5,372L 16.5,373L 14,374L 14,375L 17,375.5L 18,376L 20,376L 22,375L 22.5,374L 24,372.5L 25,372L 26,371L 27,370L 29,368Z" style="fill:rgb(243,241,240);"/>
<path d="M 34,278L 34,273L 33,271L 32,271L 32,272.5L 31.5,275L 31,276L 30,279L 29,282L 28,283L 28,284.5L 27.5,287L 27,288L 27,289L 27.5,290L 28,292.5L 28,294L 29,294L 29,292.5L 29.5,290L 31,288L 32,285L 32,283L 32.5,280Z" style="fill:rgb(243,241,240);"/>
<path d="M 53,383L 52,382L 49,381.5L 47,380L 46,379L 44.5,377L 44,376L 43.5,375L 43,372L 42,370L 41,368L 40,367L 38.5,365L 38,364L 37,362L 36,361.5L 35,360.75L 34,359.625L 33,357L 32,357L 31,359L 30.5,360L 29.75,361L 28.875,361.5L 27,362L 27,366L 28,367L 30,367L 30.75,364L 32.25,364L 33.5,366L 34,367L 35,369L 36,371L 37.5,373L 38,374L 39,376L 40,377L 41.5,379L 42,380L 43,381L 44,382L 44,384L 42.75,385L 40,386L 39,386.5L 36.5,387L 35,387L 35,389L 37,391L 38,391L 40,389.5L 41,389L 42.25,388L 45,387L 47,386L 49,385L 50,384.5L 53,384Z" style="fill:rgb(243,241,240);"/>
<path d="M 35,395L 35,392L 34,391L 33,391L 31,392L 30.5,395L 30,396L 29,399L 28,400L 28,404L 29,405L 30,406.25L 31,409L 32,412L 33,413L 34,414L 35.5,416L 36,417L 37,418L 39,419L 41,420L 42,420.5L 43,421.25L 45,423L 47,423L 50,423.5L 51,424L 53,424L 56,424.5L 57,425L 60,426L 83,426L 84,425.5L 86.5,425L 88,425L 89,424L 92,423L 96,423L 98,421.5L 99,421L 102,420L 104,419L 106,418L 107,417L 109,415L 111,413.5L 112,413L 113,412.5L 114,412.25L 116,412.5L 117,413.5L 118,416L 121,417L 122,418L 124,419L 127,419.5L 129,421L 131,422L 133,423L 136,424L 142,424L 145,424.5L 146,425L 149,425.5L 150,426L 168,426L 169,425.5L 171.5,425L 173,425L 175,423.5L 177.5,423L 179,423L 182,422L 183.25,421L 186,420L 187.25,419L 190,418L 190.5,417L 191.25,416L 193,414L 194,413L 195,411L 196,409L 197,406L 197,402L 196.5,401L 196,398L 196,395L 194.5,393L 194,392L 192,391L 190,391L 190,392L 191,393L 192.5,395L 193,396L 194,398L 194.5,399L 195,401.5L 194.5,404L 194,405L 193.5,406.5L 192.75,407.75L 191,410L 190,412.25L 189,413L 188,414L 186,416L 184,417.5L 183,418L 180,419L 177,420L 176,420.5L 173,421L 171,421L 170,422L 167,423L 153,423L 150,422.5L 149,422L 145,422L 142,421.5L 141,421L 139.5,421L 137,420.5L 136,420L 134.5,419.5L 132,418.5L 131,418L 129.5,417.5L 127,416.5L 126,416L 125,415.5L 123,414L 121.5,412L 121,411L 120,410L 118.5,410L 116,409.5L 115,409L 113,409L 110,410L 109,411L 108.5,412L 107.5,413L 105,414L 103,415.5L 102,416L 100,417L 98,418L 97,418.5L 94,419L 92,420L 91,420.5L 88.5,421L 87,421L 86,421.5L 83,422L 82,422.5L 79,423L 72,423L 70,423L 61,423L 58,422.5L 57,422L 56,422L 53,421L 52,421L 49,420.5L 48,420L 46.5,419.5L 44,418.5L 42,417L 41,416L 39.5,415.5L 38.25,414.75L 37.125,413.625L 36,411L 35,410L 33.5,408L 33,407L 32,404L 31.5,403L 31.5,401L 32,400L 33,397L 34,396Z" style="fill:rgb(243,241,240);"/>
<path d="M 36,274L 36,257L 35,257L 34,259L 34,261L 34,264L 34,275L 35,275Z" style="fill:rgb(243,241,240);"/>
<path d="M 50,346L 52,346L 53,346L 53,344L 53.5,341L 54,340L 54,336L 53,336L 51,334L 51,328L 50.5,327L 50,324L 48,324L 48,340L 48.5,341L 49,344L 49,346Z" style="fill:rgb(243,241,240);"/>
<path d="M 75,361L 72,360.5L 71,360L 68,359.5L 67,359L 65.5,358.5L 63,357.5L 62,356.75L 61,355.875L 60,354.9375L 58.5,353L 58,352L 57.5,351L 57,348L 57.5,345L 58,344L 58,334L 58.5,331L 59,330L 60,328L 60,325L 60.5,322L 61,321L 61,320L 60,319L 59,318.5L 57,317L 55.5,316.5L 53,315L 51,314L 50,314L 49,316L 49,322L 50,322L 51,324L 52,324L 52.5,321L 53.25,320.25L 56,321L 57.5,323L 57.5,325L 57,326L 57,329L 56.5,332L 56,333L 55,336L 55,338L 54.5,341L 54,342L 53,344L 52,344L 51,344L 50,345L 49,346L 49,347L 49.5,348L 50,351L 50.5,352L 51,355L 52,358L 53,360L 54,363L 55,365L 56,367L 57,369L 58.5,371L 59,372L 60.5,374L 61,375L 62,376L 63,377L 64.5,379L 65,380L 66,381L 67,382L 68,383L 69,384L 70,385L 71,386L 72,386.5L 73,387.25L 75,389L 76,389.5L 77,390.25L 79,392L 80.5,392.5L 83,393.5L 84,394L 86,395L 88,396L 91,397L 94,398L 97,398.5L 98,399L 100,399L 103,399.5L 104,400L 114,400L 115,399.25L 116,399.125L 118.5,399L 121,399.5L 122,400L 123,400L 124,399.5L 127,399L 128,398.5L 131,398L 134,397L 137,396L 139,395L 142,394L 144,392.5L 145,392L 147,391L 149,389.5L 150,389L 152,387.5L 153,387L 154,386L 155,385L 155,384L 154,383.5L 152.5,382L 152,381L 151,379L 150,378.5L 148,377L 146,377L 145.5,380L 143,380L 140,380L 137,381L 135,382.5L 134,383L 132,384L 130.75,385L 128,386L 127,386.5L 124,387L 105,387L 102,386.5L 101,386L 98,385L 97,385L 96,385L 95,385L 94,384L 91.75,383L 91,382L 88,381.5L 87,381L 85,380L 84,379.5L 83,378.75L 82,377.875L 80,376L 78.5,376L 76,375.5L 74.5,374L 74,373L 72,371L 70,369L 69,368L 67,367L 65,367L 65,366.5L 66,366L 67,365L 70,364L 72,363L 75,362ZM 54,347.5L 54.5,346.25L 55,347.5L 54.75,348.75Z" style="fill:rgb(243,241,240);"/>
<path d="M 85,362L 72,362L 71,364L 71,365L 74,365L 75,364.5L 76.5,364.25L 79,364.5L 81,366L 82,366L 82.75,365L 85,364Z" style="fill:rgb(243,241,240);"/>
<path d="M 87.5,359L 86.75,360L 85,362L 85,365L 86,366L 87,366L 89,364L 89,358L 88,358Z" style="fill:rgb(243,241,240);"/>
<path d="M 96,329L 91,329L 90,330L 90,352L 91,352L 91,336L 92,333L 94,332.5L 95,333L 98,333L 99,332.5L 101,332.5L 102,333L 122,333L 123,332.5L 126,332L 126,331L 114,331L 113,331.5L 110,332L 108,332L 105,331.5L 104,331L 101,330L 99.5,330L 97,329.5Z" style="fill:rgb(243,241,240);"/>
<path d="M 91,353L 90,353L 90,360L 92,360L 92,358L 93,356L 93,354Z" style="fill:rgb(243,241,240);"/>
<path d="M 124,236L 124,233L 121,233L 120,235L 120,237L 121,237L 122,237L 123,237Z" style="fill:rgb(243,241,240);"/>
<path d="M 133,330L 126,330L 126,332L 129,333L 132,333L 133,331Z" style="fill:rgb(243,241,240);"/>
<path d="M 176,316L 175,315L 174,315L 172,316L 170,317L 168,318L 166,319L 163,320L 161,321L 158,322L 155,323L 152,324L 150,325L 149,325.5L 146.5,326L 145,326L 143,327.5L 140,328L 136,328L 134,329L 133,330L 133,331L 135,332L 137,332L 138,331.5L 141,331L 142,330.5L 144.5,330L 146,330L 149,329L 150,328.5L 153,328L 155,327L 158,326L 159,325.5L 162,325L 165,324L 167,322.5L 168,322L 170,321L 172,320L 173,319.5L 176,319Z" style="fill:rgb(243,241,240);"/>
<path d="M 168,369L 168,368L 168,365L 168,364L 167,362L 166,362L 165,362.5L 162,363L 161,365L 161,368L 162,369.25L 162,370.625L 161,370.8125L 160,370.9063L 158,370.5L 156,369L 155,369L 154.5,370L 153,371L 152,372L 152,373L 150,374L 150,376L 150.5,377L 151,379.5L 151,381L 152,383L 153,383L 153.5,381.5L 154.25,380.75L 156,381L 157,382L 158,382L 159,381L 160,380L 161,379L 161.5,378L 162.25,377L 163.125,376L 165,374L 166,373L 166,371.5Z" style="fill:rgb(243,241,240);"/>
<path d="M 157,383L 157,380L 155,379L 153,379L 153,384L 156,384Z" style="fill:rgb(243,241,240);"/>
<path d="M 159,197L 162,197L 162,194L 161,193L 159,193Z" style="fill:rgb(243,241,240);"/>
<path d="M 170,365L 170,361L 169,361L 168,363L 167,365L 167,368L 168,368L 169,367Z" style="fill:rgb(243,241,240);"/>
<path d="M 172,360L 172,358L 171,357L 170,356L 169,356L 169,361L 170,363L 171,363Z" style="fill:rgb(243,241,240);"/>
<path d="M 175,351L 175,349L 174,348L 173,347L 172,347L 171,349L 171,352L 173,353L 174,353Z" style="fill:rgb(243,241,240);"/>
<path d="M 181,380L 179,380L 178,381L 177,382L 176,383L 176,384L 177,385L 179,386L 181,386L 182,383L 182,382Z" style="fill:rgb(243,241,240);"/>
<path d="M 199,368L 199,366L 198,364L 197,362L 196,359L 195,359L 193,358L 192,358L 191,360L 190,362L 189,364L 188,366L 187,368L 186,370L 185.5,371L 184.75,372L 183,374L 182,375L 181,377L 180,379L 180,380L 183,380L 184,379L 184.5,378L 185.25,377L 187,375L 188,373L 189,370.75L 190,370L 191,368L 191.5,366.5L 192,365.25L 193,365.125L 194,365.5625L 195,366.2813L 197,368Z" style="fill:rgb(243,241,240);"/>
<path d="M 189,391L 190,389L 190,388L 188,387L 185,386L 181,386L 181,387L 183,388L 185,389L 186,389.5L 188,391Z" style="fill:rgb(243,241,240);"/>
<path d="M 190,270L 191,268L 191,258L 190,258L 190,263L 189.5,266L 189,267L 189,270Z" style="fill:rgb(243,241,240);"/>
<path d="M 197,296L 198,298L 199,298L 200,297L 200,294L 199.5,293L 199,290L 198,287L 197,284L 196.5,283L 196,280L 196,278L 197,276L 197,274L 196,274L 195,272L 194,272L 193,272L 192,272L 192,278L 192.5,279L 193,282L 194,283L 195,286L 195,289L 195.5,290L 196,293Z" style="fill:rgb(243,241,240);"/>
<path d="M 202,368.75L 201,366L 200,366L 199,367L 198,368L 198,369L 199.5,371L 200,372L 201,372.5L 202,373.25L 204,375L 205,376L 209,376L 210,375L 211,374L 211,373L 209,373L 206,372L 205,371L 204,370.5Z" style="fill:rgb(243,241,240);"/>
<path d="M 213,361L 212,364L 212,367L 211,370L 210,371L 210,372L 211,373L 213,373L 215,371.5L 216,371L 216,370L 216,368L 216.5,365L 217,364L 217,360L 215,360Z" style="fill:rgb(243,241,240);"/>
<path d="M 218,360L 218,358L 217.5,357L 217.5,355L 218,354L 218,350L 217.5,349L 217.25,347.75L 218,345L 218,337L 217,337L 216,338L 215,339L 215,341L 215.5,342L 216,345L 216,346.5L 215.5,349L 215,350L 215,353L 214.5,356L 214,357L 214,361L 215,361Z" style="fill:rgb(243,241,240);"/>
<path d="M 21,365L 19,364L 17,364L 15.5,364L 15,361L 15,359L 13,359L 12,360L 12,362L 13,365L 14,368L 16,369L 19,369L 21,368Z" style="fill:rgb(15,13,11);"/>
<path d="M 25,363L 24.5,362L 24,359.5L 24,358L 21,357L 20,357L 19,358L 19,359L 22,360L 23,363L 23,365L 24,365L 25,364Z" style="fill:rgb(15,13,11);"/>
<path d="M 29,357L 28,355L 26,355L 24,356L 24,358L 25,359L 26,360L 28,360L 29,358Z" style="fill:rgb(15,13,11);"/>
<path d="M 164,391L 165,390L 167,388.5L 168,388L 169,387L 170,386L 171,385L 172,384L 173,383L 174,382L 175,381L 176,380L 177,379L 178,378L 179,377L 179.5,376L 181,374L 181.5,373L 183,371L 184,369L 184,365L 182,363L 180.5,361L 180,360L 179,358L 177,358L 176,358L 175,358L 175,359.5L 174.5,362L 174,363L 173,365L 172,365L 171,365L 169,366L 168,367L 167.5,368L 166,370L 165,372.25L 164,373L 163.5,374L 162.75,375L 161,377L 160.5,378L 159.75,379L 158.875,380L 157.9375,381L 156.9688,382L 155.9844,383L 154.9922,384L 153.9961,385L 152,386.5L 151,387L 149,388.5L 148,389L 146,390.5L 145,391L 143,392L 141.75,393L 139,394L 137,395L 134,396L 131,397L 130,397.5L 127,398L 126,398.5L 123,399L 122,399.5L 119,400L 108,400L 105,399.5L 104,399L 102,399L 99,398.5L 98,398L 95,397.5L 94,397L 91,396L 89.5,395.5L 87,394.5L 86,394L 84,393L 82,392L 80.5,391.5L 79.25,390.75L 77,389L 76,388.5L 75,387.75L 73,386L 72,385.5L 71,384.75L 70,383.875L 69,382.9375L 68,381.9688L 67,380.9844L 65.5,379L 65,378L 64,377L 63,376L 61.5,374L 61,373L 59.5,371L 59,370L 57.5,368L 57,367L 56,367L 55,366.5L 54,365.5L 54,363L 54,360L 53,358L 52,357L 51,357L 51,360L 50.75,361.5L 49,361L 48,361L 48,364L 47.5,365.5L 46.75,366.75L 45.875,367.375L 44,367L 42,367L 41,368L 41,370L 42,372L 43.5,374L 44,375L 45,376L 46,377L 47,378L 48,379L 49,380L 50,381L 51,382L 52,383L 53,384L 54,385L 55,386L 56,387L 57,388L 59,389L 60,389.5L 61,390.25L 63,392L 64,392.5L 66,394L 68,395L 70,396L 72,397L 74,398L 75.5,398.5L 78,399.5L 79,400L 82,401L 85,401.5L 86,402L 89,403L 90.5,403L 93,403.5L 94,404L 96,404L 99,404.5L 100,405L 126,405L 127,404.5L 130,404L 132,404L 133,403.5L 136,403L 137,402.5L 140,402L 143,401L 146,400L 149,399L 151,398L 153,397L 155,396L 157,395L 159,394L 161,392.5L 162,392Z" style="fill:rgb(15,13,11);"/>
<path d="M 44,363L 43,362L 42,362L 42,367L 44,367Z" style="fill:rgb(15,13,11);"/>
<path d="M 46,369L 47,368L 47,364L 47,363L 47,361L 46,361L 45,361L 44,361L 44,368L 45,369Z" style="fill:rgb(15,13,11);"/>
<path d="M 102,246L 103,244L 103,235L 102,233L 101,232L 100,231L 98,230L 95,230L 92,231L 91,232L 90,234L 89,236L 89,243L 90,245L 91,247L 92,248L 94,249L 99,249L 100,248L 101,247ZM 98.5,236L 100.5,237L 100.5,239L 99.25,241L 98.125,241L 96.5,240L 96.25,238.75L 97,236Z" style="fill:rgb(15,13,11);"/>
<path d="M 108,254L 109,253L 109,252L 107.5,250L 107,249L 106,249L 105,251L 105,253L 106,254Z" style="fill:rgb(15,13,11);"/>
<path d="M 135,244L 139,244L 139,237L 138,234L 137,233L 136,232L 135,231L 134,230L 129,230L 127,231L 126,232L 125,233L 124,234L 123,236L 123,244L 126,244L 127,243L 127,241L 127.5,238L 128,237L 128.5,236L 130,234.5L 132,234.5L 133,235.25L 134.5,237L 135,240Z" style="fill:rgb(15,13,11);"/>
<path d="M 135,259L 133.5,259L 131,258.5L 130,258L 127,257L 126,257L 125,258L 125,259L 127,260L 129,261L 131,262L 133,262L 134,261L 135,260Z" style="fill:rgb(15,13,11);"/>
<path d="M 175,362L 174,361L 172,360L 171,360L 170.5,361.5L 169.5,364L 169,365L 169,366L 172,367L 173,367L 174,365L 175,363Z" style="fill:rgb(15,13,11);"/>
<path d="M 190,358L 189,357L 188,357L 187,358L 187,363L 188,363L 189,361L 190,359Z" style="fill:rgb(15,13,11);"/>
<path d="M 192,353L 193,352L 193,346L 192,346L 191,349L 191,353Z" style="fill:rgb(15,13,11);"/>
<path d="M 206,360L 205,360L 203,360L 203,362L 204.5,364L 205,365L 206,367L 207,368L 208,368L 209,365L 210,364L 210,360Z" style="fill:rgb(15,13,11);"/>
<path d="M 207,367L 206,365L 205,363L 204,363L 203,364L 203,366L 204,367L 205,368L 207,368Z" style="fill:rgb(15,13,11);"/>
<path d="M 214,356L 213,355.75L 212,354L 211,354L 210,357L 210,360L 211,360L 213,358.5L 214,358Z" style="fill:rgb(15,13,11);"/>
<path d="M 10,350L 10,340L 9,340L 9,350Z" style="fill:rgb(158,153,152);"/>
<path d="M 80,241L 80,235L 79,235L 79,241Z" style="fill:rgb(158,153,152);"/>
<path d="M 100,235L 97,235L 96,236L 96,241L 97,242L 100,242L 101,240L 101,236Z" style="fill:rgb(158,153,152);"/>
<path d="M 147,243L 147,235L 146,235L 146,243Z" style="fill:rgb(158,153,152);"/>
<path d="M 32,407L 33,407.5L 35,409L 36,409L 36,407L 34.5,405L 34,404L 34,401L 34.5,398L 35,397L 35,395L 34,395L 32,396L 31.5,399L 31,400L 31,404Z" style="fill:rgb(224,173,76);"/>
<path d="M 49,384L 47,385L 45,386L 45,388L 48,388L 51,387L 52.5,387.5L 55,389L 58,389L 58,388L 57,387L 56,386L 55,385L 54,384Z" style="fill:rgb(224,173,76);"/>
<path d="M 57,417L 54,416L 49,416L 49,417L 52,417.5L 53,418L 57,418Z" style="fill:rgb(224,173,76);"/>
<path d="M 80,418L 59,418L 59,419L 80,419Z" style="fill:rgb(224,173,76);"/>
<path d="M 88,266L 86,266L 85,266.5L 82,267L 80,268L 80,269L 86,269L 88,268Z" style="fill:rgb(224,173,76);"/>
<path d="M 90,416L 85,416L 84,416.5L 81,417L 81,418L 86,418L 87,417.5L 90,417Z" style="fill:rgb(224,173,76);"/>
<path d="M 102,264L 99,264L 98,264.5L 95,265L 92,265L 91,265.5L 88,266L 88,267L 94,267L 95,266.5L 98,266L 102,266Z" style="fill:rgb(224,173,76);"/>
<path d="M 103,412L 101,412L 100,412.5L 97.5,413L 96,413L 93,414L 90,415L 90,416L 94,416L 95,415.5L 98,415L 100,415L 102,414L 103,413Z" style="fill:rgb(224,173,76);"/>
<path d="M 128,264L 102,264L 102,265L 116,265L 119,265.5L 120,266L 126,266L 129,266.5L 130,267L 131.5,267L 134,267.5L 135,268L 137,268L 140,268.5L 141,269L 147,269L 147,268L 144,267.5L 143,267L 140,266.5L 139,266L 137.5,266L 135,265.5L 134,265L 132,265L 129,264.5Z" style="fill:rgb(224,173,76);"/>
<path d="M 135,416L 135,415L 133,414L 131.5,413.5L 129,412.5L 127,411L 124,410L 122,410L 122,411L 123,413L 124,414L 126,415L 129,416Z" style="fill:rgb(224,173,76);"/>
<path d="M 142,416L 136,416L 136,417L 139,417.5L 140,418L 141.5,418L 144,418.5L 145,419L 168,419L 169,418.5L 171.5,418L 173,418L 174,417.5L 177,417L 177,416L 171,416L 170,416.5L 167,417L 166,417.5L 163,418L 150,418L 147,417.5L 146,417L 143,416.5Z" style="fill:rgb(224,173,76);"/>
<path d="M 163,275L 162,274L 160,274L 160,276L 160,277L 160,280L 161,280L 162,279L 163,278Z" style="fill:rgb(224,173,76);"/>
<path d="M 183,387L 181,386L 179,385L 177,384L 176,383.5L 174,382L 173,382L 172,383L 171,384L 170,385L 170,387L 173,387L 174.5,387L 177,387.5L 178,388L 183,388Z" style="fill:rgb(224,173,76);"/>
<path d="M 188,412L 186,412L 185,412L 184,412L 182,413L 180,414L 178,415L 178,416L 183,416L 184,416L 185,416L 186,415L 187,414L 188,413Z" style="fill:rgb(224,173,76);"/>
<path d="M 193,396L 193,394L 192,393L 191,392L 190,391L 188,390L 185,390L 185,391L 186,392L 187,393L 188,394L 189,395L 192,396Z" style="fill:rgb(224,173,76);"/>
<path d="M 195,405L 195,398L 193,398L 193,400L 192.5,403L 192,404L 191.5,405L 190,407L 189,409L 189,410L 192,410L 193,409L 194,408Z" style="fill:rgb(224,173,76);"/>
<path d="M 47,315.5L 50,315L 50,314L 49,313.5L 47,312L 45,311L 44,310.5L 42,309L 40,308L 39,307.5L 38,306.75L 37,305.875L 36,304.9375L 35,303.9688L 34,302.9844L 33,301.9922L 32,300.9961L 31,299.998L 30,298.999L 28.5,297L 28,296L 27,296L 27,299L 28,301L 29,302L 30,303L 31,304L 32,304.5L 33,305.25L 34,306.125L 35,307.0625L 37,309L 39,310L 40,310.5L 41,311.25L 42.5,313L 43,314L 44,315L 45,316L 46,316Z" style="fill:rgb(73,29,6);"/>
<path d="M 38,273L 36,273L 36,275L 37,278L 38,280L 40,280L 40,278L 38.5,276Z" style="fill:rgb(73,29,6);"/>
<path d="M 44,282L 42,280L 40,280L 40,281L 41,283L 42,284L 43,285L 45,286L 46,286L 46,284L 45,283Z" style="fill:rgb(73,29,6);"/>
<path d="M 63,295L 61.5,294.5L 59,293.5L 58,293L 57,292.5L 55,291L 53,291L 53,292L 54,293L 55,294L 57,295L 59,296L 61,297L 63,298L 65,299L 66.5,299.5L 69,300.5L 70,301L 73,302L 76,303L 79,303.5L 80,304L 83,304.5L 84,305L 85.5,305L 88,305.5L 89,306L 92,306L 95,306.5L 96,307L 129,307L 130,306.5L 133,306L 136,306L 137,305.5L 139.5,305L 141,305L 142,304.5L 145,304L 148,303L 148,302L 144,302L 143,302.5L 140,303L 139,303.5L 136,304L 133,304L 132,304.5L 129.5,305L 128,305L 127,305.5L 124,306L 106,306L 103,305.5L 102,305L 95,305L 92,304.5L 91,304L 89.5,304L 87,303.5L 86,303L 83,302.5L 82,302L 79,301.5L 78,301L 75,300L 72,299.5L 71,299L 69,298L 67.5,297.5L 65,296.5Z" style="fill:rgb(73,29,6);"/>
<path d="M 75,269L 74,268L 72,268L 70.75,269L 68,270L 68,272L 69,272L 72,271L 75,270Z" style="fill:rgb(73,29,6);"/>
<path d="M 83,290L 81,289L 79,288L 77,287L 75,286L 74,286L 74,288L 75,289L 77,290L 80,291L 83,291Z" style="fill:rgb(73,29,6);"/>
<path d="M 79,269L 82,268L 82,266L 81,266L 80,266.5L 77,267L 75,268L 75,269Z" style="fill:rgb(73,29,6);"/>
<path d="M 92,266L 93,265.5L 96,265L 98,265L 98,264L 96,263L 95,263L 94,263.5L 91,264L 89,264L 88,264.5L 85,265L 83,266L 83,267L 86,267L 87,266.5L 90,266Z" style="fill:rgb(73,29,6);"/>
<path d="M 126,264L 126,263L 120,263L 117,262.5L 116,262L 111,262L 110,262.5L 107,263L 101,263L 101,264Z" style="fill:rgb(73,29,6);"/>
<path d="M 127,299L 126,299L 123,300L 122,300.5L 119.5,301L 118,301L 117,301.5L 114,302L 106,302L 106,303L 121,303L 122,302.5L 124.5,302L 126,302L 127,301Z" style="fill:rgb(73,29,6);"/>
<path d="M 144,268L 144,266L 141,265.5L 140,265L 138.5,265L 136,264.5L 135,264L 133,264L 130,263.5L 129,263L 127,263L 127,264L 128,265L 130,265L 133,265.5L 134,266L 135.5,266L 138,266.5L 139,267L 142,267.5L 143,268Z" style="fill:rgb(73,29,6);"/>
<path d="M 140,292L 139,292L 137,293L 135,294.5L 134,295L 132,296L 132,297L 135,297L 137,296L 139,295L 140,294Z" style="fill:rgb(73,29,6);"/>
<path d="M 160,271L 158,270L 155,269L 151,269L 151,270L 154,271L 157,272L 160,272Z" style="fill:rgb(73,29,6);"/>
<path d="M 159,281L 158,281L 156,282.5L 155,283L 153,284.5L 152,285L 152,286L 153,287L 154,287L 156,286L 157,285L 158,284L 159,283Z" style="fill:rgb(73,29,6);"/>
<path d="M 164,276L 163,276L 162.5,277L 161.75,278L 160.875,279L 159,281L 159,282L 161,282L 162,281L 163,280L 164,279Z" style="fill:rgb(73,29,6);"/>
<path d="M 169,293L 166,293L 164,294L 162,295.5L 161,296L 161,297L 164,297L 166,295.5L 167,295L 169,294Z" style="fill:rgb(73,29,6);"/>
<path d="M 174,291L 175,290L 176,289L 176,288L 174,288L 172,289L 171,290L 170,291L 169,292L 169,293L 171,293L 173,291.5Z" style="fill:rgb(73,29,6);"/>
<path d="M 182,283L 180,283L 179,284L 178,285L 177,286L 176,287L 176,288L 178,288L 179,287L 180,286L 181,285L 182,284Z" style="fill:rgb(73,29,6);"/>
<path d="M 180,315L 181,314L 182,313L 183,312L 183,311L 181,311L 179,312.5L 178,313L 176,314L 176,317L 177,317L 177.75,316Z" style="fill:rgb(73,29,6);"/>
<path d="M 185,312L 187,310L 188,309L 189,308L 191,306.5L 192,306L 194,304.5L 195,304L 195.5,303L 196.25,302L 198,300L 198,297L 197,297L 196.5,298L 195.75,299L 194.875,300L 193.9375,301L 192.9688,302L 191,303.5L 190,304L 189,305L 188,306L 187,307L 185,308.5L 184,309L 183,310L 183,313L 184,313Z" style="fill:rgb(73,29,6);"/>
<path d="M 187,281L 187.5,279.5L 188.5,277L 189,276L 189,272L 188,272L 187,273L 186.5,276L 186,277L 185,279L 185,282L 186,282Z" style="fill:rgb(73,29,6);"/>
<path d="M 37,361L 35.5,359L 35,358L 34,355L 33,352L 32,352L 31,353L 30,354L 29,356L 28,358L 27.5,359L 26.75,360L 25,362L 24.5,363L 23.75,364L 22.875,365L 21.9375,366L 20,367.5L 19,368L 18,368.5L 15,369L 15,370L 16,372L 17,373L 19,373L 19.25,372L 21,372L 22,372L 24,370L 25,369L 27,367.5L 28,367L 28,366L 27.5,365L 27.75,364L 29,363L 30,362L 31,361L 32,359L 33,360L 34,361L 35,362L 37,362Z" style="fill:rgb(222,215,209);"/>
<path d="M 118,407L 117,406L 116,405L 109,405L 108.5,408L 107.75,409L 106,410.5L 105,411L 103,412L 101,413.5L 100,414L 97,415L 95,416.5L 92,417L 91,417.5L 88,418L 87,418.5L 84.5,419L 83,419L 82,419.5L 79,420L 75,420L 74,420.5L 71,421L 69.5,421L 67,420.5L 66,420L 59,420L 56,419.5L 55,419L 52,418L 49,417.5L 48,417L 45,416.5L 44,416L 43,415.5L 41,414L 39.5,413.5L 37,412L 36,412L 36,414L 37,415L 38,416L 40.25,417L 41,418L 43,419L 45,420L 46.5,420.5L 49,421.5L 50,422L 52,422L 54,423L 56,423L 57,423L 66,423L 69,423.5L 70,424L 72,424L 73,423.5L 76,423L 83,423L 84,422.5L 87,422L 88,421.5L 90.5,421L 92,421L 94,420L 95,419.5L 98,419L 100,418L 102,417L 104,416L 105.25,415L 108,414L 109,413L 109.5,412L 110.5,411L 113,410L 115,410L 118,410Z" style="fill:rgb(222,215,209);"/>
<path d="M 44,373L 43,373L 42,374L 42,376L 44,378L 45,379L 47,379L 47,377L 46,376L 44.5,374Z" style="fill:rgb(222,215,209);"/>
<path d="M 51,381L 50,380L 49,379L 48,378L 47,378L 46,379L 46,381L 48,382L 51,382Z" style="fill:rgb(222,215,209);"/>
<path d="M 90,360L 90,331L 89,331L 89,360Z" style="fill:rgb(222,215,209);"/>
<path d="M 107,330L 104,331L 104,332L 114,332L 115,331.5L 118,331L 120,331L 120,330Z" style="fill:rgb(222,215,209);"/>
<path d="M 122,399L 120.5,399L 118,398.5L 117,398L 115,398L 114,399L 114,400L 122,400Z" style="fill:rgb(222,215,209);"/>
<path d="M 125,413.5L 123,412L 121,412L 121,413L 122,415L 124,416L 126,417L 128,418L 129.5,418.5L 132,419.5L 133,420L 136,421L 137.5,421L 140,421.5L 141,422L 145,422L 148,422.5L 149,423L 171,423L 172,422L 175,421L 177,421L 180,420L 183,419L 185,418L 187,416.5L 188,416L 188.5,415L 190,413.5L 191,413L 191,411L 190,411L 188,412L 187,413L 186,414L 185,414.5L 183,415L 181,416L 178,417L 176,418L 175,418.5L 172.5,419L 171,419L 170,419.5L 167,420L 163,420L 162,420.5L 159,421L 156,421L 153,420.5L 152,420L 144,420L 141,419.5L 140,419L 138,418L 135,417L 132,416L 129,415L 127.5,414.5Z" style="fill:rgb(222,215,209);"/>
<path d="M 184,368L 183,369L 182.5,370L 181,372L 180.5,373L 179,375L 178.5,376L 177.75,377L 176.875,378L 175.9375,379L 174,381L 174,383L 175,384L 176,384L 177,383L 178,382L 179,381L 180,380L 181,379L 181.5,378L 183,376L 184,375L 184.5,374L 186,372L 187,370L 187,368L 186,367L 185,367Z" style="fill:rgb(222,215,209);"/>
<path d="M 188,363L 187,363L 186,364L 186,368L 188,368L 189,366L 189,364Z" style="fill:rgb(222,215,209);"/>
<path d="M 200,367.25L 201,369L 202,370L 203,371L 205,373L 211,373L 212,371L 212,366L 211,366L 210.5,367L 209.5,368L 208.25,368L 206,367.5L 205,366.75L 204,365.875L 202,364L 201,363L 200,362L 199,361L 197.5,359L 197,358L 196,356L 195,354L 194,353L 193,352L 192,352L 191,354L 190.5,355.5L 189.5,358L 189,359L 188,361L 188,364L 190,364L 191,362L 192,360L 193,360L 194.5,360.25L 195.25,361.125L 196.5,363L 197,364L 198,366L 199,367Z" style="fill:rgb(222,215,209);"/>
<path d="M 61,389L 59,388L 58,388L 57,389L 57,390L 59,391L 60,391.5L 61,392.25L 63,394L 65,395L 68,395L 68,394L 67,393.5L 65,392L 64,391.5L 63,390.75Z" style="fill:rgb(191,131,46);"/>
<path d="M 71,399L 72.5,399.5L 75,400.5L 76,401L 79,401.5L 80,402L 81.5,402.5L 84,404L 85.5,404L 88,404.5L 89,405L 91,406L 94,406L 95,406L 96.5,406L 99,406.5L 100,407L 101.5,407L 104,408L 105,409L 107,409L 108,408L 109,407L 109,405L 104,405L 101,404.5L 100,404L 98,404L 95,403.5L 94,403L 92.5,403L 90,402.5L 89,402L 86,401L 83,400.5L 82,400L 80.5,399.5L 78,398.5L 77,398L 75.5,397.5L 73,396.5L 72,396L 70,396L 70,399Z" style="fill:rgb(191,131,46);"/>
<path d="M 118,301L 107,301L 107,302L 118,302Z" style="fill:rgb(191,131,46);"/>
<path d="M 123,411L 122,409L 122.5,408L 125,407L 126,406.5L 129,406L 134,406L 137,405L 140,404L 143,403L 144,402.5L 147,402L 149,401L 151,400L 153,399L 155,398L 157,397L 160,396L 161,395L 163,393.5L 164,393L 166,392L 167,391L 167,388L 166,388L 165,389L 163,390.5L 162,391L 160,392L 158,393.5L 157,394L 155,395L 153,396L 151,397L 149,398L 146,399L 143,400L 140,401L 139,401.5L 136,402L 135,402.5L 132,403L 131,403.5L 128,404L 126,404L 125,404.5L 122,405L 116,405L 116,406L 117,407.25L 118,410L 119,410.5L 121,412L 123,412Z" style="fill:rgb(191,131,46);"/>
<path d="M 195,282L 194,281L 193,278L 191,276L 190,276L 189,277L 188.5,278L 187.75,279L 186.875,280L 185.9375,281L 184.9688,282L 183.9844,283L 182.9922,284L 181.9961,285L 180.998,286L 179.999,287L 178.9995,288L 177.9998,289L 176,290.5L 175,291L 173,292L 171,293.5L 168.5,294L 167,294L 165,295L 164,296L 163,297L 161,298.5L 160,299L 157,300L 155,301L 154,301.5L 151,302L 149,303L 146,304L 143,305L 142,305.5L 139,306L 137,306L 136,306.5L 133.5,307L 132,307L 131,307.5L 128,308L 120,308L 119,308.5L 116,309L 108,309L 105,308.5L 104,308L 99,308L 96,307.5L 95,307L 91,307L 88,306.5L 87,306L 84.75,305L 84,304L 79,304L 76,303.5L 75,303L 73.5,302.5L 71,301L 70,300L 68,299L 66,299L 63,298.5L 62,298L 60,297L 58,296L 57,295.5L 55.5,294L 55,293L 53.5,292.5L 51,291.5L 50,291L 49,290.5L 48,289.75L 47,288.875L 46,287.9375L 44,286L 43,285.25L 42,283L 41,281L 40,280L 39,279L 38,277.75L 37,275L 36,274L 35,274L 34,275L 33.5,276.5L 32,279L 32,281L 31.5,284L 31,285L 30.5,286.5L 29,289L 29,296L 30,298L 31,299L 32,300L 33,301L 34,302L 35,303L 36,304L 37,305L 39,307L 41,308L 42,308.5L 44,310L 45,310.5L 46.5,312L 47,313L 48,314L 49.5,314.5L 52,315.5L 54,317L 55.5,317.5L 58,319L 60,320L 62,321L 62,323L 62,324L 61.5,327L 61,328L 60.5,331L 60,332L 59.5,335L 59,336L 59,352L 60.5,354L 61,355L 62,356L 63,357L 65,358L 66.5,358L 69,358.5L 70,359L 73,360L 76,360.5L 77,361L 81,361L 82,360.5L 84.5,360L 86,360L 87,359L 87,334L 86.5,333L 86.5,331L 88,329L 90,327.5L 91.5,327.25L 94,327.5L 95,328L 98,328.5L 99,329L 124,329L 127,329.5L 128,330L 134,330L 134,329L 132.5,328.75L 134,327.5L 136.5,327L 139,327.5L 140,328L 144,328L 145.25,327L 148,326L 148.5,325L 150,323.5L 152.5,323L 154,323L 157,322L 160,321L 163,320L 165,319L 167,317.5L 168,317L 171,316L 173,315L 175,314L 177,313L 179,312L 181,310.5L 182,310L 184,309L 185,308L 186,307L 187,306L 188,305L 190,303.5L 191,303L 192,302L 194,300L 195,299L 196,298L 196,294L 195.5,293L 195,290Z" style="fill:rgb(224,42,18);"/>
<path d="M 30,296L 29,295L 28,295L 28,298L 29,299L 30,300L 31,301L 32,302L 33,303L 34,304L 35,305L 36,306L 37,307L 38,308L 40,309L 41,309.5L 43,311L 45,312L 47,312L 47,311L 46,310L 45,309.5L 43,308L 42,307.5L 40,306L 39,305L 38,304.5L 37,303.75L 36,302.875L 35,301.9375L 34,300.9688L 33,299.9844L 32,298.9922L 30.5,297Z" style="fill:rgb(171,53,30);"/>
<path d="M 50,289L 49,288.5L 48,287.75L 47,286.875L 45,285L 43,284L 42,284L 42,286L 43,286.5L 44,287.25L 45,288.125L 46,289.0625L 48,291L 50,292L 52,293L 54,293L 54,292L 53,291L 52,290.5Z" style="fill:rgb(171,53,30);"/>
<path d="M 65,298L 63,297L 61,296L 59,295L 57,294L 55,294L 55,295L 56,296L 58,297L 60,298L 62,299L 65,299Z" style="fill:rgb(171,53,30);"/>
<path d="M 75,362L 78,362L 78,361L 77,360L 74,359.5L 73,359L 70,358L 68.5,358L 66,357.5L 65,357L 64,356.5L 63,355.75L 61.5,354L 61,353L 59.5,351L 59,348L 59,339L 58,339L 58,354L 59,355L 60,356L 61,357L 62,358L 64,359L 67,360L 70,360.5L 71,361L 74,361.5Z" style="fill:rgb(171,53,30);"/>
<path d="M 62,328L 63,326L 63,324L 64,322L 64,321L 62,320L 61,320L 60,321L 60,324L 59.5,327L 59,328L 59,336L 60,336L 60.5,333L 61,332L 61.5,329Z" style="fill:rgb(171,53,30);"/>
<path d="M 80,303L 77,302.5L 76,302L 73,301L 70,301L 70,302L 72,303L 75,304L 80,304Z" style="fill:rgb(171,53,30);"/>
<path d="M 82,281L 80,280L 78,280L 78,281L 79,282L 80,283L 82,284L 84,285L 86,286L 88,287L 90,288L 91.5,288.5L 94,289.5L 96,291L 98,292L 99,292.5L 100,293.25L 102,295L 104,296L 107,297L 119,297L 122,296L 124,295L 126,293.5L 127,293L 129,291.5L 130,291L 132,290L 134,289L 136,288L 138,287L 140,286L 142,285L 144,284L 146,283L 147,282L 148,281L 148,280L 146,280L 144,281L 142,282L 141,282.5L 138,283L 136,284L 135,284.5L 132.5,285L 131,285L 130,285.5L 127.5,286L 126,286L 125,286.5L 122,287L 105,287L 102,286.5L 101,286L 99,286L 96,285.5L 95,285L 92,284.5L 91,284L 88,283L 85,282.5L 84,282Z" style="fill:rgb(171,53,30);"/>
<path d="M 86,362L 87,361L 88,360L 89,358L 89,328L 87,328L 86,330L 86,334L 86.5,335L 87,338L 87,355L 86.5,358L 85,359.5L 82.5,360L 81,360L 78,361L 78,362Z" style="fill:rgb(171,53,30);"/>
<path d="M 89,305L 84,305L 84,306L 87,307L 91,307L 94,307.5L 95,308L 100,308L 103,308.5L 104,309L 120,309L 121,308.5L 124,308L 132,308L 133,307.5L 135.5,307L 137,307L 138,306.5L 141,306L 143,306L 146,305L 149,304L 151,303L 151,302L 148,302L 145,303L 144,303.5L 141,304L 140,304.5L 137.5,305L 136,305L 135,305.5L 132,306L 129,306L 128,306.5L 125,307L 100,307L 97,306.5L 96,306L 93,306L 90,305.5Z" style="fill:rgb(171,53,30);"/>
<path d="M 96,330L 99,330L 99,328L 96,327.5L 95,327L 89,327L 89,328L 92,329L 95,329.5Z" style="fill:rgb(171,53,30);"/>
<path d="M 128,329L 99,329L 99,330L 128,330Z" style="fill:rgb(171,53,30);"/>
<path d="M 136,329L 137,328.5L 140,328L 140,327L 133,327L 130,328L 130,329Z" style="fill:rgb(171,53,30);"/>
<path d="M 150,326L 152,325L 155,324L 158,323L 161,322L 163,321L 163,320L 160,320L 157,321L 154,322L 153,322.5L 150.5,323L 149,323L 148,324L 148,326Z" style="fill:rgb(171,53,30);"/>
<path d="M 164,297L 161,297L 159,298L 156,299L 154,300L 151,301L 151,302L 155,302L 157,301L 160,300L 162,299L 164,298Z" style="fill:rgb(171,53,30);"/>
<path d="M 168,319L 170,318L 172,317L 173,316.5L 174,316.25L 176,316L 177,315L 179,313.5L 180,313L 182,311.5L 183,311L 184,310L 184,309L 182,309L 180,310L 178,311.5L 177,312L 175,313L 173,314L 171,315L 168,316L 166,317L 164,318.5L 163,319L 163,320L 166,320Z" style="fill:rgb(171,53,30);"/>
<path d="M 177,291L 178,290L 179,289L 180,288L 181,287L 182,286L 183,285L 184,284L 185,283L 185,282L 183,282L 182,283L 181,284L 180,285L 179,286L 177,287.5L 176,288L 175,289L 173,290.5L 172,291L 170,292.5L 169,293L 169,294L 172,294L 174,292.5L 175,292Z" style="fill:rgb(171,53,30);"/>
<path d="M 194,302L 195,301L 196,300L 197,299L 198,297L 198,296L 197,293L 196.5,292L 196,289L 195,289L 195,294L 195.5,295L 195.5,297L 194.75,298L 193,299.5L 192,300L 191.5,301L 190,302.5L 189,303L 188,304L 187,305L 186,306L 185,307L 184,308L 184,309L 186,309L 187,308L 188,307L 189,306L 191,304.5L 192,304L 193,303Z" style="fill:rgb(171,53,30);"/>
<path d="M 191,278L 192,278L 192,274L 191,273L 189,273L 188.5,274.5L 187.5,277L 187,278L 187,280L 188,280L 189,279L 189.5,278Z" style="fill:rgb(171,53,30);"/>
<path d="M 36,393L 35,393L 34.5,396L 34,397L 33.5,400L 33,401L 33,404L 34,406L 35,406L 35,404L 36,401L 37,400L 37,398L 36.5,397L 36,394.5Z" style="fill:rgb(246,173,32);"/>
<path d="M 45,387L 42,387L 40,388.5L 39,389L 38,390L 37,391L 36,392L 36,395L 38,395L 39,394.25L 39.5,395.125L 39.5,397L 38,399L 38,400L 41,400L 42,399L 43,398L 45,396.5L 46,396L 46,392L 47,389.5L 48,389L 48,388Z" style="fill:rgb(246,173,32);"/>
<path d="M 47,416L 47,414L 46,412L 45,411L 42,410.5L 40,409L 39,408.5L 37,407L 36,407L 36,410L 37,411L 38,412L 39,413L 40.5,413.5L 43,415L 45,416Z" style="fill:rgb(246,173,32);"/>
<path d="M 41,402L 40,402L 39,403L 39,406L 42,406L 42,403Z" style="fill:rgb(246,173,32);"/>
<path d="M 70,395L 68.5,395L 66,394.5L 65,394L 64,393.5L 63,392.75L 61,391L 60,391L 59,391.75L 58,391.875L 57,391.4375L 57,390L 57,389L 56,388.5L 55,387.75L 53,386L 51,386L 48,387L 48,388L 48.5,389L 48.5,391L 47,393L 47,394L 48,397L 50,398L 53,398L 54,397.5L 57,397L 61,397L 62,396.25L 63,396.125L 64,396.5625L 64,398L 64,399L 66,400L 69,400L 70,399Z" style="fill:rgb(246,173,32);"/>
<path d="M 81,418L 82,417.5L 85,417L 85,416L 79,416L 78,416.5L 75,417L 62,417L 59,416.5L 58,416L 55,415L 47,415L 47,416L 50,416L 53,416.5L 54,417L 57,418Z" style="fill:rgb(246,173,32);"/>
<path d="M 68,282L 68,280L 67.5,279L 67.25,278L 67,275L 67,272L 66,272L 64,273L 63,274L 62,275L 62,277L 63,279L 64,279.5L 65,280.25L 67,282Z" style="fill:rgb(246,173,32);"/>
<path d="M 71,284L 71,281L 70,280L 68,280L 68,283L 70,284Z" style="fill:rgb(246,173,32);"/>
<path d="M 151,278L 152,279L 153,279L 153,277L 153.25,275.5L 155.125,275.25L 156.5625,275.125L 160,275L 162,274L 162,273L 160,272L 157,271L 154,270L 151,269.5L 150,269L 145,269L 142,268.5L 141,268L 139,268L 136,267.5L 135,267L 133.5,267L 131,266.5L 130,266L 124,266L 121,265.5L 120,265L 102,265L 101,265.5L 98,266L 94,266L 93,266.5L 90,267L 88,267L 86,268L 85,268.5L 83.5,268.75L 81,268.5L 80,268L 79,268L 78,268.5L 75,269L 72,270L 69,271L 69,273L 70,274L 70.75,275L 70.875,276L 71,279L 71,281L 73,281L 75,281L 78,281L 78,280L 77,279.5L 76.25,278.75L 78,276.5L 81,276L 82,275L 82,273L 78,273L 77,273L 76,273L 75,273.5L 76,272.5L 77,272L 78,271.5L 79.25,271.25L 80.625,271.625L 83,273L 85,274L 92,274L 93.25,273L 96,272L 97,271L 98.5,270.5L 101,270.5L 102,271L 103.5,271L 106,271.5L 107,272L 108,272L 109,271.5L 111,272L 112,272L 113,271.5L 116,271L 120,271L 121,271L 122,271L 123,270.5L 124.25,270.25L 125,272L 125,273.5L 122,274L 114,274L 114,275L 128,275L 130,274L 131,273L 132,272L 133,271L 133.5,270L 135,269.5L 136,270L 137.125,270.5L 137,272L 137,274L 138.5,274.5L 141,276L 146,276L 146,274L 145,273L 143.5,272.5L 143.75,271.5L 145.125,271.25L 148,272L 149.75,273L 150,274L 150.5,275Z" style="fill:rgb(246,173,32);"/>
<path d="M 75,399.5L 73,398L 71,398L 70,399L 70,400L 71.5,402L 72,403L 78,403L 78,402L 77,401L 76,400Z" style="fill:rgb(246,173,32);"/>
<path d="M 81,290L 83,290L 83,287L 81,286L 79.5,285.5L 77,284L 75,284L 73,285L 73,286L 75,287L 77,288L 79,289Z" style="fill:rgb(246,173,32);"/>
<path d="M 151,278L 150,277L 149,276L 147,276L 146,277L 145,278L 143,279.5L 140.5,280L 139,280L 136,281L 134,282L 132.75,283L 130,283L 128,283L 127.5,284L 125,285L 117,285L 116,285.5L 113,286L 110,286L 107,285.5L 106,285L 102,285L 99,284.5L 98,284L 95,283L 93,283L 90,282.25L 89,280L 87,280L 84,279.5L 82,278L 79,278L 78,279L 78,280L 80,281L 82,282L 84,283L 87,283.5L 88,284L 91,285L 94,285.5L 95,286L 97,286L 100,286.5L 101,287L 126,287L 127,286.5L 129.5,286L 131,286L 132,285.5L 134.5,285L 136,285L 138,284L 139,283.5L 142,283L 144,282L 146,281L 147,280.5L 150,280L 151,279Z" style="fill:rgb(246,173,32);"/>
<path d="M 88,287L 88,286L 86,285L 84,284L 82,283L 79,283L 79,284L 80.5,286L 81,287Z" style="fill:rgb(246,173,32);"/>
<path d="M 91,405L 89,404L 84,404L 84,405L 85,405.75L 86,408L 87,408L 88,407.5L 91,407Z" style="fill:rgb(246,173,32);"/>
<path d="M 104,410L 99,410L 96,411L 94,412.5L 91.5,413L 90,413L 88,414.5L 85,415L 85,416L 90,416L 93,415L 96,414L 97,413.5L 99.5,413L 101,413L 103,412L 104,411Z" style="fill:rgb(246,173,32);"/>
<path d="M 101,293L 100,292L 98,291L 97,290.5L 95,289L 93,288L 90,287L 87,287L 87,288L 88,289L 90,290L 92,291L 94,292L 95,292.5L 97,294L 99,295L 102,295L 102,294Z" style="fill:rgb(246,173,32);"/>
<path d="M 93,274L 93,275L 94,276L 97,276L 99,276L 107,276L 108,275.5L 111,275L 113,275L 113,274Z" style="fill:rgb(246,173,32);"/>
<path d="M 126,300L 127,299L 127,298L 125,298L 123.5,297.75L 123,295L 122,295L 119,296L 118,296.5L 115,297L 111,297L 108,296.5L 107,296L 103,296L 103,297L 104,297.5L 102,299L 100,299L 100,300L 102,301L 123,301Z" style="fill:rgb(246,173,32);"/>
<path d="M 132,412L 130.5,411.5L 128,410L 124,410L 124,411L 125.5,411.5L 128,413L 130,414L 131.5,414.5L 134,415.5L 135,416L 138,416L 141,416.5L 142,417L 145,417.5L 146,418L 167,418L 168,417.5L 171,417L 172,416.5L 175,416L 178,416L 178,415L 170,415L 169,415.5L 166,416L 165,416.5L 162,417L 153,417L 150,416.5L 149,416L 147.5,416L 145,415.5L 144,415L 140,415L 137,414.5L 135,413Z" style="fill:rgb(246,173,32);"/>
<path d="M 130,290L 128,291L 126,292.5L 125,293L 125,295L 127,295L 129,294L 131,293L 132,292L 133,291L 134,290L 134,289L 132,289Z" style="fill:rgb(246,173,32);"/>
<path d="M 134,277L 135,276L 135,274L 132,274L 131,275L 130,276L 130,277Z" style="fill:rgb(246,173,32);"/>
<path d="M 145,290L 145,288L 142,288L 140,289L 137,290L 136,291L 136,294L 137,294L 139,293L 141,292L 143,291Z" style="fill:rgb(246,173,32);"/>
<path d="M 152,278L 151,278L 149,279.5L 148,280L 147,281L 145,282.5L 144,283L 142,284L 140,285L 138,286L 136,287L 136,288L 140,288L 142,287L 145,286L 145,287L 145,289L 146,289L 148,288L 151,287L 153,285.5L 154,285L 154,284L 152.5,284L 151.25,283.5L 151.125,282.25L 152,280.5L 153,280L 153,279Z" style="fill:rgb(246,173,32);"/>
<path d="M 145,401L 144,401L 143,402L 143,403L 144,406L 146,406L 148,405L 150,404L 151,403L 151,402L 151,401L 151,400L 149,400L 147,401L 146,401.5Z" style="fill:rgb(246,173,32);"/>
<path d="M 157,283L 158,282L 159,281L 159,279L 156,279L 155,280L 154,281L 154,284L 155,284Z" style="fill:rgb(246,173,32);"/>
<path d="M 159,400L 160.25,399L 161.75,399L 162,400L 167,400L 167,398L 166,397.5L 165,396.75L 164.25,395.875L 164,393L 162,393L 160,394L 159.25,395L 157,396L 157,399L 158,400Z" style="fill:rgb(246,173,32);"/>
<path d="M 194,398L 194,396L 192,395L 190.5,394.5L 189.25,393.75L 188.125,392.875L 187.0625,391.9375L 187,389L 185,388L 182,388L 179,387.5L 178,387L 176,386L 173,386L 170,386L 169,386L 168,387L 167,388L 166.5,389.5L 165,391.5L 164,392L 164,393L 167,393.5L 168.5,395L 169,396L 170,397L 172,397L 173,396L 174,395L 176.5,394L 178,394L 179,393L 179.5,392L 180.25,391.25L 181.375,391.625L 180.9375,392.8125L 179,394L 178,395L 177.5,396L 176,397.5L 175,398L 174,399L 174,400L 179,400L 181,399L 182,398L 183,397L 185,395.5L 186,395.75L 187,397L 188,398L 190.25,399L 191.125,400.25L 191.0625,401.625L 190.5,404L 189,406L 188.5,407L 187,409L 187,410L 189,410L 190,409L 190.5,408L 192,406L 193,404L 193,402L 193.5,399ZM 171,390.75L 171.25,391.875L 170.75,392L 170,391Z" style="fill:rgb(246,173,32);"/>
<path d="M 182,413L 180.5,413L 178,412.5L 177,412L 176,412L 176,414L 178,415L 180,415L 182,414Z" style="fill:rgb(246,173,32);"/>
<path d="M 191,410L 184,410L 184,412L 185,413L 186,413L 187,412.5L 190,412L 191,411Z" style="fill:rgb(246,173,32);"/>
<path d="M 57,418L 54,417.5L 53,417L 50,416.5L 49,416L 46,415.5L 45,415L 44,414.5L 42,413L 40.5,412.5L 39.25,411.75L 38.125,410.875L 37.0625,409.9375L 36.0313,408.9688L 34,407L 33,407L 33,409L 34,410L 35,411L 36,412L 37,413L 38,414L 39.5,414.5L 42,416L 44,417L 47,417.5L 48,418L 51,418.5L 52,419L 55,420L 62,420L 65,420.5L 66,421L 75,421L 76,420.5L 79,420L 83,420L 84,419.5L 86.5,419L 88,419L 89,418.5L 92,418L 93,417.5L 96,417L 97,416L 97,415L 94,415L 93,415.5L 90,416L 89,416.5L 86,417L 85,417.5L 82,418L 80,418L 79,418.5L 76,419L 63,419L 60,418.5L 59,418Z" style="fill:rgb(235,197,157);"/>
<path d="M 58,352L 58,344L 57,344L 57,352Z" style="fill:rgb(235,197,157);"/>
<path d="M 59,339L 59,330L 58,330L 58,339Z" style="fill:rgb(235,197,157);"/>
<path d="M 92,328L 89,328L 89,331L 90,331L 91,330L 92,329Z" style="fill:rgb(235,197,157);"/>
<path d="M 107,330L 101,330L 101,331L 107,331Z" style="fill:rgb(235,197,157);"/>
<path d="M 109,407L 108,407L 107,408L 105,409.5L 104,410L 103,411L 103,412L 105,412L 107,411L 108,410L 109,409Z" style="fill:rgb(235,197,157);"/>
<path d="M 126,330L 120,330L 120,331L 126,331Z" style="fill:rgb(235,197,157);"/>
<path d="M 140,417L 137,416.5L 136,416L 132,416L 132,417L 135,418L 136.5,418.5L 139,419.5L 140,420L 148,420L 151,420.5L 152,421L 163,421L 164,420.5L 167,420L 171,420L 172,419.5L 174.5,419L 176,419L 178,418L 181,417L 181,416L 177,416L 176,416.5L 173,417L 172,417.5L 169.5,418L 168,418L 167,418.5L 164,419L 149,419L 146,418.5L 145,418L 143.5,418L 141,417.5Z" style="fill:rgb(235,197,157);"/>
<path d="M 106,409L 105,407L 103.5,407L 101,406.5L 100,406L 98.5,406L 96,405.5L 95,405L 94,405L 91,406L 90,406.5L 88.5,406.75L 87.25,406.625L 86,405L 84,403L 83,402L 80,401L 77,401L 76.5,402L 75.25,402.5L 73,402L 72,401L 71,400L 70,399L 69,399L 67.5,399L 66.25,398.75L 66,397L 65,396L 64,395L 62,395L 60,396.5L 57,397L 53,397L 51.5,397L 49,396.25L 48.5,395.125L 48.25,394.0625L 48.625,393.0313L 49.5,391L 50,390L 50,388L 48,388L 46,389L 45,390L 44,391L 44,392L 45,393L 45,395L 44,396L 43,397L 42,398L 40.75,399L 40.375,397.5L 40.5,395L 41,394L 41,393L 39,393L 37,394.5L 36,395L 36,398L 35,400L 35,407L 36,407.5L 38,409L 39,409.5L 41,411L 44,411.5L 45.5,413L 46,414L 47,415L 51,415L 54,415.5L 55,416L 58,417L 79,417L 80,416.5L 83,416L 85,416L 86,415.5L 89,415L 91,413.5L 93.5,413L 95,413L 96.25,412L 99,411L 100,410.5L 103,410L 106,410ZM 41,403.75L 41.25,405.25L 39.75,405.25L 40,403Z" style="fill:rgb(251,173,12);"/>
<path d="M 59,390L 55,390L 55,392L 57,393L 59,393L 60,392L 60,391Z" style="fill:rgb(251,173,12);"/>
<path d="M 71,281L 71.5,278L 72,277L 72,275L 71,274L 70,273L 69,272L 67,272L 67,273.5L 66.5,276L 66,277L 66,278L 67,280L 70,281Z" style="fill:rgb(251,173,12);"/>
<path d="M 79,281L 76,280.5L 75,280L 73,280L 71,281L 71,285L 75,285L 78,286L 81,286L 81,285L 80.5,284L 80,282Z" style="fill:rgb(251,173,12);"/>
<path d="M 151,278L 151,274L 151,273L 151,272L 148,271L 145,270L 143,270L 141,271L 141,272L 142,273L 143.5,273.5L 144.5,274.25L 143.5,275.125L 142.25,275.0625L 140,274L 138.875,273.5L 139,272L 139,270L 136,269L 132,269L 132,270L 131.5,271L 130.75,272L 129,273.5L 128,274L 127,274.5L 124,275L 118,275L 116.5,274.75L 118,274L 126,274L 127,273L 127,272L 127,271L 127,270L 124,270L 121,269L 120,269L 119,270L 116,271L 112,271L 110,270L 109,270L 108,270.5L 105.5,271L 103,270.5L 102,270L 96,270L 95.25,271L 93,272L 91,273.5L 88.5,274L 86,273.5L 85,273L 84,272.5L 82,271L 77,271L 75,272L 73,273L 73,274L 74,275L 76,275L 78,274L 79,273.5L 80,273.75L 80,275.5L 77,276L 75,277L 75,279L 76,280L 78,280L 79.25,279L 80.625,279L 83,280L 85,280L 88,280.75L 89,283L 91,283L 94,283.5L 95,284L 98,285L 102,285L 105,285.5L 106,286L 117,286L 118,285.5L 121,285L 129,285L 131.5,284L 133,284L 135,282.5L 136,282L 139,281L 140,280.5L 142.5,280L 144,280L 145,279L 146,278L 147,277.25L 148,277.125L 150,278ZM 97,274L 109,274L 110.5,274.25L 109,275L 107,275L 106,275.5L 103,276L 100,275.5L 99,275L 97,275L 95.5,275L 95.5,274.5ZM 133,276.5L 132,276.25L 132.75,275.125Z" style="fill:rgb(251,173,12);"/>
<path d="M 104,295L 102.5,295L 100,294.5L 99,294L 98,293.5L 96,292L 94,291L 92,290L 90,289L 89,288.5L 87,287L 83,287L 83,291L 84,292L 86,293L 88,294L 90,295L 91,295.5L 93,297L 95,298L 97,299L 106,299L 106,298L 105,297Z" style="fill:rgb(251,173,12);"/>
<path d="M 136,295L 136.5,292L 137.5,291L 140,290L 142,289L 145,288L 146,287L 147,286L 147,285L 145,285L 142,286L 140,287L 139,287.5L 136,288L 134,288L 133.5,289L 132.75,290L 131.875,291L 130,292.5L 129,293L 127,294L 125,294L 124,294L 123,295L 121,297L 121,298L 123,298L 126,298.5L 127,299L 128,299L 130,298L 132,297L 134,296Z" style="fill:rgb(251,173,12);"/>
<path d="M 157,397L 155,397L 153,398L 151,399L 150,401L 150,402L 149,403.5L 148,404L 146,405L 145,404.75L 144,403L 140,403L 137,404L 134,405L 133,405.5L 130,406L 125,406L 124,406.5L 121,407L 121,409L 122,410L 124,410L 127,410.5L 129,412L 132,413L 133.5,413.5L 136,415L 140,415L 143,415.5L 144,416L 145.5,416L 148,416.5L 149,417L 166,417L 167,416.5L 170,416L 171,415.5L 174,415L 178,415L 178,414L 177,412L 177,413L 184,413L 184.75,410.75L 187,410L 188,409L 189,408L 189.5,407L 191,405L 192,403L 192,400L 191,398L 189.5,397.5L 188.75,396.75L 188,395L 184,395L 182,396L 181.5,397L 180,398.5L 179,399L 178,399.5L 176.75,399.75L 176.125,398.5L 177,398L 178,397L 178.5,396L 179.5,395L 182,394L 183,393L 183,391L 182,390L 180,390L 179,391L 178.5,392L 177,393.5L 174.5,394L 173,394L 172.5,395L 171.75,395.75L 169.5,395L 169,394L 168,393L 164,393L 163,394L 163,396L 164,397L 165,398L 164.25,399L 163.25,399L 163,398L 160,398L 159,398.5L 157.5,398Z" style="fill:rgb(251,173,12);"/>
<path d="M 161,276L 160,275L 158,274L 157,274L 154,273L 153,273L 153,276L 152,279L 151,280L 150,281L 149,282L 149,284L 154,284L 154.5,282.5L 155.25,281.25L 156.375,280.125L 158.25,280L 159,281L 160,281L 160.5,278L 161,277Z" style="fill:rgb(251,173,12);"/>
<path d="M 173,390L 169,390L 169,391L 170,393L 173,393L 173,392L 173,391Z" style="fill:rgb(251,173,12);"/>
</svg>