<svg width="229" height="264"
     xmlns="http://www.w3.org/2000/svg" version="1.1">
<style>path {fill-opacity:1; stroke:none;}</style>
<path d="M 57,240L 56,240L 56,241L 53,241L 53,242L 51,242L 51,243L 48,243L 48,244L 46,244L 46,245L 43,245L 43,246L 41,246L 41,247L 40,247L 40,248L 38,248L 38,249L 37,249L 37,250L 36,250L 36,251L 35,251L 35,252L 34,252L 34,254L 33,254L 33,258L 34,258L 34,259L 36,259L 36,260L 39,260L 39,261L 96,261L 96,260L 95,260L 95,259L 96,259L 96,258L 91,258L 91,257L 87,257L 87,256L 84,256L 84,255L 81,255L 81,254L 78,254L 78,253L 76,253L 76,252L 73,252L 73,251L 72,251L 72,250L 70,250L 70,249L 68,249L 68,248L 66,248L 66,247L 65,247L 65,246L 63,246L 63,245L 62,245L 62,244L 60,244L 60,243L 59,243L 59,242L 58,242L 58,241L 57,241ZM 36,253L 37,253L 37,252L 38,252L 38,251L 40,251L 40,250L 41,250L 41,249L 43,249L 43,248L 45,248L 45,247L 47,247L 47,246L 48,246L 48,245L 51,245L 51,244L 55,244L 55,243L 57,243L 57,244L 59,244L 59,245L 60,245L 60,246L 61,246L 61,247L 62,247L 62,248L 64,248L 64,249L 66,249L 66,250L 68,250L 68,251L 69,251L 69,252L 71,252L 71,253L 73,253L 73,254L 75,254L 75,255L 77,255L 77,256L 80,256L 80,257L 83,257L 83,258L 86,258L 86,260L 48,260L 48,259L 41,259L 41,258L 37,258L 37,256L 36,256Z" style="fill:rgb(224,175,64);"/>
<path d="M 162,97L 162,95L 161,95L 161,94L 160,94L 160,93L 158,93L 158,92L 155,92L 155,91L 152,91L 152,90L 148,90L 148,89L 144,89L 144,88L 138,88L 138,87L 119,87L 119,86L 99,86L 99,87L 89,87L 89,88L 83,88L 83,89L 78,89L 78,90L 74,90L 74,91L 71,91L 71,92L 69,92L 69,93L 67,93L 67,94L 66,94L 66,95L 65,95L 65,98L 66,98L 66,99L 68,99L 68,100L 70,100L 70,101L 72,101L 72,102L 74,102L 74,103L 76,103L 76,104L 78,104L 78,105L 80,105L 80,106L 83,106L 83,107L 86,107L 86,108L 89,108L 89,109L 93,109L 93,110L 97,110L 97,111L 103,111L 103,112L 123,112L 123,111L 129,111L 129,110L 134,110L 134,109L 137,109L 137,108L 140,108L 140,107L 143,107L 143,106L 146,106L 146,105L 149,105L 149,104L 151,104L 151,103L 153,103L 153,102L 155,102L 155,101L 157,101L 157,100L 158,100L 158,99L 160,99L 160,98L 161,98L 161,97ZM 69,98L 69,95L 70,95L 70,94L 71,94L 71,93L 76,93L 76,92L 79,92L 79,91L 82,91L 82,90L 90,90L 90,89L 100,89L 100,88L 127,88L 127,89L 137,89L 137,90L 145,90L 145,91L 149,91L 149,92L 153,92L 153,93L 155,93L 155,94L 156,94L 156,95L 157,95L 157,96L 158,96L 158,97L 157,97L 157,98L 155,98L 155,100L 152,100L 152,101L 150,101L 150,102L 147,102L 147,103L 145,103L 145,104L 143,104L 143,105L 140,105L 140,106L 136,106L 136,107L 133,107L 133,108L 128,108L 128,109L 122,109L 122,110L 103,110L 103,109L 98,109L 98,108L 93,108L 93,107L 89,107L 89,106L 86,106L 86,105L 84,105L 84,104L 81,104L 81,103L 79,103L 79,102L 76,102L 76,101L 74,101L 74,100L 73,100L 73,99L 71,99L 71,98Z" style="fill:rgb(224,175,64);"/>
<path d="M 193,258L 193,253L 192,253L 192,251L 191,251L 191,250L 190,250L 190,249L 188,249L 188,248L 187,248L 187,247L 186,247L 186,246L 183,246L 183,245L 181,245L 181,244L 179,244L 179,243L 176,243L 176,242L 173,242L 173,240L 172,240L 172,239L 171,239L 171,240L 170,240L 170,242L 168,242L 168,243L 166,243L 166,244L 165,244L 165,245L 163,245L 163,246L 162,246L 162,247L 160,247L 160,248L 159,248L 159,249L 157,249L 157,250L 155,250L 155,251L 153,251L 153,252L 151,252L 151,253L 148,253L 148,254L 146,254L 146,255L 143,255L 143,256L 139,256L 139,257L 135,257L 135,258L 133,258L 133,259L 131,259L 131,260L 132,260L 132,261L 148,261L 148,262L 165,262L 165,261L 187,261L 187,260L 191,260L 191,259L 192,259L 192,258ZM 143,258L 143,257L 146,257L 146,256L 149,256L 149,255L 151,255L 151,254L 154,254L 154,253L 156,253L 156,252L 157,252L 157,251L 159,251L 159,250L 160,250L 160,249L 163,249L 163,248L 164,248L 164,247L 165,247L 165,246L 167,246L 167,245L 168,245L 168,244L 170,244L 170,243L 171,243L 171,244L 176,244L 176,245L 177,245L 177,246L 179,246L 179,247L 181,247L 181,248L 184,248L 184,249L 186,249L 186,250L 187,250L 187,251L 188,251L 188,252L 189,252L 189,253L 190,253L 190,256L 189,256L 189,257L 188,257L 188,258L 185,258L 185,259L 180,259L 180,260L 142,260L 142,259L 141,259L 141,258Z" style="fill:rgb(224,175,64);"/>
<path d="M 199,195L 199,197L 200,197L 200,198L 201,198L 201,200L 202,200L 202,201L 203,201L 203,203L 204,203L 204,204L 205,204L 205,205L 206,205L 206,207L 207,207L 207,208L 208,208L 208,209L 209,209L 209,210L 210,210L 210,211L 211,211L 211,212L 212,212L 212,213L 213,213L 213,214L 214,214L 214,215L 215,215L 215,216L 218,216L 218,215L 219,215L 219,212L 220,212L 220,198L 219,198L 219,191L 218,191L 218,186L 217,186L 217,181L 216,181L 216,177L 215,177L 215,172L 214,172L 214,168L 213,168L 213,167L 212,167L 212,164L 211,164L 211,161L 210,161L 210,158L 209,158L 209,155L 208,155L 208,151L 207,151L 207,149L 206,149L 206,146L 205,146L 205,145L 203,145L 203,147L 202,147L 202,146L 200,146L 200,147L 198,147L 198,148L 193,148L 193,149L 190,149L 190,150L 183,150L 183,151L 180,151L 180,152L 178,152L 178,153L 177,153L 177,152L 176,152L 176,153L 175,153L 175,154L 174,154L 174,156L 175,156L 175,171L 176,171L 176,181L 175,181L 175,195L 174,195L 174,201L 173,201L 173,205L 172,205L 172,208L 171,208L 171,210L 170,210L 170,214L 169,214L 169,216L 168,216L 168,218L 167,218L 167,220L 166,220L 166,222L 165,222L 165,224L 164,224L 164,225L 163,225L 163,227L 162,227L 162,228L 161,228L 161,230L 160,230L 160,231L 159,231L 159,232L 158,232L 158,233L 157,233L 157,234L 156,234L 156,235L 155,235L 155,236L 154,236L 154,237L 153,237L 153,238L 152,238L 152,239L 150,239L 150,240L 149,240L 149,241L 147,241L 147,242L 146,242L 146,243L 144,243L 144,244L 141,244L 141,245L 138,245L 138,246L 137,246L 137,247L 135,247L 135,248L 131,248L 131,249L 127,249L 127,250L 103,250L 103,249L 98,249L 98,248L 92,248L 92,247L 90,247L 90,246L 87,246L 87,245L 85,245L 85,244L 83,244L 83,243L 81,243L 81,242L 79,242L 79,241L 78,241L 78,240L 76,240L 76,239L 75,239L 75,238L 74,238L 74,237L 73,237L 73,236L 72,236L 72,235L 70,235L 70,234L 69,234L 69,232L 68,232L 68,231L 67,231L 67,230L 66,230L 66,229L 65,229L 65,227L 64,227L 64,226L 63,226L 63,225L 62,225L 62,223L 61,223L 61,221L 60,221L 60,219L 59,219L 59,217L 58,217L 58,214L 57,214L 57,212L 56,212L 56,210L 55,210L 55,207L 54,207L 54,203L 53,203L 53,198L 52,198L 52,190L 51,190L 51,183L 50,183L 50,168L 51,168L 51,165L 52,165L 52,155L 53,155L 53,153L 52,153L 52,152L 46,152L 46,151L 42,151L 42,150L 38,150L 38,149L 35,149L 35,148L 32,148L 32,147L 29,147L 29,148L 28,148L 28,147L 24,147L 24,146L 23,146L 23,145L 21,145L 21,147L 20,147L 20,151L 19,151L 19,154L 18,154L 18,156L 17,156L 17,158L 16,158L 16,162L 15,162L 15,164L 14,164L 14,168L 13,168L 13,172L 12,172L 12,175L 11,175L 11,179L 10,179L 10,183L 9,183L 9,188L 8,188L 8,194L 7,194L 7,215L 8,215L 8,216L 11,216L 11,215L 13,215L 13,214L 14,214L 14,213L 15,213L 15,212L 16,212L 16,211L 17,211L 17,210L 18,210L 18,208L 19,208L 19,207L 20,207L 20,206L 21,206L 21,205L 22,205L 22,203L 23,203L 23,202L 24,202L 24,201L 25,201L 25,199L 26,199L 26,198L 27,198L 27,196L 28,196L 28,195L 29,195L 29,193L 30,193L 30,191L 32,191L 32,200L 33,200L 33,204L 34,204L 34,209L 35,209L 35,211L 36,211L 36,214L 37,214L 37,215L 38,215L 38,217L 39,217L 39,219L 40,219L 40,222L 41,222L 41,223L 42,223L 42,224L 43,224L 43,226L 44,226L 44,227L 45,227L 45,229L 46,229L 46,230L 47,230L 47,231L 48,231L 48,232L 49,232L 49,234L 50,234L 50,235L 51,235L 51,236L 52,236L 52,237L 53,237L 53,238L 54,238L 54,239L 55,239L 55,240L 57,240L 57,241L 59,241L 59,240L 60,240L 60,241L 62,241L 62,245L 63,245L 63,246L 66,246L 66,245L 67,245L 67,246L 69,246L 69,247L 70,247L 70,248L 72,248L 72,251L 73,251L 73,252L 74,252L 74,251L 78,251L 78,252L 81,252L 81,253L 83,253L 83,254L 84,254L 84,256L 87,256L 87,257L 91,257L 91,258L 96,258L 96,259L 128,259L 128,257L 139,257L 139,256L 142,256L 142,254L 144,254L 144,253L 145,253L 145,252L 147,252L 147,253L 151,253L 151,252L 153,252L 153,249L 155,249L 155,248L 156,248L 156,247L 157,247L 157,248L 158,248L 158,249L 159,249L 159,248L 160,248L 160,247L 162,247L 162,246L 163,246L 163,245L 165,245L 165,244L 166,244L 166,243L 168,243L 168,242L 170,242L 170,240L 171,240L 171,239L 172,239L 172,238L 173,238L 173,237L 174,237L 174,238L 175,238L 175,235L 176,235L 176,234L 177,234L 177,233L 178,233L 178,232L 179,232L 179,231L 180,231L 180,229L 181,229L 181,228L 182,228L 182,227L 183,227L 183,225L 184,225L 184,224L 185,224L 185,222L 186,222L 186,220L 187,220L 187,218L 188,218L 188,216L 190,216L 190,212L 191,212L 191,209L 192,209L 192,206L 193,206L 193,202L 194,202L 194,199L 195,199L 195,195Z" style="fill:rgb(1,1,1);"/>
<path d="M 80,49L 82,49L 82,48L 83,48L 83,47L 82,47L 82,45L 83,45L 83,44L 84,44L 84,43L 85,43L 85,42L 86,42L 86,41L 87,41L 87,40L 97,40L 97,41L 98,41L 98,42L 100,42L 100,43L 101,43L 101,45L 102,45L 102,46L 103,46L 103,48L 104,48L 104,51L 105,51L 105,53L 106,53L 106,67L 105,67L 105,70L 104,70L 104,73L 103,73L 103,74L 102,74L 102,75L 101,75L 101,76L 100,76L 100,78L 97,78L 97,79L 96,79L 96,80L 89,80L 89,79L 87,79L 87,78L 86,78L 86,77L 85,77L 85,76L 84,76L 84,75L 83,75L 83,74L 82,74L 82,72L 81,72L 81,70L 80,70L 80,68L 79,68L 79,63L 78,63L 78,55L 79,55L 79,51L 80,51ZM 193,96L 192,96L 192,86L 191,86L 191,79L 190,79L 190,75L 189,75L 189,70L 188,70L 188,67L 187,67L 187,64L 186,64L 186,61L 185,61L 185,57L 184,57L 184,56L 183,56L 183,53L 182,53L 182,50L 181,50L 181,48L 180,48L 180,47L 179,47L 179,45L 178,45L 178,44L 177,44L 177,42L 176,42L 176,40L 175,40L 175,39L 174,39L 174,37L 173,37L 173,36L 172,36L 172,35L 171,35L 171,34L 170,34L 170,32L 169,32L 169,31L 168,31L 168,30L 167,30L 167,29L 166,29L 166,28L 165,28L 165,27L 164,27L 164,26L 163,26L 163,25L 162,25L 162,24L 160,24L 160,23L 159,23L 159,22L 158,22L 158,21L 156,21L 156,20L 155,20L 155,19L 153,19L 153,18L 152,18L 152,17L 150,17L 150,16L 149,16L 149,15L 146,15L 146,14L 143,14L 143,13L 142,13L 142,12L 138,12L 138,11L 134,11L 134,10L 130,10L 130,9L 126,9L 126,8L 103,8L 103,9L 97,9L 97,10L 92,10L 92,11L 89,11L 89,12L 86,12L 86,13L 83,13L 83,14L 81,14L 81,15L 79,15L 79,16L 77,16L 77,17L 75,17L 75,18L 73,18L 73,19L 72,19L 72,20L 70,20L 70,21L 69,21L 69,22L 67,22L 67,23L 66,23L 66,24L 65,24L 65,25L 64,25L 64,26L 63,26L 63,27L 62,27L 62,28L 61,28L 61,29L 60,29L 60,30L 59,30L 59,31L 58,31L 58,32L 57,32L 57,33L 56,33L 56,34L 55,34L 55,35L 54,35L 54,37L 53,37L 53,38L 52,38L 52,40L 51,40L 51,41L 50,41L 50,43L 49,43L 49,44L 48,44L 48,46L 47,46L 47,47L 46,47L 46,49L 45,49L 45,52L 44,52L 44,54L 43,54L 43,57L 42,57L 42,59L 41,59L 41,61L 40,61L 40,64L 39,64L 39,69L 38,69L 38,73L 37,73L 37,77L 36,77L 36,82L 35,82L 35,90L 34,90L 34,112L 35,112L 35,113L 38,113L 38,114L 43,114L 43,115L 49,115L 49,116L 51,116L 51,117L 53,117L 53,118L 60,118L 60,119L 65,119L 65,120L 73,120L 73,121L 82,121L 82,122L 91,122L 91,123L 117,123L 117,124L 120,124L 120,123L 134,123L 134,122L 148,122L 148,121L 154,121L 154,120L 160,120L 160,119L 167,119L 167,118L 172,118L 172,117L 176,117L 176,116L 180,116L 180,115L 185,115L 185,114L 187,114L 187,113L 192,113L 192,115L 193,115ZM 162,97L 161,97L 161,100L 162,100L 162,99L 163,99L 163,101L 159,101L 159,102L 160,102L 160,103L 158,103L 158,102L 156,102L 156,101L 155,101L 155,102L 153,102L 153,103L 151,103L 151,104L 149,104L 149,107L 147,107L 147,108L 145,108L 145,109L 142,109L 142,108L 141,108L 141,107L 140,107L 140,108L 137,108L 137,109L 135,109L 135,111L 132,111L 132,112L 124,112L 124,113L 101,113L 101,112L 102,112L 102,111L 97,111L 97,110L 93,110L 93,109L 84,109L 84,110L 82,110L 82,109L 83,109L 83,108L 80,108L 80,107L 79,107L 79,106L 80,106L 80,105L 78,105L 78,104L 71,104L 71,103L 68,103L 68,102L 66,102L 66,100L 65,100L 65,97L 64,97L 64,93L 65,93L 65,92L 67,92L 67,91L 68,91L 68,89L 69,89L 69,90L 72,90L 72,89L 75,89L 75,88L 87,88L 87,86L 97,86L 97,85L 127,85L 127,84L 128,84L 128,85L 129,85L 129,86L 132,86L 132,87L 138,87L 138,88L 144,88L 144,89L 148,89L 148,90L 152,90L 152,91L 153,91L 153,90L 154,90L 154,89L 155,89L 155,90L 158,90L 158,93L 160,93L 160,94L 161,94L 161,95L 162,95ZM 148,66L 147,66L 147,69L 146,69L 146,71L 145,71L 145,73L 144,73L 144,75L 143,75L 143,76L 142,76L 142,77L 141,77L 141,78L 139,78L 139,79L 137,79L 137,80L 131,80L 131,79L 129,79L 129,78L 127,78L 127,77L 126,77L 126,76L 125,76L 125,75L 124,75L 124,73L 123,73L 123,72L 122,72L 122,68L 121,68L 121,65L 120,65L 120,57L 121,57L 121,51L 122,51L 122,49L 123,49L 123,47L 124,47L 124,45L 125,45L 125,44L 126,44L 126,43L 127,43L 127,42L 128,42L 128,41L 131,41L 131,40L 138,40L 138,41L 141,41L 141,42L 142,42L 142,43L 143,43L 143,44L 144,44L 144,46L 145,46L 145,47L 146,47L 146,50L 147,50L 147,56L 148,56Z" style="fill:rgb(1,1,1);"/>
<path d="M 102,57L 101,57L 101,55L 99,55L 99,54L 97,54L 97,53L 96,53L 96,54L 94,54L 94,55L 92,55L 92,57L 91,57L 91,65L 92,65L 92,67L 93,67L 93,68L 94,68L 94,69L 99,69L 99,68L 101,68L 101,66L 102,66Z" style="fill:rgb(1,1,1);"/>
<path d="M 143,58L 141,58L 141,57L 140,57L 140,56L 133,56L 133,57L 128,57L 128,58L 127,58L 127,63L 128,63L 128,62L 130,62L 130,61L 138,61L 138,62L 142,62L 142,61L 143,61Z" style="fill:rgb(1,1,1);"/>
<path d="M 221,209L 220,209L 220,212L 219,212L 219,215L 218,215L 218,216L 215,216L 215,215L 214,215L 214,214L 213,214L 213,213L 212,213L 212,212L 211,212L 211,211L 210,211L 210,210L 209,210L 209,209L 208,209L 208,208L 207,208L 207,207L 206,207L 206,205L 205,205L 205,204L 204,204L 204,203L 203,203L 203,201L 202,201L 202,200L 201,200L 201,199L 199,199L 199,200L 197,200L 197,198L 195,198L 195,199L 194,199L 194,202L 193,202L 193,206L 192,206L 192,209L 191,209L 191,212L 190,212L 190,216L 188,216L 188,218L 187,218L 187,220L 186,220L 186,222L 185,222L 185,224L 184,224L 184,225L 183,225L 183,227L 182,227L 182,228L 181,228L 181,229L 180,229L 180,231L 179,231L 179,232L 178,232L 178,233L 177,233L 177,234L 176,234L 176,235L 175,235L 175,237L 176,237L 176,240L 178,240L 178,241L 180,241L 180,242L 183,242L 183,243L 185,243L 185,244L 187,244L 187,245L 190,245L 190,247L 192,247L 192,248L 193,248L 193,250L 194,250L 194,251L 195,251L 195,253L 196,253L 196,254L 197,254L 197,255L 196,255L 196,259L 195,259L 195,261L 194,261L 194,264L 229,264L 229,0L 0,0L 0,264L 35,264L 35,262L 34,262L 34,261L 33,261L 33,260L 32,260L 32,259L 31,259L 31,255L 30,255L 30,254L 31,254L 31,251L 32,251L 32,250L 33,250L 33,249L 35,249L 35,248L 36,248L 36,247L 37,247L 37,246L 38,246L 38,245L 39,245L 39,244L 41,244L 41,243L 42,243L 42,242L 45,242L 45,241L 47,241L 47,239L 48,239L 48,235L 50,235L 50,234L 49,234L 49,232L 48,232L 48,231L 47,231L 47,230L 46,230L 46,229L 45,229L 45,227L 44,227L 44,226L 43,226L 43,224L 42,224L 42,223L 41,223L 41,222L 40,222L 40,219L 39,219L 39,217L 38,217L 38,215L 37,215L 37,214L 36,214L 36,211L 35,211L 35,209L 34,209L 34,204L 33,204L 33,200L 32,200L 32,202L 31,202L 31,201L 30,201L 30,200L 29,200L 29,201L 27,201L 27,198L 26,198L 26,199L 25,199L 25,201L 24,201L 24,202L 23,202L 23,203L 22,203L 22,205L 21,205L 21,206L 20,206L 20,209L 21,209L 21,211L 20,211L 20,212L 19,212L 19,214L 18,214L 18,213L 17,213L 17,211L 16,211L 16,212L 15,212L 15,213L 14,213L 14,214L 13,214L 13,215L 11,215L 11,216L 8,216L 8,215L 7,215L 7,212L 6,212L 6,200L 7,200L 7,194L 8,194L 8,188L 9,188L 9,183L 10,183L 10,179L 11,179L 11,175L 12,175L 12,172L 13,172L 13,168L 14,168L 14,164L 15,164L 15,162L 16,162L 16,158L 17,158L 17,156L 18,156L 18,147L 19,147L 19,148L 20,148L 20,147L 21,147L 21,145L 22,145L 22,142L 21,142L 21,136L 23,136L 23,133L 24,133L 24,132L 25,132L 25,126L 26,126L 26,125L 27,125L 27,123L 28,123L 28,122L 27,122L 27,120L 28,120L 28,118L 29,118L 29,116L 30,116L 30,115L 32,115L 32,116L 33,116L 33,93L 34,93L 34,90L 35,90L 35,82L 36,82L 36,77L 37,77L 37,73L 38,73L 38,69L 39,69L 39,64L 40,64L 40,61L 41,61L 41,59L 42,59L 42,57L 43,57L 43,54L 44,54L 44,52L 45,52L 45,49L 46,49L 46,47L 47,47L 47,46L 48,46L 48,44L 49,44L 49,43L 50,43L 50,41L 51,41L 51,40L 52,40L 52,38L 53,38L 53,37L 54,37L 54,35L 55,35L 55,34L 56,34L 56,33L 57,33L 57,32L 58,32L 58,31L 59,31L 59,30L 60,30L 60,29L 61,29L 61,28L 62,28L 62,27L 63,27L 63,26L 64,26L 64,25L 65,25L 65,24L 66,24L 66,23L 67,23L 67,22L 69,22L 69,21L 70,21L 70,20L 72,20L 72,19L 73,19L 73,18L 75,18L 75,17L 77,17L 77,16L 79,16L 79,15L 81,15L 81,14L 83,14L 83,13L 86,13L 86,12L 89,12L 89,11L 92,11L 92,10L 97,10L 97,9L 103,9L 103,8L 108,8L 108,7L 119,7L 119,8L 126,8L 126,9L 130,9L 130,10L 134,10L 134,11L 138,11L 138,12L 142,12L 142,13L 143,13L 143,14L 146,14L 146,15L 149,15L 149,16L 150,16L 150,17L 152,17L 152,18L 153,18L 153,19L 155,19L 155,20L 156,20L 156,21L 158,21L 158,22L 159,22L 159,23L 160,23L 160,24L 162,24L 162,25L 163,25L 163,26L 164,26L 164,27L 165,27L 165,28L 166,28L 166,29L 167,29L 167,30L 168,30L 168,31L 169,31L 169,32L 170,32L 170,34L 171,34L 171,35L 172,35L 172,36L 173,36L 173,37L 174,37L 174,39L 175,39L 175,40L 176,40L 176,42L 177,42L 177,44L 178,44L 178,45L 179,45L 179,47L 180,47L 180,48L 181,48L 181,50L 182,50L 182,53L 183,53L 183,56L 184,56L 184,57L 185,57L 185,61L 186,61L 186,64L 187,64L 187,67L 188,67L 188,70L 189,70L 189,75L 190,75L 190,79L 191,79L 191,86L 192,86L 192,96L 193,96L 193,98L 194,98L 194,112L 193,112L 193,116L 194,116L 194,117L 195,117L 195,116L 196,116L 196,117L 197,117L 197,115L 198,115L 198,120L 199,120L 199,123L 200,123L 200,128L 201,128L 201,131L 202,131L 202,132L 203,132L 203,134L 204,134L 204,136L 205,136L 205,137L 204,137L 204,138L 205,138L 205,139L 206,139L 206,137L 207,137L 207,144L 206,144L 206,149L 207,149L 207,151L 208,151L 208,155L 209,155L 209,158L 210,158L 210,161L 211,161L 211,164L 212,164L 212,167L 213,167L 213,168L 214,168L 214,172L 215,172L 215,177L 216,177L 216,181L 217,181L 217,186L 218,186L 218,191L 219,191L 219,198L 220,198L 220,199L 221,199Z" style="fill:rgb(254,254,254);"/>
<path d="M 32,202L 32,197L 31,197L 31,192L 30,192L 30,193L 29,193L 29,195L 28,195L 28,196L 27,196L 27,201L 29,201L 29,200L 30,200L 30,201L 31,201L 31,202Z" style="fill:rgb(254,254,254);"/>
<path d="M 175,162L 174,162L 174,153L 172,153L 172,154L 171,154L 171,153L 169,153L 169,155L 168,155L 168,154L 164,154L 164,155L 156,155L 156,156L 152,156L 152,157L 151,157L 151,156L 149,156L 149,157L 148,157L 148,158L 140,158L 140,159L 136,159L 136,158L 135,158L 135,159L 130,159L 130,160L 128,160L 128,159L 103,159L 103,160L 101,160L 101,161L 100,161L 100,176L 101,176L 101,179L 100,179L 100,181L 101,181L 101,184L 102,184L 102,185L 101,185L 101,187L 100,187L 100,188L 101,188L 101,190L 99,190L 99,193L 96,193L 96,194L 80,194L 80,193L 66,193L 66,192L 63,192L 63,189L 62,189L 62,188L 60,188L 60,187L 61,187L 61,185L 60,185L 60,184L 61,184L 61,159L 60,159L 60,160L 59,160L 59,158L 61,158L 61,156L 60,156L 60,154L 59,154L 59,156L 58,156L 58,154L 55,154L 55,153L 53,153L 53,155L 52,155L 52,174L 51,174L 51,177L 52,177L 52,198L 53,198L 53,203L 54,203L 54,207L 55,207L 55,210L 56,210L 56,212L 57,212L 57,214L 58,214L 58,217L 59,217L 59,219L 60,219L 60,221L 61,221L 61,223L 62,223L 62,225L 63,225L 63,226L 64,226L 64,227L 65,227L 65,229L 66,229L 66,230L 67,230L 67,231L 68,231L 68,232L 69,232L 69,234L 70,234L 70,235L 72,235L 72,236L 73,236L 73,237L 74,237L 74,238L 75,238L 75,239L 76,239L 76,240L 78,240L 78,241L 79,241L 79,242L 81,242L 81,243L 83,243L 83,244L 85,244L 85,245L 87,245L 87,246L 90,246L 90,247L 92,247L 92,248L 98,248L 98,249L 103,249L 103,250L 127,250L 127,249L 131,249L 131,248L 135,248L 135,247L 137,247L 137,246L 138,246L 138,245L 141,245L 141,244L 144,244L 144,243L 146,243L 146,242L 147,242L 147,241L 149,241L 149,240L 150,240L 150,239L 152,239L 152,236L 149,236L 149,235L 151,235L 151,233L 153,233L 153,234L 154,234L 154,233L 155,233L 155,234L 157,234L 157,233L 158,233L 158,232L 159,232L 159,231L 160,231L 160,230L 161,230L 161,228L 162,228L 162,227L 163,227L 163,225L 164,225L 164,224L 165,224L 165,222L 166,222L 166,220L 167,220L 167,218L 168,218L 168,216L 169,216L 169,214L 170,214L 170,210L 171,210L 171,208L 172,208L 172,205L 173,205L 173,201L 174,201L 174,195L 175,195Z" style="fill:rgb(254,254,254);"/>
<path d="M 103,64L 102,64L 102,66L 101,66L 101,68L 99,68L 99,69L 93,69L 93,71L 92,71L 92,70L 91,70L 91,69L 90,69L 90,67L 89,67L 89,63L 91,63L 91,57L 92,57L 92,55L 94,55L 94,54L 96,54L 96,53L 97,53L 97,54L 99,54L 99,55L 101,55L 101,56L 103,56ZM 105,51L 104,51L 104,48L 103,48L 103,46L 102,46L 102,45L 101,45L 101,43L 100,43L 100,42L 98,42L 98,41L 97,41L 97,40L 87,40L 87,41L 86,41L 86,42L 85,42L 85,43L 84,43L 84,44L 83,44L 83,45L 82,45L 82,47L 83,47L 83,48L 82,48L 82,49L 80,49L 80,51L 79,51L 79,68L 80,68L 80,70L 81,70L 81,72L 83,72L 83,69L 84,69L 84,71L 85,71L 85,72L 84,72L 84,76L 85,76L 85,77L 86,77L 86,78L 87,78L 87,79L 89,79L 89,80L 96,80L 96,79L 97,79L 97,78L 100,78L 100,76L 101,76L 101,75L 102,75L 102,74L 103,74L 103,73L 104,73L 104,70L 105,70L 105,57L 106,57L 106,53L 105,53Z" style="fill:rgb(254,254,254);"/>
<path d="M 121,263L 112,263L 112,264L 121,264Z" style="fill:rgb(254,254,254);"/>
<path d="M 122,63L 122,62L 123,62L 123,61L 125,61L 125,60L 126,60L 126,59L 127,59L 127,57L 126,57L 126,56L 125,56L 125,55L 123,55L 123,56L 122,56L 122,57L 121,57L 121,63Z" style="fill:rgb(254,254,254);"/>
<path d="M 148,56L 147,56L 147,50L 146,50L 146,47L 145,47L 145,46L 144,46L 144,44L 143,44L 143,43L 142,43L 142,42L 141,42L 141,41L 138,41L 138,40L 131,40L 131,41L 128,41L 128,42L 127,42L 127,43L 126,43L 126,44L 125,44L 125,45L 124,45L 124,47L 123,47L 123,49L 122,49L 122,51L 121,51L 121,57L 122,57L 122,56L 123,56L 123,55L 125,55L 125,56L 126,56L 126,57L 127,57L 127,58L 128,58L 128,57L 133,57L 133,56L 140,56L 140,57L 141,57L 141,58L 143,58L 143,61L 142,61L 142,62L 138,62L 138,61L 130,61L 130,62L 128,62L 128,63L 127,63L 127,64L 126,64L 126,65L 121,65L 121,68L 122,68L 122,72L 123,72L 123,73L 124,73L 124,75L 125,75L 125,76L 126,76L 126,77L 127,77L 127,78L 129,78L 129,79L 131,79L 131,80L 137,80L 137,79L 139,79L 139,76L 137,76L 137,75L 138,75L 138,74L 139,74L 139,75L 140,75L 140,76L 143,76L 143,75L 144,75L 144,73L 145,73L 145,71L 146,71L 146,69L 147,69L 147,66L 148,66Z" style="fill:rgb(254,254,254);"/>
<path d="M 34,115L 34,109L 33,109L 33,115Z" style="fill:rgb(177,176,176);"/>
<path d="M 52,174L 52,165L 51,165L 51,174Z" style="fill:rgb(177,176,176);"/>
<path d="M 52,190L 52,177L 51,177L 51,190Z" style="fill:rgb(177,176,176);"/>
<path d="M 119,7L 108,7L 108,8L 119,8Z" style="fill:rgb(177,176,176);"/>
<path d="M 121,65L 121,57L 120,57L 120,65Z" style="fill:rgb(177,176,176);"/>
<path d="M 64,189L 64,152L 63,152L 63,189Z" style="fill:rgb(195,98,97);"/>
<path d="M 128,156L 98,156L 98,157L 128,157Z" style="fill:rgb(195,98,97);"/>
<path d="M 127,259L 104,259L 104,260L 127,260Z" style="fill:rgb(67,66,65);"/>
<path d="M 34,109L 34,93L 33,93L 33,109Z" style="fill:rgb(239,222,204);"/>
<path d="M 39,260L 36,260L 36,259L 34,259L 34,260L 35,260L 35,261L 37,261L 37,262L 47,262L 47,261L 39,261Z" style="fill:rgb(239,222,204);"/>
<path d="M 94,262L 51,262L 51,263L 94,263Z" style="fill:rgb(239,222,204);"/>
<path d="M 63,152L 57,152L 57,153L 61,153L 61,154L 62,154L 62,189L 63,189Z" style="fill:rgb(239,222,204);"/>
<path d="M 126,157L 99,157L 99,159L 100,159L 100,158L 126,158Z" style="fill:rgb(239,222,204);"/>
<path d="M 111,260L 102,260L 102,261L 111,261Z" style="fill:rgb(239,222,204);"/>
<path d="M 124,260L 112,260L 112,261L 124,261Z" style="fill:rgb(239,222,204);"/>
<path d="M 176,262L 135,262L 135,263L 136,263L 136,264L 137,264L 137,263L 176,263Z" style="fill:rgb(239,222,204);"/>
<path d="M 191,260L 187,260L 187,261L 180,261L 180,262L 188,262L 188,261L 191,261Z" style="fill:rgb(239,222,204);"/>
<path d="M 7,212L 7,200L 6,200L 6,212Z" style="fill:rgb(124,123,122);"/>
<path d="M 32,197L 32,191L 30,191L 30,192L 31,192L 31,197Z" style="fill:rgb(124,123,122);"/>
<path d="M 79,63L 79,55L 78,55L 78,63Z" style="fill:rgb(124,123,122);"/>
<path d="M 175,162L 175,156L 174,156L 174,162Z" style="fill:rgb(124,123,122);"/>
<path d="M 176,181L 176,171L 175,171L 175,181Z" style="fill:rgb(124,123,122);"/>
<path d="M 128,86L 119,86L 119,87L 128,87Z" style="fill:rgb(155,117,49);"/>
<path d="M 203,144L 203,143L 204,143L 204,141L 203,141L 203,139L 202,139L 202,136L 201,136L 201,134L 200,134L 200,131L 199,131L 199,129L 198,129L 198,126L 197,126L 197,124L 196,124L 196,121L 195,121L 195,119L 194,119L 194,116L 193,116L 193,115L 192,115L 192,114L 191,114L 191,115L 187,115L 187,116L 182,116L 182,118L 178,118L 178,119L 169,119L 169,120L 164,120L 164,121L 158,121L 158,122L 150,122L 150,123L 142,123L 142,124L 139,124L 139,125L 125,125L 125,126L 104,126L 104,125L 87,125L 87,124L 85,124L 85,123L 77,123L 77,122L 70,122L 70,121L 63,121L 63,120L 58,120L 58,119L 52,119L 52,118L 48,118L 48,117L 44,117L 44,116L 40,116L 40,115L 36,115L 36,114L 34,114L 34,115L 33,115L 33,118L 32,118L 32,120L 31,120L 31,123L 30,123L 30,125L 29,125L 29,127L 28,127L 28,130L 27,130L 27,132L 26,132L 26,135L 25,135L 25,137L 24,137L 24,140L 23,140L 23,144L 25,144L 25,145L 29,145L 29,146L 33,146L 33,147L 36,147L 36,148L 41,148L 41,149L 45,149L 45,150L 50,150L 50,151L 52,151L 52,153L 53,153L 53,151L 58,151L 58,152L 64,152L 64,151L 63,151L 63,150L 62,150L 62,149L 60,149L 60,150L 58,150L 58,149L 52,149L 52,148L 48,148L 48,147L 45,147L 45,146L 39,146L 39,145L 35,145L 35,144L 32,144L 32,143L 27,143L 27,142L 26,142L 26,138L 27,138L 27,136L 28,136L 28,133L 29,133L 29,131L 30,131L 30,129L 31,129L 31,125L 32,125L 32,123L 33,123L 33,121L 34,121L 34,119L 35,119L 35,117L 38,117L 38,118L 40,118L 40,119L 44,119L 44,120L 49,120L 49,121L 56,121L 56,122L 60,122L 60,123L 64,123L 64,124L 72,124L 72,125L 80,125L 80,126L 90,126L 90,127L 109,127L 109,128L 110,128L 110,127L 114,127L 114,128L 118,128L 118,127L 135,127L 135,126L 148,126L 148,125L 153,125L 153,124L 160,124L 160,123L 165,123L 165,122L 170,122L 170,121L 178,121L 178,120L 181,120L 181,119L 186,119L 186,118L 192,118L 192,120L 193,120L 193,122L 194,122L 194,125L 195,125L 195,127L 196,127L 196,130L 197,130L 197,132L 198,132L 198,135L 199,135L 199,137L 200,137L 200,143L 195,143L 195,144L 191,144L 191,145L 187,145L 187,146L 183,146L 183,147L 178,147L 178,148L 174,148L 174,149L 169,149L 169,150L 161,150L 161,151L 157,151L 157,152L 149,152L 149,153L 138,153L 138,154L 129,154L 129,155L 102,155L 102,154L 99,154L 99,155L 98,155L 98,156L 141,156L 141,155L 149,155L 149,154L 157,154L 157,153L 163,153L 163,152L 169,152L 169,151L 177,151L 177,150L 181,150L 181,149L 186,149L 186,148L 191,148L 191,147L 194,147L 194,146L 197,146L 197,145L 201,145L 201,144Z" style="fill:rgb(188,46,49);"/>
<path d="M 98,191L 98,156L 97,156L 97,157L 96,157L 96,188L 95,188L 95,189L 72,189L 72,188L 66,188L 66,187L 65,187L 65,153L 64,153L 64,190L 69,190L 69,191Z" style="fill:rgb(188,46,49);"/>
<path d="M 98,124L 87,124L 87,125L 98,125Z" style="fill:rgb(99,32,14);"/>
<path d="M 125,125L 104,125L 104,126L 125,126Z" style="fill:rgb(99,32,14);"/>
<path d="M 139,124L 130,124L 130,125L 139,125Z" style="fill:rgb(99,32,14);"/>
<path d="M 182,117L 177,117L 177,118L 174,118L 174,119L 178,119L 178,118L 182,118Z" style="fill:rgb(99,32,14);"/>
<path d="M 95,261L 47,261L 47,262L 95,262Z" style="fill:rgb(234,190,135);"/>
<path d="M 93,191L 77,191L 77,192L 93,192Z" style="fill:rgb(234,190,135);"/>
<path d="M 104,259L 95,259L 95,260L 96,260L 96,261L 102,261L 102,260L 104,260Z" style="fill:rgb(234,190,135);"/>
<path d="M 99,187L 99,157L 98,157L 98,187Z" style="fill:rgb(234,190,135);"/>
<path d="M 133,258L 130,258L 130,259L 127,259L 127,260L 124,260L 124,261L 132,261L 132,260L 131,260L 131,259L 133,259Z" style="fill:rgb(234,190,135);"/>
<path d="M 134,156L 128,156L 128,157L 134,157Z" style="fill:rgb(234,190,135);"/>
<path d="M 148,261L 132,261L 132,262L 148,262Z" style="fill:rgb(234,190,135);"/>
<path d="M 180,261L 165,261L 165,262L 180,262Z" style="fill:rgb(234,190,135);"/>
<path d="M 23,143L 22,143L 22,145L 23,145L 23,146L 24,146L 24,147L 28,147L 28,148L 29,148L 29,147L 32,147L 32,148L 35,148L 35,149L 38,149L 38,150L 42,150L 42,151L 46,151L 46,152L 52,152L 52,151L 50,151L 50,150L 45,150L 45,149L 41,149L 41,148L 36,148L 36,147L 33,147L 33,146L 29,146L 29,145L 25,145L 25,144L 23,144Z" style="fill:rgb(31,11,8);"/>
<path d="M 38,113L 35,113L 35,112L 34,112L 34,114L 36,114L 36,115L 40,115L 40,116L 44,116L 44,117L 48,117L 48,118L 52,118L 52,119L 58,119L 58,120L 63,120L 63,121L 70,121L 70,122L 77,122L 77,123L 85,123L 85,124L 98,124L 98,125L 130,125L 130,124L 142,124L 142,123L 150,123L 150,122L 158,122L 158,121L 164,121L 164,120L 169,120L 169,119L 174,119L 174,118L 177,118L 177,117L 182,117L 182,116L 187,116L 187,115L 191,115L 191,114L 192,114L 192,113L 187,113L 187,114L 185,114L 185,115L 180,115L 180,116L 176,116L 176,117L 172,117L 172,118L 167,118L 167,119L 160,119L 160,120L 154,120L 154,121L 148,121L 148,122L 134,122L 134,123L 120,123L 120,124L 117,124L 117,123L 91,123L 91,122L 82,122L 82,121L 73,121L 73,120L 65,120L 65,119L 60,119L 60,118L 53,118L 53,117L 51,117L 51,116L 49,116L 49,115L 43,115L 43,114L 38,114Z" style="fill:rgb(31,11,8);"/>
<path d="M 51,183L 51,168L 50,168L 50,183Z" style="fill:rgb(31,11,8);"/>
<path d="M 62,244L 62,241L 60,241L 60,240L 59,240L 59,241L 58,241L 58,242L 59,242L 59,243L 60,243L 60,244Z" style="fill:rgb(31,11,8);"/>
<path d="M 83,88L 75,88L 75,89L 72,89L 72,90L 69,90L 69,89L 68,89L 68,91L 67,91L 67,92L 65,92L 65,93L 64,93L 64,97L 65,97L 65,95L 66,95L 66,94L 67,94L 67,93L 69,93L 69,92L 71,92L 71,91L 74,91L 74,90L 78,90L 78,89L 83,89Z" style="fill:rgb(31,11,8);"/>
<path d="M 70,100L 68,100L 68,99L 66,99L 66,98L 65,98L 65,100L 66,100L 66,102L 69,102L 69,101L 70,101Z" style="fill:rgb(31,11,8);"/>
<path d="M 68,249L 70,249L 70,250L 72,250L 72,248L 70,248L 70,247L 69,247L 69,246L 67,246L 67,245L 66,245L 66,246L 65,246L 65,247L 66,247L 66,248L 68,248Z" style="fill:rgb(31,11,8);"/>
<path d="M 76,103L 74,103L 74,102L 72,102L 72,101L 69,101L 69,102L 68,102L 68,103L 71,103L 71,104L 76,104Z" style="fill:rgb(31,11,8);"/>
<path d="M 81,255L 84,255L 84,254L 83,254L 83,253L 81,253L 81,252L 78,252L 78,251L 74,251L 74,252L 76,252L 76,253L 78,253L 78,254L 81,254Z" style="fill:rgb(31,11,8);"/>
<path d="M 89,108L 86,108L 86,107L 83,107L 83,106L 79,106L 79,107L 80,107L 80,108L 83,108L 83,109L 82,109L 82,110L 84,110L 84,109L 89,109Z" style="fill:rgb(31,11,8);"/>
<path d="M 89,88L 89,87L 99,87L 99,86L 87,86L 87,88Z" style="fill:rgb(31,11,8);"/>
<path d="M 132,86L 129,86L 129,85L 128,85L 128,84L 127,84L 127,85L 97,85L 97,86L 128,86L 128,87L 132,87Z" style="fill:rgb(31,11,8);"/>
<path d="M 103,111L 102,111L 102,112L 101,112L 101,113L 116,113L 116,112L 103,112Z" style="fill:rgb(31,11,8);"/>
<path d="M 125,111L 123,111L 123,112L 116,112L 116,113L 124,113L 124,112L 125,112Z" style="fill:rgb(31,11,8);"/>
<path d="M 135,109L 134,109L 134,110L 129,110L 129,111L 125,111L 125,112L 132,112L 132,111L 135,111Z" style="fill:rgb(31,11,8);"/>
<path d="M 127,64L 127,59L 126,59L 126,60L 125,60L 125,61L 124,61L 124,64Z" style="fill:rgb(31,11,8);"/>
<path d="M 135,257L 128,257L 128,259L 130,259L 130,258L 135,258Z" style="fill:rgb(31,11,8);"/>
<path d="M 141,107L 141,108L 142,108L 142,109L 145,109L 145,108L 147,108L 147,107L 149,107L 149,105L 146,105L 146,106L 143,106L 143,107Z" style="fill:rgb(31,11,8);"/>
<path d="M 148,253L 147,253L 147,252L 145,252L 145,253L 144,253L 144,254L 142,254L 142,256L 143,256L 143,255L 146,255L 146,254L 148,254Z" style="fill:rgb(31,11,8);"/>
<path d="M 155,92L 158,92L 158,90L 155,90L 155,89L 154,89L 154,90L 153,90L 153,91L 155,91Z" style="fill:rgb(31,11,8);"/>
<path d="M 157,250L 157,249L 158,249L 158,248L 157,248L 157,247L 156,247L 156,248L 155,248L 155,249L 153,249L 153,251L 155,251L 155,250Z" style="fill:rgb(31,11,8);"/>
<path d="M 161,98L 160,98L 160,99L 158,99L 158,100L 157,100L 157,101L 156,101L 156,102L 158,102L 158,103L 160,103L 160,102L 159,102L 159,101L 163,101L 163,99L 162,99L 162,100L 161,100Z" style="fill:rgb(31,11,8);"/>
<path d="M 205,144L 204,144L 204,143L 203,143L 203,144L 201,144L 201,145L 197,145L 197,146L 194,146L 194,147L 191,147L 191,148L 186,148L 186,149L 181,149L 181,150L 177,150L 177,151L 174,151L 174,154L 175,154L 175,153L 176,153L 176,152L 177,152L 177,153L 178,153L 178,152L 180,152L 180,151L 183,151L 183,150L 190,150L 190,149L 193,149L 193,148L 198,148L 198,147L 200,147L 200,146L 202,146L 202,147L 203,147L 203,145L 205,145Z" style="fill:rgb(31,11,8);"/>
<path d="M 20,207L 19,207L 19,208L 18,208L 18,210L 17,210L 17,213L 18,213L 18,214L 19,214L 19,212L 20,212L 20,211L 21,211L 21,209L 20,209Z" style="fill:rgb(248,245,239);"/>
<path d="M 20,151L 20,148L 19,148L 19,147L 18,147L 18,154L 19,154L 19,151Z" style="fill:rgb(248,245,239);"/>
<path d="M 31,123L 31,119L 29,119L 29,118L 28,118L 28,120L 27,120L 27,122L 28,122L 28,123L 27,123L 27,125L 26,125L 26,126L 25,126L 25,132L 24,132L 24,133L 23,133L 23,136L 21,136L 21,142L 22,142L 22,143L 23,143L 23,140L 24,140L 24,137L 25,137L 25,135L 26,135L 26,132L 27,132L 27,130L 28,130L 28,127L 29,127L 29,125L 30,125L 30,123Z" style="fill:rgb(248,245,239);"/>
<path d="M 33,118L 33,116L 32,116L 32,115L 30,115L 30,116L 29,116L 29,119L 31,119L 31,120L 32,120L 32,118Z" style="fill:rgb(248,245,239);"/>
<path d="M 51,239L 50,239L 50,240L 48,240L 48,239L 47,239L 47,241L 45,241L 45,242L 42,242L 42,243L 41,243L 41,244L 39,244L 39,245L 38,245L 38,246L 37,246L 37,247L 36,247L 36,248L 35,248L 35,249L 33,249L 33,250L 32,250L 32,251L 31,251L 31,254L 30,254L 30,255L 31,255L 31,259L 32,259L 32,260L 33,260L 33,261L 34,261L 34,262L 35,262L 35,264L 112,264L 112,263L 121,263L 121,264L 136,264L 136,263L 135,263L 135,262L 132,262L 132,261L 112,261L 112,260L 111,260L 111,261L 95,261L 95,262L 94,262L 94,263L 51,263L 51,262L 37,262L 37,261L 35,261L 35,260L 34,260L 34,258L 33,258L 33,254L 34,254L 34,252L 35,252L 35,251L 36,251L 36,250L 37,250L 37,249L 38,249L 38,248L 40,248L 40,247L 41,247L 41,246L 43,246L 43,245L 46,245L 46,244L 48,244L 48,243L 51,243L 51,242L 53,242L 53,241L 56,241L 56,240L 55,240L 55,239L 54,239L 54,238L 51,238Z" style="fill:rgb(248,245,239);"/>
<path d="M 51,239L 51,238L 53,238L 53,237L 52,237L 52,236L 51,236L 51,235L 48,235L 48,240L 50,240L 50,239Z" style="fill:rgb(248,245,239);"/>
<path d="M 58,151L 53,151L 53,153L 55,153L 55,154L 58,154L 58,156L 59,156L 59,154L 60,154L 60,156L 61,156L 61,158L 59,158L 59,160L 60,160L 60,159L 61,159L 61,184L 60,184L 60,185L 61,185L 61,187L 60,187L 60,188L 62,188L 62,154L 61,154L 61,153L 57,153L 57,152L 58,152Z" style="fill:rgb(248,245,239);"/>
<path d="M 69,190L 64,190L 64,189L 63,189L 63,192L 66,192L 66,193L 80,193L 80,194L 96,194L 96,193L 99,193L 99,190L 98,190L 98,191L 93,191L 93,192L 77,192L 77,191L 69,191Z" style="fill:rgb(248,245,239);"/>
<path d="M 82,74L 83,74L 83,75L 84,75L 84,72L 85,72L 85,71L 84,71L 84,69L 83,69L 83,72L 82,72Z" style="fill:rgb(248,245,239);"/>
<path d="M 94,68L 93,68L 93,67L 92,67L 92,65L 91,65L 91,63L 89,63L 89,67L 90,67L 90,69L 91,69L 91,70L 92,70L 92,71L 93,71L 93,69L 94,69Z" style="fill:rgb(248,245,239);"/>
<path d="M 130,160L 130,159L 135,159L 135,158L 136,158L 136,159L 140,159L 140,157L 141,157L 141,156L 134,156L 134,157L 126,157L 126,158L 100,158L 100,159L 99,159L 99,187L 98,187L 98,190L 101,190L 101,188L 100,188L 100,187L 101,187L 101,185L 102,185L 102,184L 101,184L 101,181L 100,181L 100,179L 101,179L 101,176L 100,176L 100,161L 101,161L 101,160L 103,160L 103,159L 128,159L 128,160Z" style="fill:rgb(248,245,239);"/>
<path d="M 103,64L 103,56L 101,56L 101,57L 102,57L 102,64Z" style="fill:rgb(248,245,239);"/>
<path d="M 106,67L 106,57L 105,57L 105,67Z" style="fill:rgb(248,245,239);"/>
<path d="M 122,63L 121,63L 121,65L 126,65L 126,64L 124,64L 124,61L 123,61L 123,62L 122,62Z" style="fill:rgb(248,245,239);"/>
<path d="M 142,76L 140,76L 140,75L 139,75L 139,74L 138,74L 138,75L 137,75L 137,76L 139,76L 139,78L 141,78L 141,77L 142,77Z" style="fill:rgb(248,245,239);"/>
<path d="M 176,237L 175,237L 175,238L 174,238L 174,237L 173,237L 173,238L 172,238L 172,240L 173,240L 173,242L 176,242L 176,243L 179,243L 179,244L 181,244L 181,245L 183,245L 183,246L 186,246L 186,247L 187,247L 187,248L 188,248L 188,249L 190,249L 190,250L 191,250L 191,251L 192,251L 192,253L 193,253L 193,258L 192,258L 192,259L 191,259L 191,261L 188,261L 188,262L 176,262L 176,263L 137,263L 137,264L 194,264L 194,261L 195,261L 195,259L 196,259L 196,255L 197,255L 197,254L 196,254L 196,253L 195,253L 195,251L 194,251L 194,250L 193,250L 193,248L 192,248L 192,247L 190,247L 190,245L 187,245L 187,244L 185,244L 185,243L 183,243L 183,242L 180,242L 180,241L 178,241L 178,240L 176,240Z" style="fill:rgb(248,245,239);"/>
<path d="M 141,155L 141,157L 140,157L 140,158L 148,158L 148,157L 149,157L 149,155Z" style="fill:rgb(248,245,239);"/>
<path d="M 149,154L 149,156L 151,156L 151,157L 152,157L 152,156L 156,156L 156,154Z" style="fill:rgb(248,245,239);"/>
<path d="M 153,238L 153,237L 154,237L 154,236L 155,236L 155,235L 156,235L 156,234L 155,234L 155,233L 154,233L 154,234L 153,234L 153,233L 151,233L 151,235L 149,235L 149,236L 152,236L 152,238Z" style="fill:rgb(248,245,239);"/>
<path d="M 163,152L 163,153L 157,153L 157,154L 156,154L 156,155L 164,155L 164,154L 168,154L 168,155L 169,155L 169,152Z" style="fill:rgb(248,245,239);"/>
<path d="M 174,153L 174,151L 169,151L 169,153L 171,153L 171,154L 172,154L 172,153Z" style="fill:rgb(248,245,239);"/>
<path d="M 194,112L 194,98L 193,98L 193,112Z" style="fill:rgb(248,245,239);"/>
<path d="M 194,119L 195,119L 195,121L 196,121L 196,124L 197,124L 197,126L 198,126L 198,129L 199,129L 199,131L 200,131L 200,134L 201,134L 201,128L 200,128L 200,123L 199,123L 199,120L 198,120L 198,115L 197,115L 197,117L 196,117L 196,116L 195,116L 195,117L 194,117Z" style="fill:rgb(248,245,239);"/>
<path d="M 201,198L 200,198L 200,197L 199,197L 199,195L 195,195L 195,198L 197,198L 197,200L 199,200L 199,199L 201,199Z" style="fill:rgb(248,245,239);"/>
<path d="M 204,141L 204,137L 205,137L 205,136L 204,136L 204,134L 203,134L 203,132L 202,132L 202,131L 201,131L 201,136L 202,136L 202,139L 203,139L 203,141Z" style="fill:rgb(248,245,239);"/>
<path d="M 206,146L 206,144L 207,144L 207,137L 206,137L 206,139L 205,139L 205,138L 204,138L 204,144L 205,144L 205,146Z" style="fill:rgb(248,245,239);"/>
<path d="M 221,209L 221,199L 220,199L 220,209Z" style="fill:rgb(248,245,239);"/>
<path d="M 32,143L 32,144L 35,144L 35,145L 39,145L 39,146L 45,146L 45,147L 48,147L 48,148L 52,148L 52,149L 58,149L 58,150L 60,150L 60,149L 62,149L 62,150L 63,150L 63,151L 64,151L 64,153L 65,153L 65,187L 66,187L 66,188L 72,188L 72,189L 95,189L 95,188L 96,188L 96,157L 97,157L 97,156L 98,156L 98,155L 99,155L 99,154L 102,154L 102,155L 129,155L 129,154L 138,154L 138,153L 149,153L 149,152L 157,152L 157,151L 161,151L 161,150L 169,150L 169,149L 174,149L 174,148L 178,148L 178,147L 183,147L 183,146L 187,146L 187,145L 191,145L 191,144L 195,144L 195,143L 200,143L 200,137L 199,137L 199,135L 198,135L 198,132L 197,132L 197,130L 196,130L 196,127L 195,127L 195,125L 194,125L 194,122L 193,122L 193,120L 192,120L 192,118L 186,118L 186,119L 181,119L 181,120L 178,120L 178,121L 170,121L 170,122L 165,122L 165,123L 160,123L 160,124L 153,124L 153,125L 148,125L 148,126L 135,126L 135,127L 118,127L 118,128L 114,128L 114,127L 110,127L 110,128L 109,128L 109,127L 90,127L 90,126L 80,126L 80,125L 72,125L 72,124L 64,124L 64,123L 60,123L 60,122L 56,122L 56,121L 49,121L 49,120L 44,120L 44,119L 40,119L 40,118L 38,118L 38,117L 35,117L 35,119L 34,119L 34,121L 33,121L 33,123L 32,123L 32,125L 31,125L 31,129L 30,129L 30,131L 29,131L 29,133L 28,133L 28,136L 27,136L 27,138L 26,138L 26,142L 27,142L 27,143Z" style="fill:rgb(231,31,31);"/>
<path d="M 41,258L 41,259L 48,259L 48,260L 86,260L 86,258L 83,258L 83,257L 80,257L 80,256L 77,256L 77,255L 75,255L 75,254L 73,254L 73,253L 71,253L 71,252L 69,252L 69,251L 68,251L 68,250L 66,250L 66,249L 64,249L 64,248L 62,248L 62,247L 61,247L 61,246L 60,246L 60,245L 59,245L 59,244L 57,244L 57,243L 55,243L 55,244L 51,244L 51,245L 48,245L 48,246L 47,246L 47,247L 45,247L 45,248L 43,248L 43,249L 41,249L 41,250L 40,250L 40,251L 38,251L 38,252L 37,252L 37,253L 36,253L 36,256L 37,256L 37,258Z" style="fill:rgb(247,174,12);"/>
<path d="M 71,99L 73,99L 73,100L 74,100L 74,101L 76,101L 76,102L 79,102L 79,103L 81,103L 81,104L 84,104L 84,105L 86,105L 86,106L 89,106L 89,107L 93,107L 93,108L 98,108L 98,109L 103,109L 103,110L 122,110L 122,109L 128,109L 128,108L 133,108L 133,107L 136,107L 136,106L 140,106L 140,105L 143,105L 143,104L 145,104L 145,103L 147,103L 147,102L 150,102L 150,101L 152,101L 152,100L 155,100L 155,98L 157,98L 157,97L 158,97L 158,96L 157,96L 157,95L 156,95L 156,94L 155,94L 155,93L 153,93L 153,92L 149,92L 149,91L 145,91L 145,90L 137,90L 137,89L 127,89L 127,88L 100,88L 100,89L 90,89L 90,90L 82,90L 82,91L 79,91L 79,92L 76,92L 76,93L 71,93L 71,94L 70,94L 70,95L 69,95L 69,98L 71,98Z" style="fill:rgb(247,174,12);"/>
<path d="M 180,260L 180,259L 185,259L 185,258L 188,258L 188,257L 189,257L 189,256L 190,256L 190,253L 189,253L 189,252L 188,252L 188,251L 187,251L 187,250L 186,250L 186,249L 184,249L 184,248L 181,248L 181,247L 179,247L 179,246L 177,246L 177,245L 176,245L 176,244L 171,244L 171,243L 170,243L 170,244L 168,244L 168,245L 167,245L 167,246L 165,246L 165,247L 164,247L 164,248L 163,248L 163,249L 160,249L 160,250L 159,250L 159,251L 157,251L 157,252L 156,252L 156,253L 154,253L 154,254L 151,254L 151,255L 149,255L 149,256L 146,256L 146,257L 143,257L 143,258L 141,258L 141,259L 142,259L 142,260Z" style="fill:rgb(247,174,12);"/>
</svg>